<svg width="40" height="46" viewBox="0 0 40 46" fill="none" xmlns="http://www.w3.org/2000/svg">
<path d="M13.0685 10.3885H13.0592C12.882 10.3885 12.7121 10.4589 12.5868 10.5842C12.4615 10.7095 12.3911 10.8795 12.3911 11.0567C12.3911 11.2339 12.4615 11.4038 12.5868 11.5291C12.7121 11.6544 12.882 11.7248 13.0592 11.7248H13.0685C13.2457 11.7248 13.4156 11.6544 13.5409 11.5291C13.6662 11.4038 13.7366 11.2339 13.7366 11.0567C13.7366 10.8795 13.6662 10.7095 13.5409 10.5842C13.4156 10.4589 13.2457 10.3885 13.0685 10.3885ZM15.8429 17.4264H15.8337C15.6565 17.4264 15.4866 17.4968 15.3613 17.6221C15.236 17.7474 15.1656 17.9173 15.1656 18.0945C15.1656 18.2717 15.236 18.4417 15.3613 18.567C15.4866 18.6923 15.6565 18.7627 15.8337 18.7627H15.8429C16.0201 18.7627 16.1901 18.6923 16.3154 18.567C16.4407 18.4417 16.5111 18.2717 16.5111 18.0945C16.5111 17.9173 16.4407 17.7474 16.3154 17.6221C16.1901 17.4968 16.0201 17.4264 15.8429 17.4264ZM13.0685 17.4264H13.0592C12.882 17.4264 12.7121 17.4968 12.5868 17.6221C12.4615 17.7474 12.3911 17.9173 12.3911 18.0945C12.3911 18.2717 12.4615 18.4417 12.5868 18.567C12.7121 18.6923 12.882 18.7627 13.0592 18.7627H13.0685C13.2457 18.7627 13.4156 18.6923 13.5409 18.567C13.6662 18.4417 13.7366 18.2717 13.7366 18.0945C13.7366 17.9173 13.6662 17.7474 13.5409 17.6221C13.4156 17.4968 13.2457 17.4264 13.0685 17.4264ZM15.8429 10.3885H15.8337C15.6565 10.3885 15.4866 10.4589 15.3613 10.5842C15.236 10.7095 15.1656 10.8795 15.1656 11.0567C15.1656 11.2339 15.236 11.4038 15.3613 11.5291C15.4866 11.6544 15.6565 11.7248 15.8337 11.7248H15.8429C16.0201 11.7248 16.1901 11.6544 16.3154 11.5291C16.4407 11.4038 16.5111 11.2339 16.5111 11.0567C16.5111 10.8795 16.4407 10.7095 16.3154 10.5842C16.1901 10.4589 16.0201 10.3885 15.8429 10.3885ZM10.2895 14.071C10.4221 14.0714 10.5517 14.0325 10.6622 13.9592C10.7726 13.8859 10.8588 13.7815 10.9098 13.6592C10.9609 13.5369 10.9746 13.4022 10.9491 13.2721C10.9236 13.142 10.8602 13.0224 10.7667 12.9285C10.6733 12.8345 10.5541 12.7703 10.4242 12.7441C10.2942 12.7178 10.1595 12.7307 10.0369 12.7811C9.91427 12.8314 9.80937 12.917 9.73541 13.027C9.66146 13.137 9.62178 13.2664 9.62139 13.3989V13.4068C9.62146 13.4943 9.63882 13.581 9.67247 13.6618C9.70612 13.7426 9.7554 13.816 9.81748 13.8777C9.87956 13.9394 9.95322 13.9883 10.0342 14.0214C10.1152 14.0546 10.202 14.0715 10.2895 14.071ZM10.2895 16.4166C10.4221 16.417 10.5517 16.3781 10.6622 16.3047C10.7726 16.2314 10.8588 16.127 10.9098 16.0047C10.9609 15.8824 10.9746 15.7477 10.9491 15.6177C10.9236 15.4876 10.8602 15.368 10.7667 15.274C10.6733 15.18 10.5541 15.1159 10.4242 15.0896C10.2942 15.0634 10.1595 15.0763 10.0369 15.1266C9.91427 15.177 9.80937 15.2626 9.73541 15.3726C9.66146 15.4825 9.62178 15.612 9.62139 15.7445V15.7524C9.62146 15.8399 9.63882 15.9266 9.67247 16.0074C9.70612 16.0882 9.7554 16.1616 9.81748 16.2233C9.87956 16.285 9.95322 16.3338 10.0342 16.367C10.1152 16.4002 10.202 16.417 10.2895 16.4166ZM10.2895 10.3885C10.2018 10.3885 10.1149 10.4058 10.0338 10.4394C9.95278 10.473 9.87912 10.5222 9.81707 10.5842C9.75503 10.6463 9.70581 10.7199 9.67224 10.801C9.63866 10.8821 9.62138 10.9689 9.62139 11.0567V11.0611C9.62205 11.1934 9.66189 11.3225 9.73588 11.4321C9.80986 11.5418 9.91468 11.627 10.0371 11.6771C10.1595 11.7272 10.294 11.74 10.4236 11.7137C10.5533 11.6874 10.6722 11.6233 10.7654 11.5294C10.8586 11.4356 10.922 11.3162 10.9474 11.1864C10.9728 11.0566 10.9592 10.9222 10.9083 10.8001C10.8574 10.6781 10.7714 10.5738 10.6613 10.5006C10.5512 10.4273 10.4218 10.3883 10.2895 10.3885ZM18.6174 17.4264H18.6082C18.431 17.4264 18.261 17.4968 18.1357 17.6221C18.0104 17.7474 17.94 17.9173 17.94 18.0945C17.94 18.2717 18.0104 18.4417 18.1357 18.567C18.261 18.6923 18.431 18.7627 18.6082 18.7627H18.6174C18.7946 18.7627 18.9646 18.6923 19.0899 18.567C19.2152 18.4417 19.2856 18.2717 19.2856 18.0945C19.2856 17.9173 19.2152 17.7474 19.0899 17.6221C18.9646 17.4968 18.7946 17.4264 18.6174 17.4264H18.6174ZM10.2895 17.4242C10.1122 17.4244 9.94216 17.495 9.81682 17.6205C9.69148 17.746 9.62108 17.9161 9.62108 18.0934C9.62108 18.2708 9.69148 18.4409 9.81682 18.5664C9.94216 18.6919 10.1122 18.7625 10.2895 18.7627H10.294C10.4711 18.7616 10.6406 18.6903 10.7653 18.5644C10.8899 18.4385 10.9596 18.2684 10.959 18.0912C10.9584 17.9141 10.8876 17.7444 10.7621 17.6194C10.6366 17.4943 10.4667 17.4242 10.2895 17.4242ZM21.3918 10.3885H21.3826C21.2054 10.3885 21.0354 10.4589 20.9101 10.5842C20.7848 10.7095 20.7144 10.8795 20.7144 11.0567C20.7144 11.2339 20.7848 11.4038 20.9101 11.5291C21.0354 11.6544 21.2054 11.7248 21.3826 11.7248H21.3918C21.569 11.7248 21.739 11.6544 21.8643 11.5291C21.9896 11.4038 22.06 11.2339 22.06 11.0567C22.06 10.8795 21.9896 10.7095 21.8643 10.5842C21.739 10.4589 21.569 10.3885 21.3918 10.3885ZM29.7105 17.4242C29.5328 17.4245 29.3624 17.4952 29.2368 17.6209C29.1111 17.7465 29.0404 17.9168 29.0401 18.0945C29.0403 18.2719 29.1109 18.4419 29.2364 18.5673C29.3619 18.6926 29.532 18.763 29.7094 18.763C29.8867 18.763 30.0568 18.6926 30.1823 18.5673C30.3078 18.4419 30.3784 18.2719 30.3786 18.0945V18.0901C30.3786 18.0025 30.3612 17.9157 30.3276 17.8348C30.294 17.7539 30.2448 17.6804 30.1827 17.6185C30.1206 17.5567 30.047 17.5077 29.9659 17.4743C29.8849 17.441 29.7981 17.4239 29.7105 17.4242ZM29.7105 15.0802C29.5779 15.0798 29.4482 15.1187 29.3378 15.192C29.2274 15.2654 29.1412 15.3698 29.0902 15.4921C29.0391 15.6144 29.0254 15.7491 29.0509 15.8791C29.0764 16.0092 29.1398 16.1288 29.2333 16.2228C29.3267 16.3167 29.4459 16.3809 29.5758 16.4072C29.7058 16.4334 29.8405 16.4205 29.9631 16.3702C30.0857 16.3198 30.1906 16.2342 30.2646 16.1242C30.3385 16.0142 30.3782 15.8848 30.3786 15.7523V15.7444C30.3785 15.6569 30.3612 15.5702 30.3275 15.4894C30.2939 15.4086 30.2446 15.3352 30.1825 15.2735C30.1204 15.2118 30.0468 15.163 29.9658 15.1298C29.8848 15.0966 29.798 15.0798 29.7105 15.0802ZM29.7105 12.7346C29.5779 12.7342 29.4482 12.7732 29.3378 12.8465C29.2274 12.9198 29.1412 13.0242 29.0902 13.1465C29.0391 13.2688 29.0254 13.4035 29.0509 13.5335C29.0764 13.6636 29.1398 13.7832 29.2333 13.8772C29.3267 13.9712 29.4459 14.0353 29.5758 14.0616C29.7058 14.0878 29.8405 14.0749 29.9631 14.0246C30.0857 13.9742 30.1906 13.8886 30.2646 13.7787C30.3385 13.6687 30.3782 13.5392 30.3786 13.4067V13.3989C30.3785 13.3113 30.3612 13.2247 30.3275 13.1438C30.2939 13.063 30.2446 12.9897 30.1825 12.9279C30.1204 12.8662 30.0468 12.8174 29.9658 12.7842C29.8848 12.751 29.798 12.7342 29.7105 12.7346ZM29.7105 10.3885H29.706C29.5284 10.3891 29.3583 10.4602 29.233 10.586C29.1078 10.7119 29.0376 10.8824 29.0379 11.06C29.0382 11.2376 29.1089 11.4078 29.2346 11.5333C29.3603 11.6588 29.5306 11.7293 29.7082 11.7293C29.8858 11.7293 30.0562 11.6588 30.1819 11.5333C30.3076 11.4078 30.3783 11.2376 30.3786 11.06C30.3789 10.8824 30.3087 10.7119 30.1834 10.586C30.0582 10.4602 29.8881 10.3891 29.7105 10.3885ZM39.9966 39.9778C39.9954 39.9652 39.9931 39.9531 39.9911 39.9408C39.9897 39.9316 39.9888 39.9224 39.9869 39.9131C39.9821 39.8892 39.976 39.8655 39.9686 39.8422L34.6609 22.5921L35.7085 5.34521H36.1067C36.2973 5.34521 36.4851 5.29992 36.6547 5.21309C36.8243 5.12625 36.9709 5.00035 37.0823 4.84576C37.1937 4.69117 37.2668 4.51231 37.2956 4.32394C37.3243 4.13556 37.3079 3.94304 37.2476 3.76226L36.3489 1.06591C36.2456 0.755355 36.0472 0.485226 35.7817 0.293883C35.5161 0.102541 35.1971 -0.000287509 34.8698 6.03792e-07H5.13017C4.80288 -0.000286891 4.48383 0.102552 4.21832 0.293912C3.95281 0.485271 3.75434 0.755423 3.6511 1.066L2.75249 3.76209C2.69219 3.94287 2.67571 4.1354 2.70443 4.3238C2.73314 4.5122 2.80622 4.69107 2.91763 4.84569C3.02905 5.0003 3.17561 5.12622 3.34525 5.21307C3.51488 5.29992 3.70273 5.34521 3.8933 5.34521H4.2915L5.33909 22.5921L0.0313829 39.8422C0.0239762 39.8655 0.0178697 39.8892 0.0130915 39.9131C0.0112207 39.9224 0.0103297 39.9316 0.00887226 39.9408C0.00693641 39.9531 0.00463092 39.9652 0.00339083 39.9778C0.000959091 40.0018 -0.000166244 40.0258 1.97964e-05 40.0499V44.0534C0.000491369 44.4667 0.164896 44.863 0.457167 45.1553C0.749437 45.4476 1.14571 45.612 1.55904 45.6124H38.441C38.8543 45.612 39.2506 45.4476 39.5428 45.1553C39.8351 44.863 39.9995 44.4667 40 44.0534V40.0499C40.0002 40.0258 39.999 40.0018 39.9966 39.9778ZM38.4272 39.3764H35.8164L32.2036 27.6348L33.8326 24.4438L38.4272 39.3764ZM32.8954 23.3407L31.0762 26.9043H8.92401L7.10467 23.3407H32.8954ZM6.64218 22.0044L5.6303 5.3452H17.0267C17.1786 6.02039 17.5557 6.62378 18.0961 7.05613C18.6365 7.48847 19.3079 7.72401 20 7.72401C20.6921 7.72401 21.3635 7.48847 21.9039 7.05613C22.4443 6.62378 22.8214 6.02039 22.9733 5.3452H34.3697L33.3578 22.0044H6.64218ZM9.00839 28.2406H30.9919L34.4183 39.3764H22.3789C22.2912 39.3763 22.2043 39.3936 22.1232 39.4272C22.0421 39.4608 21.9685 39.51 21.9064 39.572C21.8444 39.6341 21.7952 39.7077 21.7616 39.7888C21.728 39.8699 21.7107 39.9568 21.7107 40.0445C21.7107 40.4982 21.5305 40.9334 21.2097 41.2542C20.8889 41.575 20.4537 41.7552 20 41.7552C19.5463 41.7552 19.1111 41.575 18.7903 41.2542C18.4695 40.9334 18.2893 40.4982 18.2893 40.0445C18.2893 39.9568 18.272 39.8699 18.2384 39.7888C18.2048 39.7077 18.1556 39.6341 18.0936 39.572C18.0315 39.51 17.9579 39.4608 17.8768 39.4272C17.7957 39.3936 17.7089 39.3763 17.6211 39.3764H5.58175L9.00839 28.2406ZM4.07878 4.0089L4.91884 1.48855C4.93356 1.44427 4.96184 1.40574 4.99967 1.37843C5.03751 1.35111 5.08297 1.33639 5.12964 1.33634L5.13051 1.33639H34.8695L34.8704 1.33634C34.917 1.33639 34.9625 1.3511 35.0003 1.3784C35.0381 1.4057 35.0664 1.4442 35.0812 1.48846L35.9212 4.00891H22.3789C22.2912 4.0089 22.2043 4.02618 22.1232 4.05975C22.0421 4.09333 21.9685 4.14254 21.9064 4.20459C21.8444 4.26663 21.7952 4.34029 21.7616 4.42136C21.728 4.50242 21.7107 4.58931 21.7107 4.67706C21.7107 5.13077 21.5305 5.56591 21.2097 5.88673C20.8889 6.20756 20.4537 6.3878 20 6.3878C19.5463 6.3878 19.1111 6.20756 18.7903 5.88673C18.4695 5.56591 18.2893 5.13077 18.2893 4.67706C18.2893 4.58931 18.272 4.50242 18.2384 4.42136C18.2048 4.34029 18.1556 4.26663 18.0936 4.20459C18.0315 4.14254 17.9579 4.09333 17.8768 4.05975C17.7957 4.02618 17.7089 4.0089 17.6211 4.00891L4.07878 4.0089ZM6.16745 24.4437L7.79667 27.6349L4.18366 39.3764H1.57278L6.16745 24.4437ZM38.6637 44.0534C38.6636 44.1125 38.6401 44.1691 38.5984 44.2108C38.5566 44.2526 38.5 44.2761 38.441 44.2761H1.55904C1.49999 44.2761 1.44337 44.2526 1.40161 44.2108C1.35986 44.1691 1.33638 44.1125 1.33632 44.0534V40.7127H4.67383C4.67499 40.7127 4.67616 40.7129 4.67734 40.7129C4.67842 40.7129 4.67949 40.7127 4.6806 40.7127H17.0267C17.1786 41.3878 17.5557 41.9912 18.0961 42.4236C18.6365 42.8559 19.3079 43.0915 20 43.0915C20.6921 43.0915 21.3635 42.8559 21.9039 42.4236C22.4443 41.9912 22.8214 41.3878 22.9733 40.7127H35.3205L35.3227 40.7128L35.325 40.7127H38.6637V44.0534ZM24.1663 10.3885H24.1571C23.9799 10.3885 23.8099 10.4589 23.6846 10.5842C23.5593 10.7095 23.4889 10.8795 23.4889 11.0567C23.4889 11.2339 23.5593 11.4038 23.6846 11.5291C23.8099 11.6544 23.9799 11.7248 24.1571 11.7248H24.1663C24.3435 11.7248 24.5134 11.6544 24.6387 11.5291C24.764 11.4038 24.8344 11.2339 24.8344 11.0567C24.8344 10.8795 24.764 10.7095 24.6387 10.5842C24.5134 10.4589 24.3435 10.3885 24.1663 10.3885ZM24.1663 17.4264H24.1571C23.9799 17.4264 23.8099 17.4968 23.6846 17.6221C23.5593 17.7474 23.4889 17.9173 23.4889 18.0945C23.4889 18.2717 23.5593 18.4417 23.6846 18.567C23.8099 18.6923 23.9799 18.7627 24.1571 18.7627H24.1663C24.3435 18.7627 24.5134 18.6923 24.6387 18.567C24.764 18.4417 24.8344 18.2717 24.8344 18.0945C24.8344 17.9173 24.764 17.7474 24.6387 17.6221C24.5134 17.4968 24.3435 17.4264 24.1663 17.4264ZM21.3918 17.4264H21.3826C21.2054 17.4264 21.0354 17.4968 20.9101 17.6221C20.7848 17.7474 20.7144 17.9173 20.7144 18.0945C20.7144 18.2717 20.7848 18.4417 20.9101 18.567C21.0354 18.6923 21.2054 18.7627 21.3826 18.7627H21.3918C21.569 18.7627 21.739 18.6923 21.8643 18.567C21.9896 18.4417 22.06 18.2717 22.06 18.0945C22.06 17.9173 21.9896 17.7474 21.8643 17.6221C21.739 17.4968 21.569 17.4264 21.3918 17.4264ZM26.9408 17.4264H26.9315C26.7543 17.4264 26.5844 17.4968 26.4591 17.6221C26.3338 17.7474 26.2634 17.9173 26.2634 18.0945C26.2634 18.2717 26.3338 18.4417 26.4591 18.567C26.5844 18.6923 26.7543 18.7627 26.9315 18.7627H26.9408C27.118 18.7627 27.2879 18.6923 27.4132 18.567C27.5385 18.4417 27.6089 18.2717 27.6089 18.0945C27.6089 17.9173 27.5385 17.7474 27.4132 17.6221C27.2879 17.4968 27.118 17.4264 26.9408 17.4264ZM18.6174 10.3885H18.6082C18.431 10.3885 18.261 10.4589 18.1357 10.5842C18.0104 10.7095 17.94 10.8795 17.94 11.0567C17.94 11.2339 18.0104 11.4038 18.1357 11.5291C18.261 11.6544 18.431 11.7248 18.6082 11.7248H18.6174C18.7946 11.7248 18.9646 11.6544 19.0899 11.5291C19.2152 11.4038 19.2856 11.2339 19.2856 11.0567C19.2856 10.8795 19.2152 10.7095 19.0899 10.5842C18.9646 10.4589 18.7946 10.3885 18.6174 10.3885H18.6174ZM26.9408 10.3885H26.9315C26.7543 10.3885 26.5844 10.4589 26.4591 10.5842C26.3338 10.7095 26.2634 10.8795 26.2634 11.0567C26.2634 11.2339 26.3338 11.4038 26.4591 11.5291C26.5844 11.6544 26.7543 11.7248 26.9315 11.7248H26.9408C27.118 11.7248 27.2879 11.6544 27.4132 11.5291C27.5385 11.4038 27.6089 11.2339 27.6089 11.0567C27.6089 10.8795 27.5385 10.7095 27.4132 10.5842C27.2879 10.4589 27.118 10.3885 26.9408 10.3885Z" fill="#FF4A8B"/>
<path d="M10.9889 34.2986C9.07333 34.2986 7.46904 35.4069 7.08237 36.8802C7.08167 36.8822 7.08078 36.8838 7.08007 36.8859C7.06503 36.9332 7.05299 36.9886 7.04379 37.0486C7.01029 37.2192 6.99334 37.3927 6.99316 37.5665C6.99316 39.3685 8.78552 40.8345 10.9889 40.8345C13.1924 40.8345 14.9846 39.3686 14.9846 37.5665C14.9845 35.7645 13.1922 34.2986 10.9889 34.2986ZM10.9889 40.4442C9.36893 40.4442 7.99528 39.5869 7.54223 38.411C7.7442 38.5131 7.96014 38.4814 8.12901 38.4563C8.24831 38.4389 8.36097 38.4222 8.45222 38.4467C8.63763 38.4958 8.75649 38.7365 8.87146 38.9693C8.91659 39.0602 8.95916 39.1464 9.00687 39.2243C9.30441 39.7077 9.79843 39.8712 10.265 39.6422C10.3415 39.6049 10.4114 39.5657 10.4785 39.5287C10.7255 39.3912 10.8741 39.308 11.1577 39.3908C11.2941 39.4302 11.4233 39.4886 11.5602 39.5505C11.8161 39.6659 12.0804 39.785 12.404 39.785C12.4258 39.785 12.4481 39.7844 12.4705 39.7833C12.9858 39.7574 13.1958 39.4756 13.3812 39.2272C13.4789 39.096 13.5712 38.9719 13.7095 38.8726C13.7865 38.8173 13.8925 38.8072 14.0151 38.7957C14.0941 38.7881 14.1819 38.7789 14.2705 38.7565C13.7023 39.7508 12.4454 40.4442 10.9889 40.4442ZM14.5397 38.0616C14.5316 38.0703 14.5243 38.0797 14.518 38.0898C14.4232 38.2408 14.3192 38.3332 14.2002 38.3714C14.1359 38.3919 14.0593 38.3994 13.9783 38.4071C13.8219 38.4215 13.6448 38.4384 13.4818 38.5554C13.2945 38.6902 13.1742 38.8513 13.0684 38.9937C12.8965 39.2241 12.7827 39.3765 12.4509 39.3931C12.19 39.4072 11.9626 39.3035 11.7208 39.1944C11.5776 39.1297 11.4293 39.0629 11.2669 39.0155C10.8272 38.8879 10.5534 39.0401 10.2887 39.1873C10.2274 39.2213 10.1631 39.257 10.0931 39.2918C9.68639 39.4909 9.43079 39.1678 9.33937 39.0196C9.30087 38.9571 9.26228 38.8789 9.22148 38.7965C9.08227 38.5147 8.90889 38.1638 8.55249 38.0696C8.38363 38.0242 8.21831 38.0487 8.07201 38.0703C7.85819 38.1017 7.74154 38.1133 7.63914 38.0007C7.4401 37.7823 7.38797 37.3827 7.427 37.1193C7.6972 35.7442 9.19148 34.6889 10.9887 34.6889C12.9767 34.6889 14.594 35.9797 14.594 37.5665C14.5939 37.7331 14.5757 37.8991 14.5397 38.0616Z" fill="#FF4A8B"/>
<path d="M10.9887 36.0513C10.2419 36.0513 9.67871 36.3841 9.67871 36.8256C9.67871 37.0883 9.8789 37.3116 10.1975 37.4506C10.3706 37.5393 10.6118 37.5839 10.8492 37.5963L10.8535 37.5965C10.899 37.5988 10.9443 37.6002 10.9886 37.6002C11.0333 37.6002 11.0786 37.5986 11.1241 37.5965C11.1255 37.5965 11.1266 37.5963 11.1279 37.5963C11.3655 37.584 11.6068 37.5394 11.7799 37.4505C12.0984 37.3118 12.2987 37.0885 12.2987 36.8258C12.2987 36.3842 11.7355 36.0513 10.9887 36.0513ZM10.9887 37.2098C10.756 37.2098 10.5587 37.1704 10.4067 37.1134C10.5133 37.0687 10.7151 37.0208 10.9887 37.0208C11.2627 37.0208 11.4644 37.0688 11.5705 37.1132C11.4188 37.1704 11.2217 37.2098 10.9887 37.2098ZM11.902 36.8612C11.71 36.6953 11.3297 36.6305 10.9887 36.6305C10.6478 36.6305 10.2673 36.6952 10.0753 36.8612C10.0714 36.8496 10.0693 36.8376 10.069 36.8255C10.069 36.669 10.4273 36.4415 10.9887 36.4415C11.5501 36.4415 11.9084 36.6689 11.9084 36.8255C11.908 36.8376 11.9058 36.8496 11.902 36.8612Z" fill="#FF4A8B"/>
<path d="M9.00891 35.6544C8.97359 35.6165 8.9247 35.5943 8.87297 35.5924C8.82124 35.5906 8.77089 35.6093 8.73296 35.6445L8.06592 36.2649C8.03728 36.2916 8.01735 36.3263 8.00872 36.3645C8.00008 36.4027 8.00313 36.4427 8.01747 36.4791C8.03181 36.5156 8.05679 36.5469 8.08915 36.569C8.12151 36.591 8.15976 36.6029 8.19894 36.6029C8.24664 36.6029 8.29416 36.5857 8.33178 36.5507L8.99882 35.9304C9.03676 35.8951 9.05914 35.8462 9.06103 35.7945C9.06293 35.7427 9.04418 35.6923 9.00891 35.6544Z" fill="#FF4A8B"/>
<path d="M9.03028 37.4582C9.01606 37.4369 8.99778 37.4186 8.97649 37.4043C8.9552 37.39 8.9313 37.3801 8.90618 37.3751C8.88105 37.3701 8.85518 37.3701 8.83004 37.3751C8.80491 37.38 8.781 37.3899 8.75969 37.4041C8.73837 37.4184 8.72007 37.4366 8.70581 37.4579C8.69156 37.4792 8.68165 37.5031 8.67663 37.5283C8.67161 37.5534 8.67159 37.5792 8.67657 37.6044C8.68155 37.6295 8.69144 37.6534 8.70566 37.6747L9.15047 38.342C9.1799 38.3833 9.22425 38.4115 9.27413 38.4207C9.32402 38.4298 9.37551 38.4192 9.41771 38.3911C9.4599 38.3629 9.48948 38.3195 9.50018 38.2699C9.51087 38.2203 9.50185 38.1685 9.47501 38.1255L9.03028 37.4582Z" fill="#FF4A8B"/>
<path d="M9.40845 36.4119L8.94354 36.5735C8.91933 36.5819 8.89702 36.595 8.87787 36.6121C8.85873 36.6291 8.84313 36.6498 8.83197 36.6728C8.82081 36.6959 8.8143 36.7209 8.81282 36.7465C8.81135 36.7721 8.81493 36.7978 8.82336 36.822C8.83663 36.8603 8.86151 36.8935 8.89453 36.917C8.92755 36.9405 8.96708 36.9532 9.00762 36.9532C9.02895 36.9532 9.05063 36.9496 9.0717 36.9421L9.53678 36.7805C9.58426 36.7625 9.62283 36.7266 9.64429 36.6805C9.66575 36.6345 9.66841 36.5819 9.65171 36.5339C9.635 36.4859 9.60025 36.4463 9.55482 36.4235C9.5094 36.4008 9.45689 36.3966 9.40845 36.4119Z" fill="#FF4A8B"/>
<path d="M11.4023 37.9274C11.3693 37.8875 11.3219 37.8623 11.2704 37.8573C11.2189 37.8524 11.1675 37.8681 11.1276 37.901C11.0877 37.934 11.0625 37.9814 11.0575 38.033C11.0526 38.0845 11.0683 38.1359 11.1013 38.1758L11.4852 38.6407C11.5015 38.6605 11.5215 38.6769 11.5441 38.6889C11.5668 38.701 11.5915 38.7084 11.6171 38.7109C11.6426 38.7133 11.6683 38.7107 11.6928 38.7032C11.7173 38.6956 11.7401 38.6834 11.7598 38.667C11.7997 38.634 11.8249 38.5866 11.8298 38.5351C11.8347 38.4836 11.819 38.4322 11.786 38.3923L11.4023 37.9274Z" fill="#FF4A8B"/>
<path d="M13.5619 37.1103L12.8746 37.4975C12.8523 37.5101 12.8327 37.5269 12.8169 37.5471C12.8011 37.5672 12.7894 37.5903 12.7825 37.6149C12.7757 37.6396 12.7737 37.6654 12.7768 37.6908C12.7799 37.7162 12.788 37.7408 12.8006 37.7631C12.8132 37.7854 12.83 37.805 12.8501 37.8209C12.8703 37.8367 12.8933 37.8484 12.918 37.8553C12.9426 37.8622 12.9684 37.8642 12.9938 37.8611C13.0193 37.8581 13.0438 37.85 13.0661 37.8375L13.7535 37.4504C13.7986 37.425 13.8318 37.3827 13.8457 37.3328C13.8597 37.2829 13.8533 37.2296 13.8279 37.1844C13.8153 37.1621 13.7985 37.1424 13.7783 37.1266C13.7581 37.1107 13.735 37.099 13.7103 37.0921C13.6856 37.0852 13.6598 37.0833 13.6343 37.0864C13.6089 37.0895 13.5843 37.0976 13.5619 37.1103Z" fill="#FF4A8B"/>
<path d="M13.1238 36.4524C13.1294 36.4777 13.1399 36.5017 13.1548 36.5228C13.1697 36.544 13.1886 36.562 13.2105 36.5758C13.2324 36.5896 13.2568 36.5989 13.2824 36.6032C13.3079 36.6074 13.334 36.6065 13.3592 36.6006C13.3844 36.5947 13.4082 36.5838 13.4291 36.5686C13.4501 36.5534 13.4678 36.5342 13.4812 36.512C13.4947 36.4899 13.5036 36.4654 13.5074 36.4398C13.5113 36.4142 13.51 36.3881 13.5037 36.363L13.2815 35.4189C13.2756 35.3939 13.2649 35.3704 13.2499 35.3496C13.235 35.3288 13.216 35.3111 13.1942 35.2976C13.1724 35.2842 13.1482 35.2751 13.1229 35.271C13.0976 35.267 13.0717 35.2679 13.0468 35.2739C13.0218 35.2797 12.9983 35.2904 12.9775 35.3053C12.9567 35.3203 12.939 35.3392 12.9255 35.361C12.9121 35.3828 12.903 35.407 12.899 35.4323C12.8949 35.4576 12.8958 35.4835 12.9018 35.5084L13.1238 36.4524Z" fill="#FF4A8B"/>
<path d="M12.2515 35.0213L11.7317 35.3851C11.6896 35.415 11.6611 35.4602 11.6523 35.511C11.6435 35.5618 11.6551 35.6141 11.6847 35.6563C11.7143 35.6985 11.7594 35.7273 11.8101 35.7364C11.8609 35.7455 11.9132 35.7342 11.9556 35.7048L12.4755 35.341C12.4966 35.3264 12.5147 35.3077 12.5286 35.286C12.5425 35.2644 12.552 35.2402 12.5565 35.2149C12.5611 35.1896 12.5605 35.1636 12.555 35.1385C12.5495 35.1134 12.539 35.0896 12.5243 35.0685C12.5095 35.0475 12.4907 35.0295 12.469 35.0157C12.4473 35.002 12.4231 34.9926 12.3977 34.9882C12.3724 34.9838 12.3464 34.9845 12.3213 34.9902C12.2962 34.9959 12.2725 35.0064 12.2515 35.0213Z" fill="#FF4A8B"/>
<path d="M9.88031 35.3364L10.4667 35.7812C10.4871 35.7968 10.5104 35.8081 10.5351 35.8146C10.5599 35.8211 10.5857 35.8227 10.6111 35.8192C10.6365 35.8157 10.6609 35.8072 10.683 35.7942C10.7051 35.7812 10.7244 35.764 10.7398 35.7435C10.7554 35.7231 10.7667 35.6999 10.7732 35.6751C10.7797 35.6503 10.7813 35.6245 10.7778 35.5991C10.7743 35.5737 10.7659 35.5493 10.7529 35.5272C10.74 35.5051 10.7228 35.4857 10.7024 35.4702L10.116 35.0254C10.0746 34.9964 10.0236 34.9845 9.97366 34.9923C9.92372 35.0001 9.87876 35.027 9.84823 35.0673C9.8177 35.1076 9.80398 35.1581 9.80997 35.2083C9.81595 35.2585 9.84116 35.3044 9.88031 35.3364Z" fill="#FF4A8B"/>
<path d="M10.0673 38.0912L9.76419 38.3744C9.74543 38.3919 9.73031 38.4129 9.71968 38.4362C9.70905 38.4595 9.70313 38.4847 9.70226 38.5103C9.70139 38.5359 9.70558 38.5614 9.7146 38.5854C9.72362 38.6094 9.73728 38.6314 9.75481 38.6501C9.77304 38.6697 9.79512 38.6852 9.81965 38.6959C9.84418 38.7065 9.87065 38.712 9.89739 38.712C9.94509 38.712 9.99297 38.6947 10.0305 38.6595L10.3336 38.3764C10.3524 38.3589 10.3675 38.3379 10.3781 38.3146C10.3888 38.2912 10.3947 38.266 10.3956 38.2404C10.3964 38.2148 10.3922 38.1893 10.3832 38.1653C10.3742 38.1413 10.3605 38.1193 10.343 38.1006C10.3255 38.0818 10.3045 38.0667 10.2812 38.0561C10.2579 38.0455 10.2327 38.0396 10.2071 38.0387C10.1815 38.0378 10.156 38.042 10.132 38.051C10.108 38.06 10.086 38.0737 10.0673 38.0912Z" fill="#FF4A8B"/>
<path d="M11.8267 28.5078C10.2356 28.5078 8.90309 29.4284 8.58191 30.6522C8.58132 30.6539 8.58059 30.6552 8.58 30.6569C8.5675 30.6962 8.55751 30.7422 8.54986 30.7921C8.52204 30.9338 8.50796 31.0778 8.50781 31.2223C8.50781 32.719 9.99658 33.9367 11.8267 33.9367C13.6571 33.9367 15.1457 32.7191 15.1457 31.2223C15.1456 29.7255 13.6568 28.5078 11.8267 28.5078ZM11.8267 33.6125C10.4812 33.6125 9.34019 32.9004 8.96388 31.9237C9.13164 32.0085 9.31101 31.9822 9.45127 31.9613C9.55036 31.9469 9.64395 31.933 9.71974 31.9533C9.87375 31.9941 9.97247 32.1941 10.068 32.3874C10.1055 32.4629 10.1408 32.5345 10.1804 32.5992C10.4276 33.0007 10.8379 33.1366 11.2255 32.9463C11.289 32.9154 11.3471 32.8828 11.4028 32.8521C11.608 32.7379 11.7314 32.6688 11.967 32.7375C12.0803 32.7703 12.1876 32.8187 12.3013 32.8702C12.5139 32.966 12.7334 33.065 13.0021 33.065C13.0203 33.065 13.0388 33.0645 13.0574 33.0635C13.4854 33.0421 13.6599 32.808 13.8139 32.6016C13.895 32.4926 13.9717 32.3896 14.0866 32.3071C14.1505 32.2611 14.2385 32.2528 14.3404 32.2432C14.406 32.2369 14.4789 32.2293 14.5525 32.2106C14.0806 33.0365 13.0365 33.6125 11.8267 33.6125ZM14.7761 31.6335C14.7694 31.6407 14.7634 31.6485 14.7581 31.6569C14.6794 31.7823 14.593 31.8591 14.4941 31.8908C14.4408 31.9078 14.3771 31.914 14.3098 31.9204C14.1799 31.9324 14.0328 31.9464 13.8974 32.0436C13.7418 32.1556 13.6419 32.2894 13.5541 32.4077C13.4112 32.5991 13.3168 32.7257 13.0412 32.7394C12.8245 32.7512 12.6355 32.665 12.4347 32.5744C12.3158 32.5206 12.1925 32.4652 12.0577 32.4258C11.6924 32.3198 11.465 32.4462 11.2452 32.5685C11.1942 32.5967 11.1408 32.6264 11.0827 32.6553C10.7449 32.8207 10.5326 32.5523 10.4566 32.4292C10.4246 32.3773 10.3926 32.3123 10.3587 32.2439C10.2431 32.0098 10.0991 31.7184 9.80303 31.6401C9.66276 31.6024 9.52544 31.6228 9.40393 31.6407C9.22632 31.6668 9.12943 31.6764 9.04438 31.5828C8.87905 31.4015 8.83575 31.0696 8.86817 30.8507C9.0926 29.7086 10.3338 28.832 11.8266 28.832C13.4778 28.832 14.8213 29.9042 14.8213 31.2223C14.8212 31.3606 14.806 31.4984 14.7761 31.6335Z" fill="#FF4A8B"/>
<path d="M11.8264 29.9634C11.2061 29.9634 10.7383 30.2399 10.7383 30.6065C10.7383 30.8248 10.9046 31.0103 11.1692 31.1257C11.313 31.1993 11.5133 31.2364 11.7106 31.2467L11.7141 31.2469C11.7519 31.2488 11.7895 31.25 11.8263 31.25C11.8635 31.25 11.901 31.2487 11.9389 31.2469C11.94 31.2469 11.9409 31.2467 11.942 31.2467C12.1394 31.2365 12.3398 31.1994 12.4835 31.1256C12.7481 31.0104 12.9145 30.8249 12.9145 30.6068C12.9145 30.2399 12.4467 29.9634 11.8264 29.9634ZM11.8264 30.9257C11.6331 30.9257 11.4692 30.8929 11.343 30.8456C11.4315 30.8085 11.5991 30.7687 11.8264 30.7687C12.054 30.7687 12.2215 30.8086 12.3097 30.8455C12.1837 30.8929 12.0199 30.9257 11.8264 30.9257ZM12.585 30.6361C12.4255 30.4983 12.1097 30.4445 11.8264 30.4445C11.5432 30.4445 11.2271 30.4983 11.0677 30.6361C11.0645 30.6265 11.0627 30.6165 11.0625 30.6065C11.0625 30.4765 11.36 30.2875 11.8264 30.2875C12.2927 30.2875 12.5903 30.4764 12.5903 30.6065C12.59 30.6165 12.5882 30.6265 12.585 30.6361Z" fill="#FF4A8B"/>
<path d="M10.1824 29.6341C10.1531 29.6027 10.1125 29.5842 10.0695 29.5826C10.0265 29.5811 9.98473 29.5967 9.95323 29.6259L9.39916 30.1412C9.37538 30.1634 9.35883 30.1922 9.35165 30.224C9.34447 30.2557 9.34701 30.2889 9.35892 30.3192C9.37084 30.3494 9.39158 30.3754 9.41846 30.3938C9.44534 30.4121 9.47711 30.4219 9.50965 30.422C9.54928 30.422 9.58875 30.4077 9.61999 30.3786L10.1741 29.8634C10.2056 29.8341 10.2242 29.7935 10.2257 29.7505C10.2273 29.7075 10.2117 29.6656 10.1824 29.6341Z" fill="#FF4A8B"/>
<path d="M10.2002 31.1322C10.1884 31.1145 10.1732 31.0993 10.1555 31.0874C10.1378 31.0756 10.118 31.0674 10.0971 31.0632C10.0763 31.059 10.0548 31.059 10.0339 31.0631C10.013 31.0673 9.99315 31.0755 9.97545 31.0873C9.95774 31.0991 9.94254 31.1143 9.9307 31.132C9.91886 31.1497 9.91063 31.1695 9.90646 31.1904C9.90229 31.2113 9.90227 31.2328 9.90641 31.2536C9.91055 31.2745 9.91876 31.2944 9.93057 31.3121L10.3 31.8663C10.3245 31.9006 10.3613 31.924 10.4028 31.9317C10.4442 31.9393 10.487 31.9305 10.522 31.9071C10.5571 31.8837 10.5816 31.8476 10.5905 31.8064C10.5994 31.7652 10.5919 31.7222 10.5696 31.6865L10.2002 31.1322Z" fill="#FF4A8B"/>
<path d="M10.5145 30.2629L10.1284 30.3972C10.1083 30.4041 10.0897 30.415 10.0738 30.4292C10.0579 30.4433 10.045 30.4605 10.0357 30.4796C10.0264 30.4988 10.021 30.5196 10.0198 30.5409C10.0186 30.5621 10.0215 30.5834 10.0285 30.6035C10.0396 30.6353 10.0602 30.6629 10.0877 30.6825C10.1151 30.702 10.1479 30.7125 10.1816 30.7125C10.1993 30.7125 10.2173 30.7095 10.2348 30.7033L10.6211 30.5691C10.6606 30.5541 10.6926 30.5243 10.7104 30.486C10.7283 30.4478 10.7305 30.4041 10.7166 30.3642C10.7027 30.3244 10.6739 30.2915 10.6361 30.2726C10.5984 30.2537 10.5548 30.2502 10.5145 30.2629Z" fill="#FF4A8B"/>
<path d="M12.1699 31.5221C12.1425 31.4889 12.1031 31.468 12.0604 31.4639C12.0176 31.4598 11.9749 31.4728 11.9417 31.5002C11.9086 31.5275 11.8876 31.567 11.8835 31.6098C11.8795 31.6526 11.8925 31.6952 11.9199 31.7284L12.2388 32.1146C12.2523 32.131 12.2689 32.1446 12.2877 32.1546C12.3065 32.1646 12.3271 32.1708 12.3483 32.1729C12.3695 32.1749 12.3909 32.1727 12.4112 32.1665C12.4316 32.1602 12.4505 32.15 12.4669 32.1364C12.5 32.109 12.5209 32.0696 12.525 32.0268C12.5291 31.984 12.516 31.9414 12.4887 31.9082L12.1699 31.5221Z" fill="#FF4A8B"/>
<path d="M13.9639 30.8433L13.393 31.165C13.3744 31.1754 13.3581 31.1894 13.345 31.2061C13.3319 31.2228 13.3222 31.242 13.3165 31.2625C13.3108 31.283 13.3092 31.3044 13.3117 31.3255C13.3143 31.3466 13.321 31.367 13.3315 31.3855C13.3419 31.4041 13.3559 31.4204 13.3726 31.4335C13.3893 31.4467 13.4085 31.4564 13.429 31.4621C13.4495 31.4679 13.4709 31.4695 13.492 31.467C13.5131 31.4644 13.5335 31.4578 13.5521 31.4473L14.123 31.1258C14.1604 31.1047 14.188 31.0696 14.1996 31.0281C14.2112 30.9867 14.2059 30.9424 14.1848 30.9049C14.1743 30.8863 14.1603 30.87 14.1436 30.8568C14.1268 30.8437 14.1076 30.8339 14.0871 30.8282C14.0666 30.8225 14.0451 30.8209 14.024 30.8235C14.0028 30.826 13.9824 30.8328 13.9639 30.8433Z" fill="#FF4A8B"/>
<path d="M13.6 30.2971C13.6046 30.3181 13.6133 30.338 13.6257 30.3556C13.638 30.3731 13.6538 30.3881 13.672 30.3996C13.6902 30.411 13.7104 30.4187 13.7316 30.4223C13.7529 30.4258 13.7746 30.4251 13.7955 30.4202C13.8164 30.4152 13.8361 30.4062 13.8535 30.3936C13.8709 30.3809 13.8857 30.365 13.8968 30.3466C13.908 30.3282 13.9154 30.3078 13.9186 30.2866C13.9218 30.2653 13.9207 30.2436 13.9155 30.2228L13.7309 29.4386C13.7261 29.4179 13.7172 29.3983 13.7047 29.381C13.6923 29.3637 13.6766 29.3491 13.6585 29.3379C13.6403 29.3267 13.6202 29.3192 13.5992 29.3158C13.5781 29.3124 13.5567 29.3132 13.5359 29.3181C13.5152 29.323 13.4957 29.3319 13.4784 29.3443C13.4611 29.3567 13.4465 29.3724 13.4353 29.3905C13.4241 29.4086 13.4166 29.4287 13.4132 29.4498C13.4098 29.4708 13.4106 29.4922 13.4155 29.5129L13.6 30.2971Z" fill="#FF4A8B"/>
<path d="M12.8751 29.108L12.4433 29.4102C12.4084 29.435 12.3847 29.4726 12.3774 29.5148C12.3701 29.557 12.3798 29.6003 12.4043 29.6354C12.4289 29.6705 12.4664 29.6944 12.5085 29.702C12.5507 29.7095 12.5941 29.7001 12.6293 29.6757L13.0611 29.3735C13.0787 29.3614 13.0937 29.3459 13.1052 29.3279C13.1168 29.3099 13.1247 29.2898 13.1285 29.2688C13.1322 29.2478 13.1318 29.2262 13.1272 29.2053C13.1226 29.1845 13.1139 29.1647 13.1017 29.1472C13.0894 29.1297 13.0738 29.1148 13.0558 29.1034C13.0377 29.0919 13.0176 29.0841 12.9966 29.0805C12.9755 29.0769 12.9539 29.0774 12.9331 29.0821C12.9123 29.0868 12.8926 29.0956 12.8751 29.108Z" fill="#FF4A8B"/>
<path d="M10.9062 29.3698L11.3933 29.7393C11.4103 29.7522 11.4296 29.7616 11.4502 29.767C11.4707 29.7724 11.4922 29.7737 11.5133 29.7708C11.5344 29.7678 11.5547 29.7608 11.573 29.75C11.5914 29.7392 11.6074 29.7249 11.6202 29.7079C11.6331 29.691 11.6425 29.6717 11.6479 29.6511C11.6533 29.6305 11.6546 29.6091 11.6517 29.588C11.6488 29.5669 11.6418 29.5466 11.6311 29.5282C11.6203 29.5099 11.6061 29.4938 11.5891 29.4809L11.102 29.1115C11.0676 29.0873 11.0253 29.0775 10.9838 29.084C10.9423 29.0905 10.905 29.1128 10.8796 29.1463C10.8542 29.1797 10.8429 29.2217 10.8478 29.2634C10.8528 29.3051 10.8737 29.3432 10.9062 29.3698Z" fill="#FF4A8B"/>
<path d="M11.0611 31.6577L10.8093 31.893C10.7938 31.9075 10.7812 31.9249 10.7724 31.9443C10.7635 31.9636 10.7586 31.9846 10.7579 32.0058C10.7572 32.0271 10.7607 32.0483 10.7682 32.0683C10.7756 32.0882 10.787 32.1064 10.8016 32.122C10.8167 32.1382 10.835 32.1512 10.8554 32.16C10.8758 32.1688 10.8978 32.1734 10.92 32.1733C10.9596 32.1733 10.9994 32.159 11.0305 32.1297L11.2823 31.8946C11.2979 31.8801 11.3105 31.8626 11.3193 31.8433C11.3281 31.8239 11.333 31.8029 11.3338 31.7817C11.3345 31.7604 11.331 31.7392 11.3235 31.7192C11.316 31.6993 11.3047 31.6811 11.2901 31.6655C11.2756 31.6499 11.2582 31.6374 11.2388 31.6286C11.2194 31.6197 11.1985 31.6148 11.1772 31.6141C11.156 31.6134 11.1348 31.6169 11.1148 31.6243C11.0949 31.6318 11.0767 31.6432 11.0611 31.6577Z" fill="#FF4A8B"/>
<path d="M19.9869 34.0312C18.0714 34.0312 16.4671 35.1396 16.0804 36.6129C16.0797 36.6149 16.0788 36.6165 16.0781 36.6185C16.0631 36.6659 16.051 36.7213 16.0418 36.7813C16.0083 36.9519 15.9914 37.1253 15.9912 37.2992C15.9912 39.1012 17.7836 40.5672 19.9869 40.5672C22.1905 40.5672 23.9826 39.1013 23.9826 37.2992C23.9826 35.4972 22.1902 34.0312 19.9869 34.0312ZM19.9869 40.1769C18.367 40.1769 16.9933 39.3195 16.5403 38.1437C16.7422 38.2457 16.9582 38.2141 17.1271 38.189C17.2464 38.1716 17.359 38.1549 17.4503 38.1794C17.6357 38.2285 17.7545 38.4692 17.8695 38.702C17.9146 38.7929 17.9572 38.8791 18.0049 38.957C18.3025 39.4404 18.7965 39.6039 19.2631 39.3749C19.3395 39.3376 19.4094 39.2984 19.4765 39.2614C19.7235 39.1239 19.8721 39.0407 20.1558 39.1234C20.2922 39.1629 20.4214 39.2212 20.5582 39.2832C20.8142 39.3986 21.0784 39.5177 21.402 39.5177C21.4239 39.5177 21.4462 39.5171 21.4686 39.5159C21.9838 39.4901 22.1938 39.2083 22.3792 38.9599C22.477 38.8286 22.5693 38.7045 22.7076 38.6052C22.7846 38.5499 22.8905 38.5398 23.0132 38.5283C23.0921 38.5207 23.1799 38.5116 23.2685 38.4891C22.7003 39.4835 21.4434 40.1769 19.9869 40.1769ZM23.5377 37.7943C23.5296 37.803 23.5224 37.8124 23.5161 37.8224C23.4213 37.9734 23.3173 38.0659 23.1982 38.1041C23.134 38.1246 23.0574 38.132 22.9764 38.1397C22.8199 38.1541 22.6428 38.1711 22.4799 38.2881C22.2925 38.4228 22.1722 38.584 22.0665 38.7264C21.8945 38.9568 21.7808 39.1092 21.449 39.1257C21.1881 39.1399 20.9606 39.0362 20.7188 38.927C20.5756 38.8623 20.4273 38.7956 20.2649 38.7482C19.8252 38.6206 19.5514 38.7728 19.2868 38.92C19.2255 38.9539 19.1611 38.9897 19.0912 39.0245C18.6844 39.2236 18.4288 38.9005 18.3374 38.7522C18.2989 38.6898 18.2603 38.6115 18.2195 38.5291C18.0803 38.2473 17.9069 37.8965 17.5505 37.8023C17.3817 37.7569 17.2164 37.7814 17.0701 37.803C16.8562 37.8344 16.7396 37.846 16.6372 37.7333C16.4381 37.515 16.386 37.1154 16.4251 36.8519C16.6952 35.4769 18.1895 34.4215 19.9868 34.4215C21.9747 34.4215 23.5921 35.7124 23.5921 37.2992C23.5919 37.4657 23.5737 37.6317 23.5377 37.7943Z" fill="#FF4A8B"/>
<path d="M19.9868 35.7839C19.24 35.7839 18.6768 36.1168 18.6768 36.5582C18.6768 36.821 18.877 37.0443 19.1956 37.1833C19.3687 37.2719 19.6098 37.3165 19.8473 37.3289L19.8515 37.3292C19.897 37.3315 19.9423 37.3329 19.9867 37.3329C20.0314 37.3329 20.0766 37.3313 20.1222 37.3292C20.1235 37.3292 20.1247 37.3289 20.126 37.3289C20.3635 37.3167 20.6049 37.272 20.7779 37.1832C21.0964 37.0445 21.2968 36.8212 21.2968 36.5585C21.2968 36.1169 20.7336 35.7839 19.9868 35.7839ZM19.9868 36.9424C19.754 36.9424 19.5567 36.9031 19.4048 36.8461C19.5113 36.8014 19.7131 36.7535 19.9868 36.7535C20.2608 36.7535 20.4625 36.8015 20.5686 36.8459C20.4169 36.9031 20.2197 36.9424 19.9868 36.9424ZM20.9 36.5938C20.7081 36.428 20.3278 36.3632 19.9868 36.3632C19.6459 36.3632 19.2653 36.4279 19.0733 36.5938C19.0695 36.5823 19.0674 36.5703 19.0671 36.5582C19.0671 36.4017 19.4253 36.1741 19.9868 36.1741C20.5481 36.1741 20.9064 36.4016 20.9064 36.5582C20.906 36.5703 20.9039 36.5823 20.9 36.5938Z" fill="#FF4A8B"/>
<path d="M18.007 35.3873C17.9716 35.3494 17.9227 35.3272 17.871 35.3253C17.8193 35.3235 17.7689 35.3422 17.731 35.3775L17.064 35.9978C17.0353 36.0245 17.0154 36.0592 17.0068 36.0974C16.9981 36.1357 17.0012 36.1756 17.0155 36.212C17.0299 36.2485 17.0548 36.2798 17.0872 36.3019C17.1196 36.324 17.1578 36.3358 17.197 36.3358C17.2447 36.3358 17.2922 36.3186 17.3298 36.2836L17.9969 35.6633C18.0348 35.6281 18.0572 35.5792 18.0591 35.5274C18.061 35.4756 18.0422 35.4252 18.007 35.3873Z" fill="#FF4A8B"/>
<path d="M18.0283 37.1908C18.0141 37.1695 17.9958 37.1512 17.9745 37.137C17.9532 37.1227 17.9293 37.1128 17.9042 37.1078C17.8791 37.1028 17.8532 37.1027 17.8281 37.1077C17.803 37.1127 17.779 37.1226 17.7577 37.1368C17.7364 37.151 17.7181 37.1693 17.7039 37.1906C17.6896 37.2119 17.6797 37.2358 17.6747 37.2609C17.6697 37.286 17.6696 37.3119 17.6746 37.337C17.6796 37.3622 17.6895 37.3861 17.7037 37.4074L18.1485 38.0746C18.1779 38.1159 18.2223 38.1442 18.2722 38.1533C18.3221 38.1625 18.3736 38.1519 18.4158 38.1238C18.4579 38.0956 18.4875 38.0521 18.4982 38.0026C18.5089 37.953 18.4999 37.9012 18.4731 37.8581L18.0283 37.1908Z" fill="#FF4A8B"/>
<path d="M18.4065 36.1446L17.9416 36.3062C17.9174 36.3146 17.8951 36.3277 17.8759 36.3447C17.8568 36.3618 17.8412 36.3824 17.83 36.4055C17.8189 36.4286 17.8123 36.4536 17.8109 36.4792C17.8094 36.5048 17.813 36.5304 17.8214 36.5546C17.8347 36.5929 17.8596 36.6261 17.8926 36.6497C17.9256 36.6732 17.9651 36.6858 18.0057 36.6859C18.027 36.6859 18.0487 36.6822 18.0697 36.6748L18.5348 36.5132C18.5823 36.4951 18.6209 36.4592 18.6423 36.4132C18.6638 36.3671 18.6665 36.3145 18.6498 36.2665C18.633 36.2186 18.5983 36.179 18.5529 36.1562C18.5075 36.1334 18.4549 36.1293 18.4065 36.1446Z" fill="#FF4A8B"/>
<path d="M20.4003 37.6603C20.3674 37.6204 20.3199 37.5952 20.2684 37.5902C20.2169 37.5853 20.1656 37.601 20.1256 37.6339C20.0857 37.6669 20.0605 37.7143 20.0556 37.7659C20.0506 37.8174 20.0664 37.8688 20.0993 37.9087L20.4833 38.3736C20.4995 38.3934 20.5196 38.4098 20.5422 38.4219C20.5648 38.4339 20.5896 38.4414 20.6151 38.4438C20.6406 38.4462 20.6664 38.4436 20.6909 38.4361C20.7154 38.4286 20.7381 38.4163 20.7579 38.3999C20.7978 38.3669 20.8229 38.3195 20.8278 38.268C20.8327 38.2165 20.817 38.1651 20.7841 38.1252L20.4003 37.6603Z" fill="#FF4A8B"/>
<path d="M22.56 36.8432L21.8727 37.2305C21.8504 37.243 21.8307 37.2598 21.8149 37.28C21.7991 37.3001 21.7875 37.3232 21.7806 37.3479C21.7737 37.3725 21.7718 37.3983 21.7749 37.4237C21.778 37.4491 21.7861 37.4737 21.7987 37.496C21.8112 37.5183 21.828 37.5379 21.8482 37.5538C21.8683 37.5696 21.8914 37.5813 21.916 37.5882C21.9407 37.5951 21.9665 37.5971 21.9919 37.594C22.0173 37.591 22.0419 37.583 22.0642 37.5704L22.7515 37.1833C22.7966 37.1579 22.8298 37.1156 22.8438 37.0657C22.8577 37.0158 22.8513 36.9625 22.8259 36.9173C22.8134 36.895 22.7965 36.8753 22.7763 36.8595C22.7562 36.8436 22.7331 36.8319 22.7084 36.825C22.6837 36.8181 22.6578 36.8162 22.6324 36.8193C22.6069 36.8224 22.5823 36.8305 22.56 36.8432Z" fill="#FF4A8B"/>
<path d="M22.1219 36.1854C22.1274 36.2106 22.1379 36.2346 22.1528 36.2557C22.1677 36.2769 22.1866 36.2949 22.2085 36.3087C22.2304 36.3225 22.2549 36.3318 22.2804 36.3361C22.3059 36.3403 22.3321 36.3395 22.3573 36.3335C22.3824 36.3276 22.4062 36.3167 22.4272 36.3015C22.4481 36.2863 22.4658 36.2671 22.4793 36.245C22.4927 36.2228 22.5016 36.1983 22.5055 36.1727C22.5093 36.1471 22.5081 36.121 22.5017 36.0959L22.2795 35.1518C22.2737 35.1269 22.263 35.1033 22.248 35.0825C22.233 35.0617 22.2141 35.044 22.1923 35.0305C22.1705 35.0171 22.1462 35.008 22.1209 35.0039C22.0956 34.9999 22.0697 35.0008 22.0448 35.0068C22.0199 35.0126 21.9963 35.0233 21.9755 35.0382C21.9547 35.0532 21.9371 35.0721 21.9236 35.0939C21.9101 35.1157 21.9011 35.1399 21.897 35.1652C21.8929 35.1905 21.8939 35.2164 21.8998 35.2413L22.1219 36.1854Z" fill="#FF4A8B"/>
<path d="M21.2496 34.754L20.7297 35.1178C20.6877 35.1476 20.6591 35.1929 20.6503 35.2437C20.6415 35.2945 20.6532 35.3467 20.6828 35.389C20.7124 35.4312 20.7574 35.46 20.8082 35.4691C20.8589 35.4782 20.9112 35.4668 20.9536 35.4375L21.4735 35.0737C21.4947 35.059 21.5127 35.0403 21.5266 35.0187C21.5405 34.9971 21.55 34.9729 21.5546 34.9476C21.5591 34.9223 21.5586 34.8963 21.5531 34.8712C21.5475 34.8461 21.5371 34.8223 21.5223 34.8012C21.5076 34.7801 21.4888 34.7622 21.4671 34.7484C21.4453 34.7346 21.4211 34.7253 21.3958 34.7209C21.3704 34.7165 21.3445 34.7172 21.3194 34.7228C21.2943 34.7285 21.2706 34.7391 21.2496 34.754Z" fill="#FF4A8B"/>
<path d="M18.8784 35.0691L19.4648 35.5139C19.4852 35.5294 19.5084 35.5408 19.5332 35.5473C19.558 35.5538 19.5838 35.5553 19.6092 35.5518C19.6345 35.5483 19.659 35.5398 19.6811 35.5269C19.7032 35.5139 19.7225 35.4967 19.7379 35.4762C19.7534 35.4558 19.7647 35.4326 19.7712 35.4078C19.7778 35.383 19.7793 35.3572 19.7758 35.3318C19.7724 35.3064 19.7639 35.282 19.751 35.2598C19.738 35.2377 19.7209 35.2184 19.7005 35.2029L19.114 34.7581C19.0727 34.7291 19.0216 34.7172 18.9717 34.725C18.9218 34.7328 18.8768 34.7597 18.8463 34.8C18.8157 34.8403 18.802 34.8908 18.808 34.941C18.814 34.9912 18.8392 35.0371 18.8784 35.0691Z" fill="#FF4A8B"/>
<path d="M19.0654 37.8239L18.7622 38.1071C18.7435 38.1245 18.7284 38.1455 18.7177 38.1688C18.7071 38.1922 18.7012 38.2174 18.7003 38.243C18.6994 38.2686 18.7036 38.2941 18.7126 38.3181C18.7217 38.3421 18.7353 38.3641 18.7529 38.3828C18.7711 38.4023 18.7932 38.4179 18.8177 38.4286C18.8422 38.4392 18.8687 38.4447 18.8954 38.4446C18.9431 38.4446 18.991 38.4274 19.0285 38.3921L19.3317 38.109C19.3504 38.0916 19.3656 38.0706 19.3762 38.0472C19.3868 38.0239 19.3927 37.9987 19.3936 37.9731C19.3945 37.9475 19.3903 37.9219 19.3813 37.8979C19.3722 37.8739 19.3586 37.852 19.341 37.8332C19.3236 37.8145 19.3026 37.7994 19.2793 37.7888C19.2559 37.7781 19.2308 37.7722 19.2051 37.7714C19.1795 37.7705 19.154 37.7747 19.13 37.7837C19.106 37.7927 19.0841 37.8063 19.0654 37.8239Z" fill="#FF4A8B"/>
<path d="M20.023 28.4187C18.4319 28.4187 17.0994 29.3393 16.7782 30.5631C16.7776 30.5647 16.7769 30.5661 16.7763 30.5678C16.7638 30.6071 16.7538 30.6531 16.7462 30.703C16.7183 30.8447 16.7042 30.9887 16.7041 31.1331C16.7041 32.6299 18.1929 33.8476 20.023 33.8476C21.8533 33.8476 23.342 32.63 23.342 31.1331C23.3419 29.6364 21.8531 28.4187 20.023 28.4187ZM20.023 33.5234C18.6775 33.5234 17.5365 32.8113 17.1602 31.8346C17.3279 31.9194 17.5073 31.893 17.6476 31.8722C17.7467 31.8578 17.8402 31.8439 17.916 31.8642C18.07 31.905 18.1688 32.105 18.2643 32.2983C18.3017 32.3738 18.3371 32.4454 18.3767 32.5101C18.6239 32.9116 19.0342 33.0475 19.4218 32.8572C19.4853 32.8263 19.5434 32.7937 19.5991 32.763C19.8043 32.6487 19.9277 32.5796 20.1633 32.6484C20.2766 32.6812 20.3839 32.7296 20.4976 32.7811C20.7102 32.8769 20.9297 32.9759 21.1984 32.9759C21.2166 32.9759 21.2351 32.9754 21.2537 32.9744C21.6817 32.9529 21.8561 32.7189 22.0101 32.5125C22.0913 32.4035 22.168 32.3004 22.2829 32.218C22.3468 32.172 22.4348 32.1636 22.5367 32.1541C22.6023 32.1478 22.6752 32.1402 22.7488 32.1215C22.2769 32.9474 21.2328 33.5234 20.023 33.5234ZM22.9724 31.5444C22.9657 31.5516 22.9597 31.5594 22.9544 31.5677C22.8757 31.6932 22.7893 31.77 22.6904 31.8017C22.6371 31.8187 22.5734 31.8249 22.5061 31.8313C22.3762 31.8433 22.2291 31.8573 22.0937 31.9545C21.9381 32.0665 21.8382 32.2003 21.7504 32.3186C21.6075 32.51 21.5131 32.6365 21.2375 32.6503C21.0207 32.6621 20.8318 32.5759 20.631 32.4853C20.512 32.4315 20.3888 32.3761 20.2539 32.3367C19.8887 32.2307 19.6613 32.3571 19.4415 32.4794C19.3905 32.5076 19.3371 32.5373 19.279 32.5662C18.9412 32.7316 18.7289 32.4632 18.6529 32.3401C18.6209 32.2882 18.5889 32.2232 18.555 32.1547C18.4394 31.9207 18.2953 31.6293 17.9993 31.551C17.8591 31.5133 17.7217 31.5336 17.6002 31.5516C17.4226 31.5777 17.3257 31.5873 17.2407 31.4937C17.0753 31.3124 17.032 30.9805 17.0645 30.7616C17.2889 29.6195 18.5301 28.7429 20.0229 28.7429C21.6741 28.7429 23.0176 29.8151 23.0176 31.1331C23.0174 31.2715 23.0023 31.4093 22.9724 31.5444Z" fill="#FF4A8B"/>
<path d="M20.0227 29.8745C19.4024 29.8745 18.9346 30.151 18.9346 30.5177C18.9346 30.7359 19.1009 30.9214 19.3655 31.0368C19.5093 31.1105 19.7096 31.1475 19.9068 31.1578L19.9104 31.158C19.9482 31.1599 19.9858 31.1611 20.0226 31.1611C20.0598 31.1611 20.0973 31.1598 20.1352 31.158C20.1363 31.158 20.1372 31.1578 20.1383 31.1578C20.3356 31.1477 20.5361 31.1105 20.6798 31.0367C20.9444 30.9215 21.1108 30.7361 21.1108 30.5179C21.1108 30.1511 20.643 29.8745 20.0227 29.8745ZM20.0227 30.8368C19.8294 30.8368 19.6655 30.8041 19.5393 30.7567C19.6278 30.7196 19.7954 30.6798 20.0227 30.6798C20.2503 30.6798 20.4178 30.7197 20.506 30.7566C20.38 30.8041 20.2162 30.8368 20.0227 30.8368ZM20.7813 30.5472C20.6218 30.4095 20.3059 30.3557 20.0227 30.3557C19.7395 30.3557 19.4234 30.4094 19.264 30.5472C19.2608 30.5377 19.259 30.5277 19.2588 30.5176C19.2588 30.3876 19.5563 30.1986 20.0227 30.1986C20.489 30.1986 20.7866 30.3876 20.7866 30.5176C20.7863 30.5277 20.7845 30.5377 20.7813 30.5472Z" fill="#FF4A8B"/>
<path d="M18.3787 29.5452C18.3494 29.5138 18.3088 29.4953 18.2658 29.4938C18.2228 29.4922 18.181 29.5078 18.1495 29.5371L17.5955 30.0523C17.5717 30.0745 17.5551 30.1034 17.5479 30.1351C17.5408 30.1668 17.5433 30.2 17.5552 30.2303C17.5671 30.2606 17.5879 30.2866 17.6147 30.3049C17.6416 30.3232 17.6734 30.3331 17.7059 30.3331C17.7456 30.3331 17.785 30.3188 17.8163 30.2898L18.3703 29.7745C18.4019 29.7452 18.4204 29.7046 18.422 29.6616C18.4236 29.6186 18.408 29.5767 18.3787 29.5452Z" fill="#FF4A8B"/>
<path d="M18.3965 31.0431C18.3847 31.0254 18.3695 31.0102 18.3518 30.9983C18.3341 30.9865 18.3143 30.9783 18.2934 30.9741C18.2725 30.9699 18.2511 30.9699 18.2302 30.974C18.2093 30.9782 18.1894 30.9864 18.1717 30.9982C18.154 31.01 18.1388 31.0252 18.127 31.0429C18.1152 31.0606 18.1069 31.0804 18.1027 31.1013C18.0986 31.1222 18.0986 31.1436 18.1027 31.1645C18.1068 31.1854 18.115 31.2053 18.1269 31.223L18.4963 31.7772C18.5208 31.8115 18.5576 31.8349 18.599 31.8426C18.6405 31.8502 18.6833 31.8414 18.7183 31.818C18.7534 31.7946 18.7779 31.7585 18.7868 31.7173C18.7957 31.6761 18.7882 31.6331 18.7659 31.5974L18.3965 31.0431Z" fill="#FF4A8B"/>
<path d="M18.7108 30.1741L18.3247 30.3083C18.3046 30.3153 18.286 30.3262 18.2701 30.3403C18.2542 30.3545 18.2413 30.3716 18.232 30.3908C18.2227 30.4099 18.2173 30.4307 18.2161 30.452C18.2149 30.4732 18.2178 30.4945 18.2248 30.5146C18.2359 30.5465 18.2565 30.574 18.284 30.5936C18.3114 30.6131 18.3442 30.6236 18.3779 30.6237C18.3956 30.6237 18.4136 30.6206 18.4311 30.6145L18.8174 30.4802C18.8569 30.4652 18.8889 30.4354 18.9067 30.3972C18.9246 30.3589 18.9268 30.3152 18.9129 30.2754C18.899 30.2355 18.8701 30.2026 18.8324 30.1837C18.7947 30.1648 18.7511 30.1613 18.7108 30.1741Z" fill="#FF4A8B"/>
<path d="M20.3662 31.4329C20.3388 31.3998 20.2994 31.3789 20.2566 31.3748C20.2139 31.3707 20.1712 31.3837 20.138 31.411C20.1049 31.4384 20.0839 31.4778 20.0798 31.5206C20.0757 31.5635 20.0888 31.6061 20.1162 31.6393L20.4351 32.0255C20.4486 32.0419 20.4652 32.0555 20.484 32.0655C20.5028 32.0755 20.5234 32.0817 20.5446 32.0837C20.5658 32.0858 20.5872 32.0836 20.6075 32.0773C20.6279 32.0711 20.6468 32.0609 20.6632 32.0473C20.6963 32.0199 20.7172 31.9805 20.7213 31.9377C20.7254 31.8949 20.7123 31.8523 20.6849 31.8191L20.3662 31.4329Z" fill="#FF4A8B"/>
<path d="M22.1602 30.7544L21.5893 31.0761C21.5707 31.0865 21.5544 31.1005 21.5413 31.1172C21.5282 31.134 21.5185 31.1531 21.5128 31.1736C21.5071 31.1941 21.5054 31.2155 21.508 31.2366C21.5106 31.2577 21.5173 31.2781 21.5278 31.2966C21.5382 31.3152 21.5522 31.3315 21.5689 31.3446C21.5856 31.3578 21.6048 31.3675 21.6253 31.3733C21.6457 31.379 21.6672 31.3806 21.6883 31.3781C21.7094 31.3756 21.7298 31.3689 21.7483 31.3585L22.3192 31.0369C22.3567 31.0158 22.3843 30.9807 22.3959 30.9393C22.4075 30.8978 22.4022 30.8535 22.3811 30.816C22.3706 30.7974 22.3566 30.7811 22.3399 30.7679C22.3231 30.7548 22.3039 30.7451 22.2834 30.7393C22.2629 30.7336 22.2414 30.732 22.2203 30.7346C22.1991 30.7372 22.1787 30.7439 22.1602 30.7544Z" fill="#FF4A8B"/>
<path d="M21.7963 30.208C21.8009 30.229 21.8096 30.2489 21.822 30.2664C21.8343 30.284 21.8501 30.299 21.8682 30.3104C21.8864 30.3219 21.9067 30.3296 21.9279 30.3332C21.9491 30.3367 21.9708 30.336 21.9918 30.331C22.0127 30.3261 22.0324 30.3171 22.0498 30.3044C22.0672 30.2918 22.0819 30.2759 22.0931 30.2575C22.1043 30.2391 22.1117 30.2187 22.1149 30.1974C22.1181 30.1762 22.117 30.1545 22.1118 30.1337L21.9272 29.3495C21.9223 29.3288 21.9134 29.3092 21.901 29.2919C21.8886 29.2746 21.8729 29.26 21.8547 29.2488C21.8366 29.2376 21.8165 29.2301 21.7955 29.2267C21.7744 29.2233 21.753 29.2241 21.7322 29.229C21.7115 29.2339 21.692 29.2427 21.6747 29.2552C21.6574 29.2676 21.6427 29.2833 21.6316 29.3014C21.6204 29.3195 21.6129 29.3396 21.6095 29.3606C21.6061 29.3816 21.6069 29.4031 21.6118 29.4238L21.7963 30.208Z" fill="#FF4A8B"/>
<path d="M21.0724 29.0189L20.6406 29.3211C20.6057 29.3459 20.582 29.3835 20.5746 29.4257C20.5673 29.4679 20.577 29.5112 20.6016 29.5463C20.6262 29.5814 20.6636 29.6053 20.7058 29.6129C20.7479 29.6204 20.7914 29.611 20.8266 29.5866L21.2584 29.2844C21.276 29.2723 21.291 29.2567 21.3025 29.2388C21.3141 29.2208 21.322 29.2007 21.3257 29.1797C21.3295 29.1587 21.3291 29.1371 21.3245 29.1162C21.3199 29.0954 21.3112 29.0756 21.2989 29.0581C21.2867 29.0406 21.2711 29.0257 21.253 29.0143C21.235 29.0028 21.2149 28.995 21.1938 28.9914C21.1728 28.9877 21.1512 28.9883 21.1304 28.993C21.1095 28.9977 21.0898 29.0065 21.0724 29.0189Z" fill="#FF4A8B"/>
<path d="M19.1025 29.2807L19.5896 29.6501C19.6066 29.663 19.6259 29.6725 19.6465 29.6779C19.667 29.6833 19.6885 29.6846 19.7096 29.6816C19.7306 29.6787 19.7509 29.6717 19.7693 29.6609C19.7876 29.6501 19.8037 29.6358 19.8165 29.6188C19.8294 29.6019 19.8388 29.5826 19.8442 29.562C19.8496 29.5414 19.8509 29.52 19.848 29.4989C19.8451 29.4778 19.8381 29.4575 19.8274 29.4391C19.8166 29.4207 19.8024 29.4047 19.7854 29.3918L19.2983 29.0223C19.2639 28.9982 19.2216 28.9884 19.1801 28.9949C19.1386 29.0014 19.1012 29.0237 19.0759 29.0571C19.0505 29.0906 19.0391 29.1326 19.0441 29.1743C19.0491 29.216 19.07 29.2541 19.1025 29.2807Z" fill="#FF4A8B"/>
<path d="M19.2574 31.5686L19.0056 31.8039C18.9901 31.8184 18.9775 31.8358 18.9687 31.8552C18.9598 31.8745 18.9549 31.8955 18.9542 31.9167C18.9535 31.938 18.957 31.9592 18.9644 31.9791C18.9719 31.9991 18.9833 32.0173 18.9978 32.0328C19.013 32.0491 19.0313 32.062 19.0517 32.0709C19.0721 32.0797 19.0941 32.0843 19.1163 32.0842C19.1559 32.0842 19.1957 32.0699 19.2268 32.0406L19.4786 31.8055C19.4942 31.791 19.5068 31.7735 19.5156 31.7541C19.5244 31.7348 19.5293 31.7138 19.5301 31.6926C19.5308 31.6713 19.5273 31.6501 19.5198 31.6301C19.5123 31.6102 19.501 31.5919 19.4864 31.5764C19.4719 31.5608 19.4545 31.5483 19.4351 31.5395C19.4157 31.5306 19.3948 31.5257 19.3735 31.525C19.3523 31.5243 19.3311 31.5278 19.3111 31.5352C19.2912 31.5427 19.273 31.5541 19.2574 31.5686Z" fill="#FF4A8B"/>
<path d="M28.985 34.2092C27.0694 34.2092 25.4651 35.3175 25.0785 36.7909C25.0778 36.7929 25.0769 36.7945 25.0762 36.7965C25.0611 36.8439 25.0491 36.8993 25.0399 36.9593C25.0064 37.1299 24.9894 37.3033 24.9893 37.4772C24.9893 39.2792 26.7816 40.7451 28.985 40.7451C31.1885 40.7451 32.9807 39.2793 32.9807 37.4772C32.9806 35.6752 31.1882 34.2092 28.985 34.2092ZM28.985 40.3549C27.365 40.3549 25.9914 39.4975 25.5383 38.3217C25.7403 38.4237 25.9562 38.392 26.1251 38.367C26.2444 38.3496 26.3571 38.3328 26.4483 38.3573C26.6337 38.4065 26.7526 38.6472 26.8675 38.88C26.9127 38.9708 26.9553 39.057 27.003 39.1349C27.3005 39.6183 27.7945 39.7819 28.2611 39.5528C28.3376 39.5156 28.4075 39.4764 28.4746 39.4394C28.7216 39.3018 28.8702 39.2187 29.1538 39.3014C29.2902 39.3409 29.4194 39.3992 29.5563 39.4612C29.8122 39.5766 30.0765 39.6957 30.4 39.6957C30.4219 39.6957 30.4442 39.6951 30.4666 39.6939C30.9819 39.6681 31.1919 39.3863 31.3773 39.1379C31.475 39.0066 31.5673 38.8825 31.7056 38.7832C31.7826 38.7279 31.8886 38.7178 32.0112 38.7063C32.0902 38.6987 32.178 38.6896 32.2666 38.6671C31.6984 39.6614 30.4415 40.3549 28.985 40.3549ZM32.5358 37.9723C32.5277 37.9809 32.5204 37.9904 32.5141 38.0004C32.4193 38.1514 32.3153 38.2439 32.1963 38.282C32.132 38.3026 32.0554 38.31 31.9744 38.3177C31.8179 38.3321 31.6409 38.349 31.4779 38.466C31.2906 38.6008 31.1703 38.762 31.0645 38.9044C30.8926 39.1348 30.7788 39.2872 30.447 39.3037C30.1861 39.3179 29.9587 39.2141 29.7169 39.105C29.5737 39.0403 29.4254 38.9736 29.263 38.9262C28.8233 38.7985 28.5495 38.9508 28.2848 39.0979C28.2235 39.1319 28.1592 39.1677 28.0892 39.2025C27.6825 39.4016 27.4269 39.0785 27.3355 38.9302C27.297 38.8677 27.2584 38.7895 27.2176 38.7071C27.0784 38.4253 26.905 38.0745 26.5486 37.9802C26.3797 37.9348 26.2144 37.9594 26.0681 37.9809C25.8543 38.0124 25.7376 38.024 25.6352 37.9113C25.4362 37.693 25.3841 37.2934 25.4231 37.0299C25.6933 35.6548 27.1876 34.5995 28.9848 34.5995C30.9727 34.5995 32.5901 35.8903 32.5901 37.4772C32.59 37.6437 32.5718 37.8097 32.5358 37.9723Z" fill="#FF4A8B"/>
<path d="M28.9848 35.9619C28.238 35.9619 27.6748 36.2948 27.6748 36.7362C27.6748 36.999 27.875 37.2223 28.1936 37.3612C28.3667 37.4499 28.6079 37.4945 28.8453 37.5069L28.8496 37.5072C28.8951 37.5095 28.9404 37.5109 28.9847 37.5109C29.0294 37.5109 29.0747 37.5093 29.1202 37.5072C29.1216 37.5072 29.1227 37.5069 29.124 37.5069C29.3616 37.4947 29.6029 37.45 29.7759 37.3611C30.0945 37.2225 30.2948 36.9992 30.2948 36.7365C30.2948 36.2949 29.7316 35.9619 28.9848 35.9619ZM28.9848 37.1204C28.7521 37.1204 28.5548 37.081 28.4028 37.024C28.5094 36.9793 28.7112 36.9315 28.9848 36.9315C29.2588 36.9315 29.4605 36.9794 29.5666 37.0239C29.4149 37.081 29.2178 37.1204 28.9848 37.1204ZM29.8981 36.7718C29.7061 36.6059 29.3258 36.5412 28.9848 36.5412C28.6439 36.5412 28.2633 36.6059 28.0714 36.7718C28.0675 36.7603 28.0654 36.7483 28.0651 36.7361C28.0651 36.5797 28.4234 36.3521 28.9848 36.3521C29.5462 36.3521 29.9045 36.5796 29.9045 36.7361C29.9041 36.7483 29.9019 36.7603 29.8981 36.7718Z" fill="#FF4A8B"/>
<path d="M27.005 35.5653C26.9697 35.5274 26.9208 35.5051 26.8691 35.5033C26.8173 35.5015 26.767 35.5202 26.7291 35.5554L26.062 36.1757C26.0334 36.2025 26.0134 36.2372 26.0048 36.2754C25.9962 36.3136 25.9992 36.3536 26.0136 36.39C26.0279 36.4265 26.0529 36.4578 26.0852 36.4799C26.1176 36.5019 26.1559 36.5138 26.195 36.5138C26.2427 36.5138 26.2903 36.4966 26.3279 36.4616L26.9949 35.8413C27.0329 35.806 27.0552 35.7571 27.0571 35.7054C27.059 35.6536 27.0403 35.6032 27.005 35.5653Z" fill="#FF4A8B"/>
<path d="M27.0264 37.3691C27.0122 37.3477 26.9939 37.3294 26.9726 37.3152C26.9513 37.3009 26.9274 37.291 26.9023 37.286C26.8771 37.281 26.8513 37.281 26.8261 37.2859C26.801 37.2909 26.7771 37.3008 26.7558 37.315C26.7345 37.3293 26.7162 37.3475 26.7019 37.3688C26.6877 37.3901 26.6777 37.414 26.6727 37.4391C26.6677 37.4643 26.6677 37.4901 26.6727 37.5153C26.6776 37.5404 26.6875 37.5643 26.7017 37.5856L27.1466 38.2528C27.176 38.2942 27.2203 38.3224 27.2702 38.3316C27.3201 38.3407 27.3716 38.3301 27.4138 38.302C27.456 38.2738 27.4856 38.2304 27.4963 38.1808C27.507 38.1312 27.4979 38.0794 27.4711 38.0364L27.0264 37.3691Z" fill="#FF4A8B"/>
<path d="M27.4045 36.3226L26.9396 36.4842C26.9154 36.4926 26.8931 36.5057 26.874 36.5227C26.8548 36.5398 26.8392 36.5604 26.8281 36.5835C26.8169 36.6065 26.8104 36.6316 26.8089 36.6572C26.8074 36.6828 26.811 36.7084 26.8195 36.7326C26.8327 36.7709 26.8576 36.8041 26.8906 36.8276C26.9236 36.8512 26.9632 36.8638 27.0037 36.8638C27.025 36.8638 27.0467 36.8602 27.0678 36.8528L27.5329 36.6912C27.5804 36.6731 27.6189 36.6372 27.6404 36.5912C27.6618 36.5451 27.6645 36.4925 27.6478 36.4445C27.6311 36.3965 27.5963 36.357 27.5509 36.3342C27.5055 36.3114 27.453 36.3072 27.4045 36.3226Z" fill="#FF4A8B"/>
<path d="M29.3984 37.8383C29.3654 37.7984 29.318 37.7732 29.2665 37.7682C29.215 37.7633 29.1636 37.779 29.1237 37.8119C29.0837 37.8449 29.0586 37.8923 29.0536 37.9439C29.0487 37.9954 29.0644 38.0468 29.0974 38.0867L29.4813 38.5516C29.4976 38.5714 29.5176 38.5878 29.5402 38.5998C29.5629 38.6119 29.5876 38.6193 29.6132 38.6218C29.6387 38.6242 29.6644 38.6216 29.6889 38.6141C29.7134 38.6065 29.7362 38.5942 29.7559 38.5779C29.7958 38.5449 29.821 38.4975 29.8259 38.446C29.8308 38.3944 29.8151 38.3431 29.7821 38.3032L29.3984 37.8383Z" fill="#FF4A8B"/>
<path d="M31.558 37.0211L30.8707 37.4084C30.8484 37.421 30.8288 37.4378 30.813 37.458C30.7972 37.4781 30.7855 37.5012 30.7786 37.5258C30.7718 37.5505 30.7698 37.5763 30.7729 37.6017C30.776 37.6271 30.7841 37.6517 30.7967 37.6739C30.8093 37.6963 30.8261 37.7159 30.8462 37.7317C30.8663 37.7476 30.8894 37.7593 30.9141 37.7662C30.9387 37.7731 30.9645 37.7751 30.9899 37.772C31.0153 37.769 31.0399 37.7609 31.0622 37.7484L31.7496 37.3613C31.7947 37.3359 31.8279 37.2936 31.8418 37.2437C31.8558 37.1938 31.8494 37.1405 31.824 37.0953C31.8114 37.0729 31.7946 37.0533 31.7744 37.0374C31.7542 37.0216 31.7311 37.0099 31.7064 37.003C31.6817 36.9961 31.6559 36.9942 31.6304 36.9973C31.605 37.0004 31.5804 37.0085 31.558 37.0211Z" fill="#FF4A8B"/>
<path d="M31.1199 36.3633C31.1255 36.3886 31.136 36.4125 31.1509 36.4337C31.1657 36.4549 31.1847 36.4729 31.2066 36.4867C31.2285 36.5005 31.2529 36.5098 31.2785 36.514C31.304 36.5183 31.3301 36.5174 31.3553 36.5115C31.3805 36.5056 31.4043 36.4947 31.4252 36.4795C31.4461 36.4643 31.4639 36.4451 31.4773 36.4229C31.4907 36.4008 31.4997 36.3762 31.5035 36.3507C31.5074 36.3251 31.5061 36.299 31.4998 36.2739L31.2776 35.3298C31.2717 35.3048 31.261 35.2813 31.246 35.2605C31.2311 35.2397 31.2121 35.222 31.1903 35.2085C31.1685 35.195 31.1443 35.186 31.119 35.1819C31.0937 35.1778 31.0678 35.1788 31.0428 35.1847C31.0179 35.1906 30.9943 35.2013 30.9735 35.2162C30.9527 35.2312 30.9351 35.2501 30.9216 35.2719C30.9082 35.2937 30.8991 35.3179 30.8951 35.3432C30.891 35.3685 30.8919 35.3944 30.8979 35.4193L31.1199 36.3633Z" fill="#FF4A8B"/>
<path d="M30.2476 34.932L29.7278 35.2958C29.6857 35.3256 29.6572 35.3709 29.6484 35.4217C29.6396 35.4725 29.6512 35.5247 29.6808 35.5669C29.7104 35.6092 29.7555 35.638 29.8062 35.6471C29.857 35.6562 29.9093 35.6448 29.9517 35.6155L30.4715 35.2516C30.4927 35.237 30.5108 35.2183 30.5247 35.1967C30.5386 35.1751 30.5481 35.1509 30.5526 35.1256C30.5571 35.1002 30.5566 35.0743 30.5511 35.0492C30.5456 35.024 30.5351 35.0003 30.5204 34.9792C30.5056 34.9581 30.4868 34.9402 30.4651 34.9264C30.4434 34.9126 30.4192 34.9032 30.3938 34.8989C30.3685 34.8945 30.3425 34.8951 30.3174 34.9008C30.2923 34.9065 30.2686 34.9171 30.2476 34.932Z" fill="#FF4A8B"/>
<path d="M27.8764 35.2471L28.4628 35.6919C28.4832 35.7074 28.5065 35.7187 28.5312 35.7253C28.556 35.7318 28.5818 35.7333 28.6072 35.7298C28.6326 35.7263 28.657 35.7178 28.6791 35.7048C28.7012 35.6919 28.7205 35.6746 28.7359 35.6542C28.7514 35.6338 28.7628 35.6105 28.7693 35.5857C28.7758 35.561 28.7774 35.5351 28.7739 35.5098C28.7704 35.4844 28.762 35.4599 28.749 35.4378C28.7361 35.4157 28.7189 35.3964 28.6985 35.3809L28.1121 34.9361C28.0707 34.907 28.0197 34.8952 27.9698 34.903C27.9198 34.9108 27.8749 34.9377 27.8443 34.978C27.8138 35.0182 27.8001 35.0688 27.8061 35.119C27.812 35.1692 27.8373 35.2151 27.8764 35.2471Z" fill="#FF4A8B"/>
<path d="M28.0634 38.0018L27.7603 38.2851C27.7415 38.3025 27.7264 38.3235 27.7158 38.3468C27.7051 38.3701 27.6992 38.3953 27.6984 38.4209C27.6975 38.4466 27.7017 38.4721 27.7107 38.4961C27.7197 38.5201 27.7334 38.542 27.7509 38.5607C27.7691 38.5803 27.7912 38.5959 27.8157 38.6065C27.8403 38.6172 27.8667 38.6226 27.8935 38.6226C27.9412 38.6226 27.9891 38.6053 28.0266 38.5701L28.3297 38.287C28.3485 38.2695 28.3636 38.2485 28.3742 38.2252C28.3849 38.2019 28.3908 38.1767 28.3917 38.1511C28.3925 38.1254 28.3883 38.0999 28.3793 38.0759C28.3703 38.0519 28.3566 38.0299 28.3391 38.0112C28.3216 37.9925 28.3006 37.9774 28.2773 37.9667C28.254 37.9561 28.2288 37.9502 28.2032 37.9493C28.1776 37.9485 28.1521 37.9526 28.1281 37.9617C28.1041 37.9707 28.0821 37.9843 28.0634 38.0018Z" fill="#FF4A8B"/>
<path d="M28.2183 28.4187C26.6272 28.4187 25.2947 29.3393 24.9735 30.5631C24.9729 30.5647 24.9722 30.5661 24.9716 30.5678C24.9591 30.6071 24.9491 30.6531 24.9415 30.703C24.9136 30.8447 24.8996 30.9887 24.8994 31.1331C24.8994 32.6299 26.3882 33.8476 28.2183 33.8476C30.0487 33.8476 31.5373 32.63 31.5373 31.1331C31.5372 29.6364 30.0484 28.4187 28.2183 28.4187ZM28.2183 33.5234C26.8728 33.5234 25.7318 32.8113 25.3555 31.8346C25.5232 31.9194 25.7026 31.893 25.8429 31.8722C25.942 31.8578 26.0355 31.8439 26.1113 31.8642C26.2653 31.905 26.3641 32.105 26.4596 32.2983C26.4971 32.3738 26.5324 32.4454 26.572 32.5101C26.8192 32.9116 27.2295 33.0475 27.6171 32.8572C27.6806 32.8263 27.7387 32.7937 27.7944 32.763C27.9996 32.6487 28.123 32.5796 28.3586 32.6484C28.4719 32.6812 28.5792 32.7296 28.6929 32.7811C28.9055 32.8769 29.125 32.9759 29.3937 32.9759C29.4119 32.9759 29.4304 32.9754 29.449 32.9744C29.877 32.9529 30.0515 32.7189 30.2055 32.5125C30.2866 32.4035 30.3633 32.3004 30.4782 32.218C30.5421 32.172 30.6301 32.1636 30.732 32.1541C30.7976 32.1478 30.8705 32.1402 30.9441 32.1215C30.4722 32.9474 29.4281 33.5234 28.2183 33.5234ZM31.1677 31.5444C31.161 31.5516 31.155 31.5594 31.1497 31.5677C31.071 31.6932 30.9846 31.77 30.8857 31.8017C30.8324 31.8187 30.7687 31.8249 30.7014 31.8313C30.5715 31.8433 30.4244 31.8573 30.289 31.9545C30.1334 32.0665 30.0335 32.2003 29.9457 32.3186C29.8028 32.51 29.7084 32.6365 29.4328 32.6503C29.2161 32.6621 29.0271 32.5759 28.8263 32.4853C28.7074 32.4315 28.5841 32.3761 28.4493 32.3367C28.084 32.2307 27.8566 32.3571 27.6368 32.4794C27.5858 32.5076 27.5324 32.5373 27.4743 32.5662C27.1365 32.7316 26.9242 32.4632 26.8482 32.3401C26.8162 32.2882 26.7842 32.2232 26.7503 32.1547C26.6347 31.9207 26.4907 31.6293 26.1946 31.551C26.0544 31.5133 25.917 31.5336 25.7955 31.5516C25.6179 31.5777 25.521 31.5873 25.436 31.4937C25.2707 31.3124 25.2274 30.9805 25.2598 30.7616C25.4842 29.6195 26.7254 28.7429 28.2182 28.7429C29.8694 28.7429 31.2129 29.8151 31.2129 31.1331C31.2128 31.2715 31.1976 31.4093 31.1677 31.5444Z" fill="#FF4A8B"/>
<path d="M28.218 29.8745C27.5977 29.8745 27.1299 30.151 27.1299 30.5177C27.1299 30.7359 27.2962 30.9214 27.5608 31.0368C27.7046 31.1105 27.9049 31.1475 28.1022 31.1578L28.1057 31.158C28.1435 31.1599 28.1811 31.1611 28.2179 31.1611C28.2551 31.1611 28.2926 31.1598 28.3305 31.158C28.3316 31.158 28.3325 31.1578 28.3336 31.1578C28.531 31.1477 28.7314 31.1105 28.8751 31.0367C29.1397 30.9215 29.3061 30.7361 29.3061 30.5179C29.3061 30.1511 28.8383 29.8745 28.218 29.8745ZM28.218 30.8368C28.0247 30.8368 27.8608 30.8041 27.7346 30.7567C27.8231 30.7196 27.9907 30.6798 28.218 30.6798C28.4456 30.6798 28.6131 30.7197 28.7013 30.7566C28.5753 30.8041 28.4115 30.8368 28.218 30.8368ZM28.9766 30.5472C28.8171 30.4095 28.5013 30.3557 28.218 30.3557C27.9348 30.3557 27.6187 30.4094 27.4593 30.5472C27.4561 30.5377 27.4543 30.5277 27.4541 30.5176C27.4541 30.3876 27.7517 30.1986 28.218 30.1986C28.6843 30.1986 28.9819 30.3876 28.9819 30.5176C28.9816 30.5277 28.9798 30.5377 28.9766 30.5472Z" fill="#FF4A8B"/>
<path d="M26.574 29.5452C26.5447 29.5138 26.5041 29.4953 26.4611 29.4938C26.4182 29.4922 26.3763 29.5078 26.3448 29.5371L25.7908 30.0523C25.767 30.0745 25.7504 30.1034 25.7433 30.1351C25.7361 30.1668 25.7386 30.2 25.7505 30.2303C25.7624 30.2606 25.7832 30.2866 25.8101 30.3049C25.8369 30.3232 25.8687 30.3331 25.9013 30.3331C25.9409 30.3331 25.9804 30.3188 26.0116 30.2898L26.5657 29.7745C26.5972 29.7452 26.6158 29.7046 26.6173 29.6616C26.6189 29.6186 26.6033 29.5767 26.574 29.5452Z" fill="#FF4A8B"/>
<path d="M26.5918 31.0431C26.58 31.0254 26.5648 31.0102 26.5471 30.9983C26.5294 30.9865 26.5096 30.9783 26.4887 30.9741C26.4679 30.9699 26.4464 30.9699 26.4255 30.974C26.4046 30.9782 26.3848 30.9864 26.367 30.9982C26.3493 31.01 26.3341 31.0252 26.3223 31.0429C26.3105 31.0606 26.3022 31.0804 26.2981 31.1013C26.2939 31.1222 26.2939 31.1436 26.298 31.1645C26.3021 31.1854 26.3104 31.2053 26.3222 31.223L26.6916 31.7772C26.7161 31.8115 26.7529 31.8349 26.7944 31.8426C26.8358 31.8502 26.8786 31.8414 26.9136 31.818C26.9487 31.7946 26.9732 31.7585 26.9821 31.7173C26.991 31.6761 26.9835 31.6331 26.9612 31.5974L26.5918 31.0431Z" fill="#FF4A8B"/>
<path d="M26.9052 30.1741L26.519 30.3083C26.4989 30.3153 26.4804 30.3262 26.4645 30.3403C26.4486 30.3545 26.4356 30.3716 26.4263 30.3908C26.4171 30.4099 26.4117 30.4307 26.4104 30.452C26.4092 30.4732 26.4122 30.4945 26.4192 30.5146C26.4302 30.5465 26.4509 30.574 26.4783 30.5936C26.5057 30.6131 26.5386 30.6236 26.5722 30.6237C26.5899 30.6237 26.608 30.6206 26.6255 30.6145L27.0118 30.4802C27.0512 30.4652 27.0832 30.4354 27.1011 30.3972C27.1189 30.3589 27.1211 30.3152 27.1072 30.2754C27.0933 30.2355 27.0645 30.2026 27.0267 30.1837C26.989 30.1648 26.9454 30.1613 26.9052 30.1741Z" fill="#FF4A8B"/>
<path d="M28.5615 31.4329C28.5341 31.3998 28.4947 31.3789 28.452 31.3748C28.4092 31.3707 28.3665 31.3837 28.3333 31.411C28.3002 31.4384 28.2792 31.4778 28.2752 31.5206C28.2711 31.5635 28.2841 31.6061 28.3115 31.6393L28.6304 32.0255C28.6439 32.0419 28.6605 32.0555 28.6793 32.0655C28.6981 32.0755 28.7187 32.0817 28.7399 32.0837C28.7611 32.0858 28.7825 32.0836 28.8028 32.0773C28.8232 32.0711 28.8421 32.0609 28.8585 32.0473C28.8916 32.0199 28.9125 31.9805 28.9166 31.9377C28.9207 31.8949 28.9076 31.8523 28.8803 31.8191L28.5615 31.4329Z" fill="#FF4A8B"/>
<path d="M30.3555 30.7544L29.7846 31.0761C29.766 31.0865 29.7497 31.1005 29.7366 31.1172C29.7235 31.134 29.7138 31.1531 29.7081 31.1736C29.7024 31.1941 29.7008 31.2155 29.7033 31.2366C29.7059 31.2577 29.7126 31.2781 29.7231 31.2966C29.7335 31.3152 29.7475 31.3315 29.7642 31.3446C29.7809 31.3578 29.8001 31.3675 29.8206 31.3733C29.8411 31.379 29.8625 31.3806 29.8836 31.3781C29.9047 31.3756 29.9251 31.3689 29.9437 31.3585L30.5146 31.0369C30.552 31.0158 30.5796 30.9807 30.5912 30.9393C30.6028 30.8978 30.5975 30.8535 30.5764 30.816C30.5659 30.7974 30.5519 30.7811 30.5352 30.7679C30.5184 30.7548 30.4992 30.7451 30.4787 30.7393C30.4582 30.7336 30.4367 30.732 30.4156 30.7346C30.3944 30.7372 30.374 30.7439 30.3555 30.7544Z" fill="#FF4A8B"/>
<path d="M29.9916 30.208C29.9962 30.229 30.0049 30.2489 30.0173 30.2664C30.0296 30.284 30.0454 30.299 30.0636 30.3104C30.0818 30.3219 30.102 30.3296 30.1233 30.3332C30.1445 30.3367 30.1662 30.336 30.1871 30.331C30.208 30.3261 30.2277 30.3171 30.2451 30.3044C30.2625 30.2918 30.2773 30.2759 30.2884 30.2575C30.2996 30.2391 30.307 30.2187 30.3102 30.1974C30.3134 30.1762 30.3124 30.1545 30.3071 30.1337L30.1225 29.3495C30.1177 29.3288 30.1088 29.3092 30.0963 29.2919C30.0839 29.2746 30.0682 29.26 30.0501 29.2488C30.0319 29.2376 30.0118 29.2301 29.9908 29.2267C29.9697 29.2233 29.9483 29.2241 29.9276 29.229C29.9068 29.2339 29.8873 29.2427 29.87 29.2552C29.8527 29.2676 29.8381 29.2833 29.8269 29.3014C29.8157 29.3195 29.8082 29.3396 29.8048 29.3606C29.8014 29.3816 29.8022 29.4031 29.8071 29.4238L29.9916 30.208Z" fill="#FF4A8B"/>
<path d="M29.2667 29.0189L28.8349 29.3211C28.8 29.3459 28.7763 29.3835 28.769 29.4257C28.7617 29.4679 28.7714 29.5112 28.7959 29.5463C28.8205 29.5814 28.858 29.6053 28.9001 29.6129C28.9423 29.6204 28.9857 29.611 29.0209 29.5866L29.4527 29.2844C29.4703 29.2723 29.4853 29.2567 29.4969 29.2388C29.5084 29.2208 29.5163 29.2007 29.5201 29.1797C29.5238 29.1587 29.5234 29.1371 29.5188 29.1162C29.5142 29.0954 29.5055 29.0756 29.4933 29.0581C29.481 29.0406 29.4654 29.0257 29.4474 29.0143C29.4293 29.0028 29.4092 28.995 29.3882 28.9914C29.3671 28.9877 29.3455 28.9883 29.3247 28.993C29.3039 28.9977 29.2842 29.0065 29.2667 29.0189Z" fill="#FF4A8B"/>
<path d="M27.2978 29.2807L27.7849 29.6501C27.8019 29.663 27.8212 29.6725 27.8418 29.6779C27.8623 29.6833 27.8838 29.6846 27.9049 29.6816C27.926 29.6787 27.9463 29.6717 27.9646 29.6609C27.983 29.6501 27.999 29.6358 28.0118 29.6188C28.0247 29.6019 28.0341 29.5826 28.0395 29.562C28.0449 29.5414 28.0462 29.52 28.0433 29.4989C28.0404 29.4778 28.0334 29.4575 28.0227 29.4391C28.0119 29.4207 27.9977 29.4047 27.9807 29.3918L27.4936 29.0223C27.4592 28.9982 27.4169 28.9884 27.3754 28.9949C27.3339 29.0014 27.2966 29.0237 27.2712 29.0571C27.2458 29.0906 27.2345 29.1326 27.2394 29.1743C27.2444 29.216 27.2653 29.2541 27.2978 29.2807Z" fill="#FF4A8B"/>
<path d="M27.4527 31.5686L27.2009 31.8039C27.1854 31.8184 27.1728 31.8358 27.164 31.8552C27.1551 31.8745 27.1502 31.8955 27.1495 31.9167C27.1488 31.938 27.1523 31.9592 27.1598 31.9791C27.1672 31.9991 27.1786 32.0173 27.1932 32.0328C27.2083 32.0491 27.2266 32.062 27.247 32.0709C27.2674 32.0797 27.2894 32.0843 27.3116 32.0842C27.3512 32.0842 27.391 32.0699 27.4221 32.0406L27.6739 31.8055C27.6895 31.791 27.7021 31.7735 27.7109 31.7541C27.7197 31.7348 27.7247 31.7138 27.7254 31.6926C27.7261 31.6713 27.7226 31.6501 27.7151 31.6301C27.7076 31.6102 27.6963 31.5919 27.6817 31.5764C27.6672 31.5608 27.6498 31.5483 27.6304 31.5395C27.611 31.5306 27.5901 31.5257 27.5688 31.525C27.5476 31.5243 27.5264 31.5278 27.5064 31.5352C27.4865 31.5427 27.4683 31.5541 27.4527 31.5686Z" fill="#FF4A8B"/>
</svg>
