<svg width="25" height="25" viewBox="0 0 25 25" fill="none" xmlns="http://www.w3.org/2000/svg">
<path d="M24.5 12.5C24.5 19.1274 19.1274 24.5 12.5 24.5C5.87258 24.5 0.5 19.1274 0.5 12.5C0.5 5.87258 5.87258 0.5 12.5 0.5C19.1274 0.5 24.5 5.87258 24.5 12.5Z" stroke="#FF4A8B"/>
<path d="M22.727 12.5C22.727 18.1484 18.1481 22.7273 12.4997 22.7273C6.85137 22.7273 2.27246 18.1484 2.27246 12.5C2.27246 6.85164 6.85137 2.27274 12.4997 2.27274C18.1481 2.27274 22.727 6.85164 22.727 12.5Z" fill="#FF4A8B" fill-opacity="0.2"/>
<path fill-rule="evenodd" clip-rule="evenodd" d="M16.4028 8.25868C16.5977 8.06457 16.8607 7.95532 17.135 7.95456C17.4093 7.9538 17.6729 8.06159 17.8688 8.25462C18.0647 8.44765 18.1772 8.71041 18.1818 8.9861C18.1865 9.26179 18.0831 9.52825 17.8938 9.72788L12.3364 16.7101C12.2409 16.8135 12.1256 16.8964 11.9975 16.954C11.8693 17.0116 11.7309 17.0427 11.5906 17.0453C11.4502 17.0479 11.3108 17.022 11.1806 16.9692C11.0504 16.9165 10.9321 16.8378 10.8329 16.738L7.15067 13.0357C7.04809 12.9396 6.96581 12.8237 6.90875 12.695C6.85168 12.5663 6.821 12.4273 6.81852 12.2864C6.81605 12.1455 6.84184 12.0055 6.89435 11.8749C6.94686 11.7442 7.02502 11.6255 7.12417 11.5258C7.22332 11.4262 7.34142 11.3476 7.47143 11.2949C7.60144 11.2421 7.74069 11.2162 7.88088 11.2186C8.02108 11.2211 8.15933 11.252 8.28741 11.3093C8.41549 11.3667 8.53076 11.4494 8.62634 11.5525L11.5415 14.4811L16.3764 8.28947C16.385 8.27863 16.3929 8.26835 16.4028 8.25868Z" fill="#FF4A8B"/>
</svg>
