<svg width="110" height="28" viewBox="0 0 110 28" fill="none" xmlns="http://www.w3.org/2000/svg">
<path d="M44.4059 16.2417V20.4477H40.9414V7.82966H46.2206C47.2765 7.82966 48.1673 7.94108 48.9262 8.13606C49.6851 8.35889 50.312 8.63744 50.807 9.0274C51.2689 9.38951 51.6318 9.83518 51.8628 10.3366C52.0938 10.8379 52.2257 11.3672 52.2257 11.9521C52.2257 12.5928 52.0938 13.1777 51.8628 13.6791C51.6318 14.2083 51.2689 14.654 50.774 15.044C50.279 15.4061 49.6521 15.7125 48.8932 15.9074C48.1343 16.1303 47.2435 16.2417 46.2206 16.2417H44.4059ZM44.4059 14.0133H46.2206C47.1115 14.0133 47.7714 13.8462 48.1673 13.4841C48.5633 13.122 48.7613 12.6206 48.7613 11.9521C48.7613 11.6736 48.6953 11.395 48.5963 11.1722C48.4973 10.9215 48.3323 10.7265 48.1343 10.5594C47.9364 10.3923 47.6724 10.253 47.3425 10.1694C47.0455 10.0859 46.6496 10.0302 46.2206 10.0302H44.4059V14.0133ZM57.307 11.4786V20.4477H54.1395V11.4786H57.307ZM57.6699 9.0274C57.6699 9.25023 57.6369 9.44521 57.505 9.61234C57.406 9.80732 57.274 9.97445 57.109 10.1137C56.9111 10.253 56.7131 10.3644 56.4821 10.448C56.2511 10.5315 55.9872 10.5872 55.7232 10.5872C55.4593 10.5872 55.2283 10.5315 54.9973 10.448C54.7664 10.3644 54.5684 10.253 54.4034 10.1137C54.2384 9.97445 54.0735 9.80732 53.9745 9.61234C53.8755 9.44521 53.8425 9.25023 53.8425 9.0274C53.8425 8.80456 53.8755 8.60958 53.9745 8.4146C54.0735 8.21962 54.2384 8.05249 54.4034 7.91322C54.5684 7.77395 54.7664 7.66253 54.9973 7.57897C55.2283 7.49541 55.4593 7.4397 55.7232 7.4397C55.9872 7.4397 56.2511 7.49541 56.4821 7.57897C56.7131 7.66253 56.9111 7.77395 57.109 7.91322C57.274 8.05249 57.406 8.21962 57.505 8.4146C57.6369 8.60958 57.6699 8.80456 57.6699 9.0274ZM62.4212 15.8239L58.9897 11.4786H62.0253C62.2563 11.4786 62.4212 11.5064 62.5202 11.5621C62.6522 11.6179 62.7182 11.6736 62.8172 11.8128L64.6979 14.459C64.7639 14.3476 64.7969 14.264 64.8629 14.1526C64.9289 14.069 64.9949 13.9576 65.0608 13.8462L66.4136 11.8407C66.5126 11.7014 66.6116 11.6179 66.7106 11.5621C66.8426 11.5064 66.9746 11.4786 67.1065 11.4786H70.0431L66.6116 15.6846L70.1751 20.4477H67.1065C66.9086 20.4477 66.7106 20.4199 66.5786 20.3084C66.4466 20.2249 66.3147 20.1135 66.2487 20.002L64.335 17.2444C64.302 17.328 64.269 17.4394 64.203 17.523C64.17 17.6066 64.104 17.6901 64.071 17.7458L62.5202 20.002C62.4212 20.1135 62.3223 20.2249 62.1903 20.3084C62.0583 20.4199 61.8603 20.4477 61.6623 20.4477H58.8248L62.4212 15.8239ZM75.5533 11.3393C76.2462 11.3393 76.9061 11.4229 77.467 11.6179C78.0609 11.8128 78.5559 12.0635 78.9848 12.4256C79.4137 12.7877 79.7437 13.2056 79.9746 13.7069C80.2056 14.2362 80.3046 14.7933 80.3046 15.4618C80.3046 15.6567 80.3046 15.8239 80.2716 15.9353C80.2716 16.0746 80.2386 16.1581 80.1726 16.2417C80.1066 16.3253 80.0406 16.381 79.9417 16.4088C79.8757 16.4367 79.7437 16.4367 79.6117 16.4367H73.4746C73.5736 17.1887 73.8376 17.7458 74.2665 18.0801C74.7284 18.4143 75.2893 18.5815 75.9822 18.5815C76.3452 18.5815 76.6421 18.5536 76.9391 18.47C77.2031 18.4143 77.434 18.3308 77.632 18.2194C77.83 18.1358 78.0279 18.0522 78.2259 17.9687C78.3909 17.8851 78.5559 17.8572 78.7538 17.8572C79.0178 17.8572 79.2158 17.9408 79.3477 18.1079L80.2386 19.0828C79.9417 19.3892 79.5787 19.6399 79.1828 19.8349C78.8198 20.0299 78.4239 20.197 78.0279 20.3084C77.632 20.4199 77.2361 20.5034 76.8401 20.5313C76.4442 20.587 76.0482 20.587 75.6853 20.587C74.9264 20.587 74.2335 20.5034 73.6066 20.2806C72.9467 20.0856 72.3528 19.7792 71.8908 19.3892C71.3959 18.9714 71 18.47 70.736 17.8572C70.4391 17.2723 70.3071 16.5759 70.3071 15.7682C70.3071 15.1832 70.4061 14.5983 70.67 14.069C70.901 13.5398 71.2639 13.0663 71.6929 12.6485C72.1548 12.2585 72.7157 11.9243 73.3426 11.7014C74.0025 11.4507 74.7284 11.3393 75.5533 11.3393ZM75.5863 13.2056C74.9924 13.2056 74.5304 13.3448 74.1675 13.6234C73.8376 13.9298 73.6066 14.3476 73.5076 14.8768H77.467C77.467 14.6818 77.434 14.459 77.368 14.264C77.302 14.069 77.2031 13.8741 77.0381 13.7348C76.9061 13.5677 76.7081 13.4284 76.4772 13.3448C76.2462 13.2334 75.9492 13.2056 75.5863 13.2056ZM85.4188 7.49541V20.4477H82.2513V7.49541H85.4188ZM92.7108 11.3393C93.5027 11.3393 94.2615 11.4507 94.9214 11.6736C95.5813 11.8685 96.1423 12.1749 96.6372 12.5928C97.0991 12.9827 97.4621 13.4562 97.726 14.0412C97.99 14.5983 98.122 15.2389 98.122 15.9353C98.122 16.6595 97.99 17.3002 97.726 17.8851C97.4621 18.47 97.0991 18.9436 96.6372 19.3335C96.1423 19.7513 95.5813 20.0577 94.9214 20.2806C94.2615 20.4756 93.5027 20.587 92.7108 20.587C91.8859 20.587 91.16 20.4756 90.5001 20.2806C89.8402 20.0577 89.2463 19.7513 88.7843 19.3335C88.2894 18.9436 87.9265 18.47 87.6625 17.8851C87.3986 17.3002 87.2666 16.6595 87.2666 15.9353C87.2666 15.2389 87.3986 14.5983 87.6625 14.0412C87.9265 13.4562 88.2894 12.9827 88.7843 12.5928C89.2463 12.1749 89.8402 11.8685 90.5001 11.6736C91.16 11.4507 91.8859 11.3393 92.7108 11.3393ZM92.7108 18.6093C93.4367 18.6093 93.9976 18.3865 94.3275 17.9408C94.6575 17.523 94.8554 16.8545 94.8554 15.9631C94.8554 15.0718 94.6575 14.4033 94.3275 13.9855C93.9976 13.5398 93.4367 13.3448 92.7108 13.3448C91.9519 13.3448 91.424 13.5398 91.061 13.9855C90.7311 14.4033 90.5331 15.0718 90.5331 15.9631C90.5331 16.8545 90.7311 17.523 91.061 17.9408C91.424 18.3865 91.9519 18.6093 92.7108 18.6093ZM99.8707 23.3167V11.4786H101.817C102.015 11.4786 102.213 11.5064 102.345 11.59C102.477 11.6736 102.543 11.785 102.609 11.9243L102.84 12.5928C103.038 12.3978 103.269 12.2307 103.5 12.0635C103.731 11.9243 103.995 11.785 104.259 11.6736C104.523 11.5621 104.82 11.4786 105.15 11.4229C105.447 11.3393 105.777 11.3115 106.14 11.3115C106.701 11.3115 107.229 11.4229 107.691 11.6179C108.152 11.8407 108.581 12.1471 108.911 12.5371C109.241 12.927 109.538 13.4005 109.703 13.9576C109.901 14.5426 110 15.1832 110 15.9074C110 16.5759 109.901 17.1887 109.67 17.7737C109.439 18.3308 109.142 18.8321 108.746 19.25C108.35 19.6678 107.856 20.002 107.295 20.2527C106.767 20.4756 106.14 20.587 105.447 20.587C104.919 20.587 104.457 20.5313 104.061 20.392C103.698 20.2806 103.335 20.0856 103.038 19.8628V23.3167H99.8707ZM105.051 13.3727C104.82 13.3727 104.622 13.3727 104.424 13.4284C104.226 13.4562 104.061 13.512 103.896 13.5677C103.731 13.6512 103.599 13.7348 103.434 13.8462C103.302 13.9576 103.17 14.069 103.038 14.2083V18.0244C103.269 18.2472 103.533 18.3865 103.83 18.4979C104.094 18.5815 104.391 18.6372 104.688 18.6372C104.985 18.6372 105.249 18.5815 105.513 18.47C105.744 18.3865 105.975 18.2194 106.14 17.9965C106.338 17.8015 106.47 17.523 106.569 17.1609C106.668 16.8266 106.734 16.381 106.734 15.9074C106.734 15.4339 106.701 15.0161 106.602 14.7097C106.536 14.3754 106.404 14.1248 106.272 13.9298C106.107 13.7069 105.942 13.5677 105.744 13.4841C105.546 13.4005 105.315 13.3727 105.051 13.3727Z" fill="white"/>
<path fill-rule="evenodd" clip-rule="evenodd" d="M16.4646 0C22.9646 0 28.5738 3.14755 31.2794 7.74352C30.0915 7.49283 28.8377 7.27 27.4849 7.10287C22.7996 6.57364 16.7285 7.38142 14.3529 11.1696C14.7818 11.8381 15.6067 12.061 16.8275 12.061H17.3554C19.4341 12.061 21.6448 10.6961 23.3935 10.6961H23.7565C24.7793 10.6961 26.2311 11.3924 26.2311 12.061C26.2311 16.5734 8.84269 8.27276 8.84269 16.9912C8.84269 19.6095 11.6473 22.0328 14.7158 22.0885C13.792 20.9465 12.9341 21.1972 12.9341 18.941C12.9341 14.0943 26.0331 15.8492 26.2311 16.5455C23.5255 17.0747 13.627 14.93 13.627 19.1081C13.627 19.6374 13.561 20.0273 13.9899 20.4451C13.9899 18.551 15.7057 17.604 17.9163 17.604H18.2463C22.0407 17.604 27.3859 19.3031 30.0586 21.81C27.089 25.4589 22.1067 27.8265 16.4646 27.8265C7.35791 27.8265 0 21.5872 0 13.8993C0 6.21153 7.35791 0 16.4646 0Z" fill="white"/>
</svg>
