<svg width="45" height="45" viewBox="0 0 45 45" fill="none" xmlns="http://www.w3.org/2000/svg">
<path d="M44.8636 30.9545L39.3409 18.8182V8.11364C39.3409 7.70455 39.0682 7.43182 38.6591 7.43182H36.4773V0.681818C36.4773 0.272727 36.2045 0 35.7955 0H26.7273C26.3182 0 26.0455 0.272727 26.0455 0.681818V7.43182H6.34091C5.93182 7.43182 5.65909 7.70455 5.65909 8.11364V18.75L0.0681818 31.0909C-0.0681818 31.3636 -2.03198e-08 31.7045 0.272727 31.9091V44.3182C0.272727 44.7273 0.545455 45 0.954545 45H44.3182C44.7273 45 45 44.7273 45 44.3182V31.4318C45 31.2955 45 31.1591 44.8636 30.9545ZM35.1818 1.36364V12.6818H27.4091V8.04545V1.36364H35.1818ZM26.0455 8.79545V13.4318C26.0455 13.8409 26.3182 14.1136 26.7273 14.1136H35.8636C36.2727 14.1136 36.5455 13.8409 36.5455 13.4318V8.79545H38.0455V18.2727H7.02273V8.79545H26.0455ZM6.75 19.6364H38.25L43.2273 30.6818H1.70455L6.75 19.6364ZM43.6364 43.6364H1.63636V32.0455H43.6364V43.6364Z" fill="#FF4A8B"/>
<path d="M9.75018 16.2954H22.3638C22.7729 16.2954 23.0456 16.0227 23.0456 15.6136V11.1136C23.0456 10.7045 22.7729 10.4318 22.3638 10.4318H9.75018C9.34109 10.4318 9.06836 10.7045 9.06836 11.1136V15.6136C9.06836 16.0227 9.40927 16.2954 9.75018 16.2954ZM10.432 11.7954H21.682V14.9318H10.432V11.7954ZM26.7275 16.2954H35.8638C36.2729 16.2954 36.5456 16.0227 36.5456 15.6136C36.5456 15.2045 36.2729 14.9318 35.8638 14.9318H26.7275C26.3184 14.9318 26.0456 15.2045 26.0456 15.6136C26.0456 16.0227 26.3184 16.2954 26.7275 16.2954ZM28.7047 11.0454H30.2047C30.6138 11.0454 30.8865 10.7727 30.8865 10.3636C30.8865 9.95454 30.6138 9.68181 30.2047 9.68181H28.7047C28.2956 9.68181 28.0229 9.95454 28.0229 10.3636C28.0229 10.7727 28.2956 11.0454 28.7047 11.0454ZM32.3865 11.0454H33.8865C34.2956 11.0454 34.5684 10.7727 34.5684 10.3636C34.5684 9.95454 34.2956 9.68181 33.8865 9.68181H32.3865C31.9775 9.68181 31.7047 9.95454 31.7047 10.3636C31.7047 10.7727 32.0456 11.0454 32.3865 11.0454ZM28.7047 7.70454H30.2047C30.6138 7.70454 30.8865 7.43181 30.8865 7.02272C30.8865 6.61363 30.6138 6.3409 30.2047 6.3409H28.7047C28.2956 6.3409 28.0229 6.61363 28.0229 7.02272C28.0229 7.43181 28.2956 7.70454 28.7047 7.70454ZM32.3865 7.70454H33.8865C34.2956 7.70454 34.5684 7.43181 34.5684 7.02272C34.5684 6.61363 34.2956 6.3409 33.8865 6.3409H32.3865C31.9775 6.3409 31.7047 6.61363 31.7047 7.02272C31.7047 7.43181 32.0456 7.70454 32.3865 7.70454ZM28.7047 4.43181H30.2047C30.6138 4.43181 30.8865 4.15909 30.8865 3.74999C30.8865 3.3409 30.6138 3.06818 30.2047 3.06818H28.7047C28.2956 3.06818 28.0229 3.3409 28.0229 3.74999C28.0229 4.15909 28.2956 4.43181 28.7047 4.43181ZM32.3865 4.43181H33.8865C34.2956 4.43181 34.5684 4.15909 34.5684 3.74999C34.5684 3.3409 34.2956 3.06818 33.8865 3.06818H32.3865C31.9775 3.06818 31.7047 3.3409 31.7047 3.74999C31.7047 4.15909 32.0456 4.43181 32.3865 4.43181ZM9.75018 23.7273H35.182C35.5911 23.7273 35.8638 23.4545 35.8638 23.0454C35.8638 22.6364 35.5911 22.3636 35.182 22.3636H9.75018C9.34109 22.3636 9.06836 22.6364 9.06836 23.0454C9.06836 23.4545 9.40927 23.7273 9.75018 23.7273ZM35.182 26.4545H9.75018C9.34109 26.4545 9.06836 26.7273 9.06836 27.1364C9.06836 27.5454 9.34109 27.8182 9.75018 27.8182H35.182C35.5911 27.8182 35.8638 27.5454 35.8638 27.1364C35.8638 26.7273 35.5911 26.4545 35.182 26.4545ZM12.682 40.7727H32.5911C33.0002 40.7727 33.2729 40.5 33.2729 40.0909V35.7273C33.2729 35.3182 33.0002 35.0455 32.5911 35.0455H12.682C12.2729 35.0455 12.0002 35.3182 12.0002 35.7273V40.0909C12.0002 40.5 12.3411 40.7727 12.682 40.7727ZM13.3638 36.4773H31.9093V39.4773H13.3638V36.4773Z" fill="#FF4A8B"/>
</svg>
