<svg width="26" height="26" viewBox="0 0 26 26" fill="none" xmlns="http://www.w3.org/2000/svg">
<path d="M18.5859 20.1094C18.3056 20.1094 18.0781 20.3369 18.0781 20.6172C18.0781 20.8975 18.3056 21.125 18.5859 21.125C18.8662 21.125 19.0938 20.8975 19.0938 20.6172C19.0938 20.3369 18.8662 20.1094 18.5859 20.1094Z" fill="white"/>
<path d="M19.8363 18.4673L17.4226 17.6629L16.5562 15.9299C17.3368 15.1354 17.8788 14.0841 18.0615 12.9876L18.1696 12.3398H19.0938C19.9338 12.3398 20.6172 11.6564 20.6172 10.8164V7.61719C20.6172 3.41707 17.2001 0 13 0C8.78912 0 5.38281 3.40727 5.38281 7.61719V10.8164C5.38281 11.4784 5.80739 12.0429 6.39844 12.2525V12.8477C6.39844 13.6877 7.08185 14.3711 7.92188 14.3711H8.36784C8.58797 14.8493 8.87291 15.2922 9.21964 15.6901C9.29155 15.7728 9.36655 15.8529 9.44338 15.9308L8.57736 17.6629L6.16368 18.4673C3.35725 19.4031 1.32031 22.3575 1.32031 25.4922C1.32031 25.7727 1.54766 26 1.82812 26H24.1719C24.4523 26 24.6797 25.7727 24.6797 25.4922C24.6797 22.3575 22.6428 19.4031 19.8363 18.4673ZM19.6016 10.8164C19.6016 11.0964 19.3738 11.3242 19.0938 11.3242H18.3187C18.4478 10.3243 18.5338 9.26032 18.5684 8.21234C18.5694 8.18279 18.5702 8.15405 18.5712 8.125H19.6016V10.8164ZM6.90625 11.3242C6.62624 11.3242 6.39844 11.0964 6.39844 10.8164V8.125H7.4292C7.43087 8.17797 7.43265 8.23118 7.43463 8.28476C7.43468 8.28659 7.43478 8.28836 7.43483 8.29019C7.43483 8.29034 7.43483 8.2905 7.43483 8.29065C7.47038 9.30993 7.55528 10.3463 7.68143 11.3242H6.90625V11.3242ZM7.92188 13.3555C7.64187 13.3555 7.41406 13.1277 7.41406 12.8477V12.3398H7.83037L7.93843 12.9878C7.95905 13.1109 7.98439 13.2336 8.01369 13.3555H7.92188ZM7.41493 7.10938H6.41773C6.67494 3.70596 9.51524 1.01562 13 1.01562C16.4693 1.01562 19.3221 3.70561 19.5822 7.10938H18.5851C18.5486 4.30488 16.2648 2.03125 13.4545 2.03125H12.5456C9.73537 2.03125 7.45144 4.30488 7.41493 7.10938ZM12.5455 3.04688H13.4545C15.7299 3.04688 17.5716 4.90806 17.5703 7.18098C17.5703 7.34079 17.569 7.47993 17.5664 7.60652C17.5664 7.60815 17.5663 7.60982 17.5663 7.6115L16.9311 7.52075C15.2056 7.27436 13.5763 6.45973 12.3434 5.22686C12.2482 5.13165 12.119 5.07812 11.9844 5.07812C10.6206 5.07812 9.31511 5.69948 8.45213 6.74923C8.6648 4.68147 10.4128 3.04688 12.5455 3.04688ZM9.06648 13.3555C8.81227 12.5098 8.5214 10.0215 8.45711 8.427L9.14057 7.51568C9.76828 6.679 10.7449 6.15916 11.7837 6.09949C13.1506 7.4003 14.9189 8.25932 16.7875 8.52612L17.5351 8.63297C17.4852 9.69353 17.383 10.7578 17.2367 11.7366C17.2367 11.7369 17.2366 11.7373 17.2366 11.7376C17.1901 12.0523 17.1534 12.2548 17.0598 12.8205C16.7908 14.4336 15.5872 15.8922 13.9983 16.2895C13.3444 16.4528 12.6555 16.4527 12.0019 16.2895C11.0098 16.0415 10.1001 15.355 9.51305 14.3711H10.5483C10.7579 14.9621 11.3223 15.3867 11.9844 15.3867H13C13.8417 15.3867 14.5234 14.705 14.5234 13.8633C14.5234 13.0233 13.84 12.3398 13 12.3398H11.9844C11.3076 12.3398 10.7515 12.777 10.5474 13.3555H9.06648ZM11.9417 17.3172C12.29 17.3906 12.6451 17.4281 13 17.4281C13.2778 17.4281 13.5557 17.4049 13.8304 17.3598L12.9331 18.3087L11.9417 17.3172ZM12.235 19.047L10.6243 20.7503C10.1809 19.9015 9.79987 19.0182 9.48736 18.1139L10.0922 16.9042L12.235 19.047ZM15.8217 16.7321L16.5125 18.1138C16.1995 19.0197 15.8184 19.9033 15.3754 20.751L13.6515 19.0271L15.8217 16.7321ZM11.4766 13.8633C11.4766 13.5829 11.704 13.3555 11.9844 13.3555H13C13.28 13.3555 13.5078 13.5833 13.5078 13.8633C13.5078 14.1437 13.2804 14.3711 13 14.3711H11.9844C11.7044 14.3711 11.4766 14.1433 11.4766 13.8633ZM2.35625 24.9844C2.5575 22.4687 4.2317 20.1821 6.48487 19.4308L8.62245 18.7184C9.01408 19.8013 9.49924 20.8539 10.0678 21.8537C10.0688 21.8554 10.0697 21.8571 10.0707 21.8588C10.0707 21.8588 10.0707 21.8588 10.0707 21.8589C10.4862 22.5896 10.9538 23.3036 11.4607 23.9815L12.0854 24.9844H2.35625ZM13 24.5317L12.3113 23.4261C12.3036 23.4137 12.2954 23.4016 12.2866 23.3899C11.8754 22.8414 11.4918 22.2677 11.1424 21.6805L12.9534 19.7654L14.8617 21.6736C14.51 22.2651 14.1251 22.8412 13.7135 23.3898C13.6886 23.423 13.7239 23.3708 13 24.5317ZM13.9146 24.9844L14.5392 23.9815C15.0484 23.3011 15.5194 22.5813 15.939 21.842C15.9415 21.8376 15.9439 21.833 15.9464 21.8285C15.9467 21.828 15.947 21.8275 15.9473 21.8269C16.5087 20.8367 16.9888 19.7933 17.3775 18.7184L19.5151 19.4308C21.7683 20.1821 23.4425 22.4687 23.6438 24.9844H13.9146Z" fill="white"/>
<path d="M22.1173 22.9293C21.778 22.25 21.2809 21.6465 20.6798 21.1841C20.4575 21.0131 20.1386 21.0546 19.9677 21.277C19.7966 21.4993 19.8382 21.8181 20.0605 21.9891C20.5406 22.3584 20.9376 22.8405 21.2087 23.3832C21.3343 23.6345 21.6395 23.7357 21.8899 23.6106C22.1408 23.4852 22.2426 23.1802 22.1173 22.9293Z" fill="white"/>
</svg>
