<svg width="911" height="144" viewBox="0 0 911 144" fill="none" xmlns="http://www.w3.org/2000/svg">
<path d="M65 72H265.982C265.982 72 265.772 74.4377 265.772 76C265.772 77.5623 266 80 266 80H65C65.1907 78 65.2311 77.5656 65.229 76C65.2269 74.4339 65.1907 74 65 72Z" fill="#FFE6EF"/>
<g filter="url(#filter0_d)">
<path d="M65 73H265.982C265.982 73 265.772 74.8283 265.772 76C265.772 77.1717 266 79 266 79H65C65.1907 77.5 65.2311 77.1742 65.229 76C65.2269 74.8254 65.1907 74.5 65 73Z" fill="#FF4A8B"/>
</g>
<path d="M289 72H474.984C474.984 72 474.789 74.4377 474.789 76C474.789 77.5623 475 80 475 80H289C289.176 78 289.214 77.5656 289.212 76C289.21 74.4339 289.176 74 289 72Z" fill="#FFE6EF"/>
<g filter="url(#filter1_d)">
<path d="M289 73H474.984C474.984 73 474.789 74.8283 474.789 76C474.789 77.1717 475 79 475 79H289C289.176 77.5 289.214 77.1742 289.212 76C289.21 74.8254 289.176 74.5 289 73Z" fill="#FF4A8B"/>
</g>
<path d="M498 72H687.983C687.983 72 687.784 74.4377 687.784 76C687.784 77.5623 688 80 688 80H498C498.18 78 498.218 77.5656 498.216 76C498.214 74.4339 498.18 74 498 72Z" fill="#FFE6EF"/>
<g filter="url(#filter2_d)">
<path d="M498 73H687.983C687.983 73 687.784 74.8283 687.784 76C687.784 77.1717 688 79 688 79H498C498.18 77.5 498.218 77.1742 498.216 76C498.214 74.8254 498.18 74.5 498 73Z" fill="#FF4A8B"/>
</g>
<path d="M711.016 72H881.985C881.985 72 882 74.4377 882 76C882 77.5623 882 80 882 80H711C711.181 78 711.182 77.5656 711.181 76C711.179 74.4339 711.181 74 711.016 72Z" fill="#FFE6EF"/>
<g filter="url(#filter3_d)">
<path d="M711.016 73H881.985C881.985 73 882 74.8283 882 76C882 77.1717 882 79 882 79H711C711.181 77.5 711.182 77.1742 711.181 76C711.179 74.8254 711.181 74.5 711.016 73Z" fill="#FF4A8B"/>
</g>
<path d="M65.5 75.5C65.5 82.1274 60.1274 87.5 53.5 87.5C46.8726 87.5 41.5 82.1274 41.5 75.5C41.5 68.8726 46.8726 63.5 53.5 63.5C60.1274 63.5 65.5 68.8726 65.5 75.5Z" stroke="#FF4A8B"/>
<path d="M63.7275 75.5C63.7275 81.1483 59.1486 85.7273 53.5002 85.7273C47.8519 85.7273 43.2729 81.1483 43.2729 75.5C43.2729 69.8516 47.8519 65.2727 53.5002 65.2727C59.1486 65.2727 63.7275 69.8516 63.7275 75.5Z" fill="#FF4A8B" fill-opacity="0.2"/>
<path fill-rule="evenodd" clip-rule="evenodd" d="M57.4028 71.2587C57.5977 71.0645 57.8607 70.9553 58.135 70.9545C58.4093 70.9538 58.6729 71.0616 58.8688 71.2546C59.0647 71.4476 59.1772 71.7104 59.1818 71.9861C59.1865 72.2618 59.0831 72.5282 58.8938 72.7279L53.3364 79.71C53.2409 79.8134 53.1256 79.8964 52.9975 79.954C52.8693 80.0116 52.7309 80.0426 52.5906 80.0453C52.4502 80.0479 52.3108 80.022 52.1806 79.9692C52.0504 79.9164 51.9321 79.8378 51.8329 79.738L48.1507 76.0356C48.0481 75.9396 47.9658 75.8237 47.9087 75.695C47.8517 75.5663 47.821 75.4273 47.8185 75.2864C47.816 75.1455 47.8418 75.0055 47.8944 74.8748C47.9469 74.7442 48.025 74.6255 48.1242 74.5258C48.2233 74.4262 48.3414 74.3476 48.4714 74.2948C48.6014 74.242 48.7407 74.2161 48.8809 74.2186C49.0211 74.2211 49.1593 74.2519 49.2874 74.3093C49.4155 74.3666 49.5308 74.4493 49.6263 74.5525L52.5415 77.4811L57.3764 71.2894C57.385 71.2786 57.3929 71.2683 57.4028 71.2587Z" fill="#FF4A8B"/>
<path d="M289.5 75.5C289.5 82.1274 284.127 87.5 277.5 87.5C270.873 87.5 265.5 82.1274 265.5 75.5C265.5 68.8726 270.873 63.5 277.5 63.5C284.127 63.5 289.5 68.8726 289.5 75.5Z" stroke="#FF4A8B"/>
<path d="M287.727 75.5C287.727 81.1483 283.149 85.7273 277.5 85.7273C271.852 85.7273 267.273 81.1483 267.273 75.5C267.273 69.8516 271.852 65.2727 277.5 65.2727C283.149 65.2727 287.727 69.8516 287.727 75.5Z" fill="#FF4A8B" fill-opacity="0.2"/>
<path fill-rule="evenodd" clip-rule="evenodd" d="M281.403 71.2587C281.598 71.0645 281.861 70.9553 282.135 70.9545C282.409 70.9538 282.673 71.0616 282.869 71.2546C283.065 71.4476 283.177 71.7104 283.182 71.9861C283.187 72.2618 283.083 72.5282 282.894 72.7279L277.336 79.71C277.241 79.8134 277.126 79.8964 276.997 79.954C276.869 80.0116 276.731 80.0426 276.591 80.0453C276.45 80.0479 276.311 80.022 276.181 79.9692C276.05 79.9164 275.932 79.8378 275.833 79.738L272.151 76.0356C272.048 75.9396 271.966 75.8237 271.909 75.695C271.852 75.5663 271.821 75.4273 271.819 75.2864C271.816 75.1455 271.842 75.0055 271.894 74.8748C271.947 74.7442 272.025 74.6255 272.124 74.5258C272.223 74.4262 272.341 74.3476 272.471 74.2948C272.601 74.242 272.741 74.2161 272.881 74.2186C273.021 74.2211 273.159 74.2519 273.287 74.3093C273.415 74.3666 273.531 74.4493 273.626 74.5525L276.541 77.4811L281.376 71.2894C281.385 71.2786 281.393 71.2683 281.403 71.2587Z" fill="#FF4A8B"/>
<path d="M498.5 75.5C498.5 82.1274 493.127 87.5 486.5 87.5C479.873 87.5 474.5 82.1274 474.5 75.5C474.5 68.8726 479.873 63.5 486.5 63.5C493.127 63.5 498.5 68.8726 498.5 75.5Z" stroke="#FF4A8B"/>
<path d="M496.727 75.5C496.727 81.1483 492.149 85.7273 486.5 85.7273C480.852 85.7273 476.273 81.1483 476.273 75.5C476.273 69.8516 480.852 65.2727 486.5 65.2727C492.149 65.2727 496.727 69.8516 496.727 75.5Z" fill="#FF4A8B" fill-opacity="0.2"/>
<path fill-rule="evenodd" clip-rule="evenodd" d="M490.403 71.2587C490.598 71.0645 490.861 70.9553 491.135 70.9545C491.409 70.9538 491.673 71.0616 491.869 71.2546C492.065 71.4476 492.177 71.7104 492.182 71.9861C492.187 72.2618 492.083 72.5282 491.894 72.7279L486.336 79.71C486.241 79.8134 486.126 79.8964 485.997 79.954C485.869 80.0116 485.731 80.0426 485.591 80.0453C485.45 80.0479 485.311 80.022 485.181 79.9692C485.05 79.9164 484.932 79.8378 484.833 79.738L481.151 76.0356C481.048 75.9396 480.966 75.8237 480.909 75.695C480.852 75.5663 480.821 75.4273 480.819 75.2864C480.816 75.1455 480.842 75.0055 480.894 74.8748C480.947 74.7442 481.025 74.6255 481.124 74.5258C481.223 74.4262 481.341 74.3476 481.471 74.2948C481.601 74.242 481.741 74.2161 481.881 74.2186C482.021 74.2211 482.159 74.2519 482.287 74.3093C482.415 74.3666 482.531 74.4493 482.626 74.5525L485.541 77.4811L490.376 71.2894C490.385 71.2786 490.393 71.2683 490.403 71.2587Z" fill="#FF4A8B"/>
<path d="M711.5 75.5C711.5 82.1274 706.127 87.5 699.5 87.5C692.873 87.5 687.5 82.1274 687.5 75.5C687.5 68.8726 692.873 63.5 699.5 63.5C706.127 63.5 711.5 68.8726 711.5 75.5Z" stroke="#FF4A8B"/>
<path d="M709.727 75.5C709.727 81.1483 705.149 85.7273 699.5 85.7273C693.852 85.7273 689.273 81.1483 689.273 75.5C689.273 69.8516 693.852 65.2727 699.5 65.2727C705.149 65.2727 709.727 69.8516 709.727 75.5Z" fill="#FF4A8B" fill-opacity="0.2"/>
<path fill-rule="evenodd" clip-rule="evenodd" d="M703.403 71.2587C703.598 71.0645 703.861 70.9553 704.135 70.9545C704.409 70.9538 704.673 71.0616 704.869 71.2546C705.065 71.4476 705.177 71.7104 705.182 71.9861C705.187 72.2618 705.083 72.5282 704.894 72.7279L699.336 79.71C699.241 79.8134 699.126 79.8964 698.997 79.954C698.869 80.0116 698.731 80.0426 698.591 80.0453C698.45 80.0479 698.311 80.022 698.181 79.9692C698.05 79.9164 697.932 79.8378 697.833 79.738L694.151 76.0356C694.048 75.9396 693.966 75.8237 693.909 75.695C693.852 75.5663 693.821 75.4273 693.819 75.2864C693.816 75.1455 693.842 75.0055 693.894 74.8748C693.947 74.7442 694.025 74.6255 694.124 74.5258C694.223 74.4262 694.341 74.3476 694.471 74.2948C694.601 74.242 694.741 74.2161 694.881 74.2186C695.021 74.2211 695.159 74.2519 695.287 74.3093C695.415 74.3666 695.531 74.4493 695.626 74.5525L698.541 77.4811L703.376 71.2894C703.385 71.2786 703.393 71.2683 703.403 71.2587Z" fill="#FF4A8B"/>
<path d="M902.5 76C902.5 81.799 897.799 86.5 892 86.5C886.201 86.5 881.5 81.799 881.5 76C881.5 70.201 886.201 65.5 892 65.5C897.799 65.5 902.5 70.201 902.5 76Z" stroke="#FF4A8B"/>
<path d="M901 76C901 80.9706 896.971 85 892 85C887.029 85 883 80.9706 883 76C883 71.0294 887.029 67 892 67C896.971 67 901 71.0294 901 76Z" fill="#FF4A8B" fill-opacity="0.2"/>
<path fill-rule="evenodd" clip-rule="evenodd" d="M895.434 72.2676C895.606 72.0968 895.837 72.0007 896.079 72C896.32 71.9993 896.552 72.0942 896.724 72.2641C896.897 72.4339 896.996 72.6652 897 72.9078C897.004 73.1504 896.913 73.3849 896.746 73.5605L891.856 79.7048C891.772 79.7958 891.67 79.8689 891.558 79.9195C891.445 79.9702 891.323 79.9975 891.2 79.9998C891.076 80.0021 890.953 79.9794 890.839 79.9329C890.724 79.8865 890.62 79.8173 890.533 79.7295L887.292 76.4714C887.202 76.3868 887.13 76.2849 887.08 76.1716C887.029 76.0583 887.002 75.936 887 75.812C886.998 75.688 887.021 75.5649 887.067 75.4499C887.113 75.3349 887.182 75.2304 887.269 75.1427C887.356 75.055 887.46 74.9859 887.575 74.9395C887.689 74.893 887.812 74.8702 887.935 74.8724C888.058 74.8746 888.18 74.9017 888.293 74.9522C888.405 75.0027 888.507 75.0754 888.591 75.1662L891.156 77.7433L895.411 72.2947C895.419 72.2852 895.426 72.2761 895.434 72.2676Z" fill="#FF4A8B"/>
<path d="M14.047 114.368C14.047 114.853 13.9303 115.306 13.697 115.726C13.4636 116.137 13.109 116.468 12.633 116.72C12.157 116.972 11.5736 117.098 10.883 117.098C10.211 117.098 9.60896 116.981 9.07696 116.748C8.54496 116.505 8.12029 116.169 7.80296 115.74C7.48563 115.311 7.30363 114.816 7.25696 114.256H8.96496C9.01163 114.685 9.19363 115.054 9.51096 115.362C9.83763 115.67 10.2716 115.824 10.813 115.824C11.2983 115.824 11.6716 115.693 11.933 115.432C12.2036 115.171 12.339 114.835 12.339 114.424C12.339 114.069 12.241 113.78 12.045 113.556C11.849 113.323 11.6063 113.141 11.317 113.01C11.0276 112.879 10.631 112.73 10.127 112.562C9.51096 112.366 9.00696 112.17 8.61496 111.974C8.23229 111.778 7.90563 111.493 7.63496 111.12C7.36429 110.747 7.22896 110.257 7.22896 109.65C7.22896 109.118 7.35963 108.651 7.62096 108.25C7.88229 107.849 8.25563 107.541 8.74096 107.326C9.22629 107.102 9.78629 106.99 10.421 106.99C11.429 106.99 12.227 107.233 12.815 107.718C13.4123 108.203 13.753 108.838 13.837 109.622H12.115C12.0496 109.249 11.8723 108.931 11.583 108.67C11.303 108.399 10.9156 108.264 10.421 108.264C9.97296 108.264 9.61363 108.381 9.34296 108.614C9.07229 108.838 8.93696 109.165 8.93696 109.594C8.93696 109.93 9.03029 110.21 9.21696 110.434C9.40363 110.649 9.63696 110.821 9.91696 110.952C10.2063 111.073 10.5983 111.218 11.093 111.386C11.7183 111.582 12.227 111.783 12.619 111.988C13.0203 112.184 13.3563 112.473 13.627 112.856C13.907 113.239 14.047 113.743 14.047 114.368ZM22.7567 109.286V117H21.1467V115.32C20.9507 115.889 20.61 116.333 20.1247 116.65C19.6394 116.958 19.0747 117.112 18.4307 117.112C17.5347 117.112 16.816 116.823 16.2747 116.244C15.7334 115.665 15.4627 114.839 15.4627 113.766V109.286H17.0587V113.598C17.0587 114.298 17.236 114.839 17.5907 115.222C17.9454 115.595 18.4307 115.782 19.0467 115.782C19.6814 115.782 20.19 115.577 20.5727 115.166C20.9554 114.755 21.1467 114.158 21.1467 113.374V109.286H22.7567ZM29.0921 109.188C29.7641 109.188 30.3615 109.347 30.8841 109.664C31.4161 109.981 31.8315 110.439 32.1301 111.036C32.4288 111.633 32.5781 112.333 32.5781 113.136C32.5781 113.948 32.4288 114.653 32.1301 115.25C31.8315 115.847 31.4161 116.305 30.8841 116.622C30.3615 116.939 29.7641 117.098 29.0921 117.098C28.3921 117.098 27.7948 116.925 27.3001 116.58C26.8055 116.235 26.4601 115.777 26.2641 115.208V117H24.6681V106.64H26.2641V111.078C26.4601 110.509 26.8055 110.051 27.3001 109.706C27.7948 109.361 28.3921 109.188 29.0921 109.188ZM28.6021 110.588C28.1541 110.588 27.7528 110.695 27.3981 110.91C27.0435 111.115 26.7635 111.414 26.5581 111.806C26.3528 112.189 26.2501 112.632 26.2501 113.136C26.2501 113.649 26.3528 114.097 26.5581 114.48C26.7635 114.863 27.0435 115.161 27.3981 115.376C27.7528 115.581 28.1541 115.684 28.6021 115.684C29.3115 115.684 29.8808 115.46 30.3101 115.012C30.7395 114.555 30.9541 113.929 30.9541 113.136C30.9541 112.352 30.7395 111.731 30.3101 111.274C29.8808 110.817 29.3115 110.588 28.6021 110.588ZM37.5454 109.188C38.5441 109.188 39.3701 109.454 40.0234 109.986C40.6767 110.509 41.0827 111.223 41.2414 112.128H39.5474C39.4541 111.643 39.2254 111.265 38.8614 110.994C38.5067 110.714 38.0587 110.574 37.5174 110.574C36.9014 110.574 36.3881 110.793 35.9774 111.232C35.5667 111.661 35.3614 112.296 35.3614 113.136C35.3614 113.976 35.5667 114.615 35.9774 115.054C36.3881 115.493 36.9014 115.712 37.5174 115.712C38.0587 115.712 38.5067 115.572 38.8614 115.292C39.2254 115.012 39.4541 114.629 39.5474 114.144H41.2414C41.0827 115.049 40.6767 115.768 40.0234 116.3C39.3701 116.832 38.5441 117.098 37.5454 117.098C36.7987 117.098 36.1361 116.939 35.5574 116.622C34.9881 116.305 34.5401 115.847 34.2134 115.25C33.8867 114.653 33.7234 113.948 33.7234 113.136C33.7234 112.333 33.8867 111.633 34.2134 111.036C34.5401 110.439 34.9881 109.981 35.5574 109.664C36.1361 109.347 36.7987 109.188 37.5454 109.188ZM44.3794 110.798C44.6407 110.294 45.014 109.897 45.4994 109.608C45.9847 109.309 46.5447 109.16 47.1794 109.16V110.896H46.7034C46.0034 110.896 45.4387 111.069 45.0094 111.414C44.5894 111.75 44.3794 112.31 44.3794 113.094V117H42.7834V109.286H44.3794V110.798ZM48.1512 107.046C48.1512 106.775 48.2445 106.551 48.4312 106.374C48.6178 106.197 48.8652 106.108 49.1732 106.108C49.4812 106.108 49.7285 106.197 49.9152 106.374C50.1112 106.551 50.2092 106.775 50.2092 107.046C50.2092 107.317 50.1112 107.536 49.9152 107.704C49.7285 107.872 49.4812 107.956 49.1732 107.956C48.8652 107.956 48.6178 107.872 48.4312 107.704C48.2445 107.536 48.1512 107.317 48.1512 107.046ZM49.9712 109.286V117H48.3752V109.286H49.9712ZM56.3265 109.188C56.9985 109.188 57.5959 109.347 58.1185 109.664C58.6505 109.981 59.0659 110.439 59.3645 111.036C59.6632 111.633 59.8125 112.333 59.8125 113.136C59.8125 113.948 59.6632 114.653 59.3645 115.25C59.0659 115.847 58.6505 116.305 58.1185 116.622C57.5959 116.939 56.9985 117.098 56.3265 117.098C55.6265 117.098 55.0292 116.925 54.5345 116.58C54.0399 116.235 53.6945 115.777 53.4985 115.208V117H51.9025V106.64H53.4985V111.078C53.6945 110.509 54.0399 110.051 54.5345 109.706C55.0292 109.361 55.6265 109.188 56.3265 109.188ZM55.8365 110.588C55.3885 110.588 54.9872 110.695 54.6325 110.91C54.2779 111.115 53.9979 111.414 53.7925 111.806C53.5872 112.189 53.4845 112.632 53.4845 113.136C53.4845 113.649 53.5872 114.097 53.7925 114.48C53.9979 114.863 54.2779 115.161 54.6325 115.376C54.9872 115.581 55.3885 115.684 55.8365 115.684C56.5459 115.684 57.1152 115.46 57.5445 115.012C57.9739 114.555 58.1885 113.929 58.1885 113.136C58.1885 112.352 57.9739 111.731 57.5445 111.274C57.1152 110.817 56.5459 110.588 55.8365 110.588ZM68.5178 112.772C68.5178 113.033 68.4991 113.262 68.4618 113.458H62.5258C62.5538 114.251 62.7731 114.839 63.1838 115.222C63.5945 115.605 64.1031 115.796 64.7098 115.796C65.2418 115.796 65.6898 115.661 66.0538 115.39C66.4271 115.119 66.6558 114.76 66.7398 114.312H68.4478C68.3451 114.853 68.1305 115.334 67.8038 115.754C67.4771 116.174 67.0525 116.505 66.5298 116.748C66.0071 116.981 65.4238 117.098 64.7798 117.098C64.0331 117.098 63.3705 116.939 62.7918 116.622C62.2225 116.305 61.7745 115.847 61.4478 115.25C61.1211 114.653 60.9578 113.948 60.9578 113.136C60.9578 112.333 61.1211 111.633 61.4478 111.036C61.7745 110.439 62.2225 109.981 62.7918 109.664C63.3705 109.347 64.0331 109.188 64.7798 109.188C65.5358 109.188 66.1938 109.347 66.7538 109.664C67.3231 109.972 67.7571 110.401 68.0558 110.952C68.3638 111.493 68.5178 112.1 68.5178 112.772ZM66.9078 112.73C66.9265 112.226 66.8378 111.806 66.6418 111.47C66.4551 111.125 66.1938 110.873 65.8578 110.714C65.5311 110.546 65.1718 110.462 64.7798 110.462C64.1545 110.462 63.6318 110.653 63.2118 111.036C62.7918 111.419 62.5631 111.983 62.5258 112.73H66.9078ZM76.434 109.188C77.134 109.188 77.7314 109.361 78.226 109.706C78.7207 110.051 79.0707 110.509 79.276 111.078V109.286H80.872V117H79.276V115.208C79.0707 115.777 78.7207 116.235 78.226 116.58C77.7314 116.925 77.134 117.098 76.434 117.098C75.762 117.098 75.16 116.939 74.628 116.622C74.1054 116.305 73.6947 115.847 73.396 115.25C73.0974 114.653 72.948 113.948 72.948 113.136C72.948 112.333 73.0974 111.633 73.396 111.036C73.6947 110.439 74.1054 109.981 74.628 109.664C75.16 109.347 75.762 109.188 76.434 109.188ZM76.924 110.588C76.2147 110.588 75.6454 110.817 75.216 111.274C74.796 111.722 74.586 112.343 74.586 113.136C74.586 113.929 74.796 114.555 75.216 115.012C75.6454 115.46 76.2147 115.684 76.924 115.684C77.372 115.684 77.7734 115.581 78.128 115.376C78.4827 115.161 78.7627 114.863 78.968 114.48C79.1734 114.097 79.276 113.649 79.276 113.136C79.276 112.632 79.1734 112.189 78.968 111.806C78.7627 111.414 78.4827 111.115 78.128 110.91C77.7734 110.695 77.372 110.588 76.924 110.588ZM87.0993 109.16C87.9953 109.16 88.714 109.449 89.2553 110.028C89.7966 110.607 90.0673 111.433 90.0673 112.506V117H88.4713V112.674C88.4713 111.983 88.294 111.451 87.9393 111.078C87.5846 110.695 87.0993 110.504 86.4833 110.504C85.8486 110.504 85.34 110.709 84.9573 111.12C84.5746 111.521 84.3833 112.114 84.3833 112.898V117H82.7873V109.286H84.3833V110.98C84.5886 110.401 84.934 109.953 85.4193 109.636C85.9046 109.319 86.4646 109.16 87.0993 109.16ZM95.0278 109.188C95.7278 109.188 96.3251 109.361 96.8198 109.706C97.3144 110.051 97.6598 110.509 97.8558 111.078V106.64H99.4658V117H97.8558V115.208C97.6598 115.777 97.3144 116.235 96.8198 116.58C96.3251 116.925 95.7278 117.098 95.0278 117.098C94.3558 117.098 93.7538 116.939 93.2218 116.622C92.6991 116.305 92.2884 115.847 91.9898 115.25C91.6911 114.653 91.5418 113.948 91.5418 113.136C91.5418 112.333 91.6911 111.633 91.9898 111.036C92.2884 110.439 92.6991 109.981 93.2218 109.664C93.7538 109.347 94.3558 109.188 95.0278 109.188ZM95.5178 110.588C94.8084 110.588 94.2391 110.817 93.8098 111.274C93.3898 111.722 93.1798 112.343 93.1798 113.136C93.1798 113.929 93.3898 114.555 93.8098 115.012C94.2391 115.46 94.8084 115.684 95.5178 115.684C95.9658 115.684 96.3671 115.581 96.7218 115.376C97.0764 115.161 97.3564 114.863 97.5618 114.48C97.7671 114.097 97.8698 113.649 97.8698 113.136C97.8698 112.632 97.7671 112.189 97.5618 111.806C97.3564 111.414 97.0764 111.115 96.7218 110.91C96.3671 110.695 95.9658 110.588 95.5178 110.588ZM3.59082 130.188C4.49615 130.188 5.21949 130.421 5.76082 130.888C6.31149 131.345 6.64749 131.961 6.76882 132.736H5.25682C5.19149 132.316 5.00949 131.98 4.71082 131.728C4.42149 131.467 4.03415 131.336 3.54882 131.336C3.14749 131.336 2.83482 131.434 2.61082 131.63C2.39615 131.817 2.28882 132.073 2.28882 132.4C2.28882 132.643 2.36815 132.839 2.52682 132.988C2.68549 133.137 2.88149 133.254 3.11482 133.338C3.35749 133.422 3.69815 133.515 4.13682 133.618C4.71549 133.749 5.18215 133.884 5.53682 134.024C5.90082 134.164 6.20882 134.388 6.46082 134.696C6.72215 134.995 6.85282 135.405 6.85282 135.928C6.85282 136.572 6.60549 137.095 6.11082 137.496C5.62549 137.897 4.96749 138.098 4.13682 138.098C3.17549 138.098 2.39615 137.874 1.79882 137.426C1.21082 136.978 0.856154 136.353 0.73482 135.55H2.28882C2.33549 135.97 2.52215 136.311 2.84882 136.572C3.17549 136.833 3.60482 136.964 4.13682 136.964C4.51949 136.964 4.81815 136.866 5.03282 136.67C5.25682 136.465 5.36882 136.208 5.36882 135.9C5.36882 135.629 5.28482 135.415 5.11682 135.256C4.94882 135.097 4.73882 134.976 4.48682 134.892C4.23482 134.799 3.88949 134.705 3.45082 134.612C2.89082 134.481 2.43349 134.351 2.07882 134.22C1.73349 134.089 1.43482 133.879 1.18282 133.59C0.940154 133.291 0.81882 132.89 0.81882 132.386C0.81882 131.733 1.06149 131.205 1.54682 130.804C2.04149 130.393 2.72282 130.188 3.59082 130.188ZM15.5653 130.286V138H13.9553V136.32C13.7593 136.889 13.4186 137.333 12.9333 137.65C12.448 137.958 11.8833 138.112 11.2393 138.112C10.3433 138.112 9.62464 137.823 9.0833 137.244C8.54197 136.665 8.2713 135.839 8.2713 134.766V130.286H9.8673V134.598C9.8673 135.298 10.0446 135.839 10.3993 136.222C10.754 136.595 11.2393 136.782 11.8553 136.782C12.49 136.782 12.9986 136.577 13.3813 136.166C13.764 135.755 13.9553 135.158 13.9553 134.374V130.286H15.5653ZM21.9007 130.188C22.5727 130.188 23.1701 130.347 23.6927 130.664C24.2247 130.981 24.6401 131.439 24.9387 132.036C25.2374 132.633 25.3867 133.333 25.3867 134.136C25.3867 134.948 25.2374 135.653 24.9387 136.25C24.6401 136.847 24.2247 137.305 23.6927 137.622C23.1701 137.939 22.5727 138.098 21.9007 138.098C21.2007 138.098 20.6034 137.925 20.1087 137.58C19.6141 137.235 19.2687 136.777 19.0727 136.208V138H17.4767V127.64H19.0727V132.078C19.2687 131.509 19.6141 131.051 20.1087 130.706C20.6034 130.361 21.2007 130.188 21.9007 130.188ZM21.4107 131.588C20.9627 131.588 20.5614 131.695 20.2067 131.91C19.8521 132.115 19.5721 132.414 19.3667 132.806C19.1614 133.189 19.0587 133.632 19.0587 134.136C19.0587 134.649 19.1614 135.097 19.3667 135.48C19.5721 135.863 19.8521 136.161 20.2067 136.376C20.5614 136.581 20.9627 136.684 21.4107 136.684C22.1201 136.684 22.6894 136.46 23.1187 136.012C23.5481 135.555 23.7627 134.929 23.7627 134.136C23.7627 133.352 23.5481 132.731 23.1187 132.274C22.6894 131.817 22.1201 131.588 21.4107 131.588ZM36.57 130.16C37.4847 130.16 38.2127 130.449 38.754 131.028C39.3047 131.607 39.58 132.433 39.58 133.506V138H37.984V133.674C37.984 133.002 37.816 132.484 37.48 132.12C37.144 131.747 36.682 131.56 36.094 131.56C35.4687 131.56 34.9693 131.761 34.596 132.162C34.232 132.554 34.05 133.133 34.05 133.898V138H32.454V133.674C32.454 133.002 32.286 132.484 31.95 132.12C31.614 131.747 31.152 131.56 30.564 131.56C29.9387 131.56 29.4393 131.761 29.066 132.162C28.702 132.554 28.52 133.133 28.52 133.898V138H26.924V130.286H28.52V131.896C28.716 131.336 29.0427 130.907 29.5 130.608C29.9573 130.309 30.494 130.16 31.11 130.16C31.754 130.16 32.3093 130.319 32.776 130.636C33.252 130.953 33.5973 131.411 33.812 132.008C34.036 131.429 34.3953 130.977 34.89 130.65C35.3847 130.323 35.9447 130.16 36.57 130.16ZM41.2195 128.046C41.2195 127.775 41.3129 127.551 41.4995 127.374C41.6862 127.197 41.9335 127.108 42.2415 127.108C42.5495 127.108 42.7969 127.197 42.9835 127.374C43.1795 127.551 43.2775 127.775 43.2775 128.046C43.2775 128.317 43.1795 128.536 42.9835 128.704C42.7969 128.872 42.5495 128.956 42.2415 128.956C41.9335 128.956 41.6862 128.872 41.4995 128.704C41.3129 128.536 41.2195 128.317 41.2195 128.046ZM43.0395 130.286V138H41.4435V130.286H43.0395ZM48.8489 136.614V138H47.8689C47.0475 138 46.4222 137.804 45.9929 137.412C45.5729 137.011 45.3629 136.348 45.3629 135.424V131.644H44.2569V130.286H45.3629V128.368H46.9729V130.286H48.8349V131.644H46.9729V135.452C46.9729 135.891 47.0522 136.194 47.2109 136.362C47.3789 136.53 47.6682 136.614 48.0789 136.614H48.8489ZM55.2212 131.798C55.4825 131.294 55.8558 130.897 56.3412 130.608C56.8265 130.309 57.3865 130.16 58.0212 130.16V131.896H57.5452C56.8452 131.896 56.2805 132.069 55.8512 132.414C55.4312 132.75 55.2212 133.31 55.2212 134.094V138H53.6252V130.286H55.2212V131.798ZM66.385 133.772C66.385 134.033 66.3663 134.262 66.329 134.458H60.393C60.421 135.251 60.6403 135.839 61.051 136.222C61.4616 136.605 61.9703 136.796 62.577 136.796C63.109 136.796 63.557 136.661 63.921 136.39C64.2943 136.119 64.523 135.76 64.607 135.312H66.315C66.2123 135.853 65.9976 136.334 65.671 136.754C65.3443 137.174 64.9196 137.505 64.397 137.748C63.8743 137.981 63.291 138.098 62.647 138.098C61.9003 138.098 61.2376 137.939 60.659 137.622C60.0896 137.305 59.6416 136.847 59.315 136.25C58.9883 135.653 58.825 134.948 58.825 134.136C58.825 133.333 58.9883 132.633 59.315 132.036C59.6416 131.439 60.0896 130.981 60.659 130.664C61.2376 130.347 61.9003 130.188 62.647 130.188C63.403 130.188 64.061 130.347 64.621 130.664C65.1903 130.972 65.6243 131.401 65.923 131.952C66.231 132.493 66.385 133.1 66.385 133.772ZM64.775 133.73C64.7936 133.226 64.705 132.806 64.509 132.47C64.3223 132.125 64.061 131.873 63.725 131.714C63.3983 131.546 63.039 131.462 62.647 131.462C62.0216 131.462 61.499 131.653 61.079 132.036C60.659 132.419 60.4303 132.983 60.393 133.73H64.775ZM71.132 130.202C71.7853 130.202 72.3453 130.351 72.812 130.65C73.2786 130.949 73.6286 131.364 73.862 131.896V130.286H75.458V141.668H73.862V136.306C73.6193 136.866 73.2646 137.305 72.798 137.622C72.3313 137.939 71.776 138.098 71.132 138.098C70.46 138.098 69.8486 137.935 69.298 137.608C68.7473 137.281 68.3133 136.824 67.996 136.236C67.688 135.639 67.534 134.948 67.534 134.164C67.534 133.38 67.688 132.689 67.996 132.092C68.3133 131.495 68.7473 131.033 69.298 130.706C69.8486 130.37 70.46 130.202 71.132 130.202ZM71.51 131.602C70.8286 131.602 70.2686 131.831 69.83 132.288C69.3913 132.736 69.172 133.361 69.172 134.164C69.172 134.967 69.3866 135.587 69.816 136.026C70.2546 136.465 70.8193 136.684 71.51 136.684C71.9393 136.684 72.3313 136.586 72.686 136.39C73.0406 136.185 73.3253 135.891 73.54 135.508C73.7546 135.125 73.862 134.668 73.862 134.136C73.862 133.613 73.7546 133.161 73.54 132.778C73.3253 132.395 73.0406 132.106 72.686 131.91C72.3313 131.705 71.9393 131.602 71.51 131.602ZM84.4852 130.286V138H82.8752V136.32C82.6792 136.889 82.3386 137.333 81.8532 137.65C81.3679 137.958 80.8032 138.112 80.1592 138.112C79.2632 138.112 78.5446 137.823 78.0032 137.244C77.4619 136.665 77.1912 135.839 77.1912 134.766V130.286H78.7872V134.598C78.7872 135.298 78.9646 135.839 79.3192 136.222C79.6739 136.595 80.1592 136.782 80.7752 136.782C81.4099 136.782 81.9186 136.577 82.3012 136.166C82.6839 135.755 82.8752 135.158 82.8752 134.374V130.286H84.4852ZM93.5647 133.772C93.5647 134.033 93.546 134.262 93.5087 134.458H87.5727C87.6007 135.251 87.82 135.839 88.2307 136.222C88.6413 136.605 89.15 136.796 89.7567 136.796C90.2887 136.796 90.7367 136.661 91.1007 136.39C91.474 136.119 91.7027 135.76 91.7867 135.312H93.4947C93.392 135.853 93.1773 136.334 92.8507 136.754C92.524 137.174 92.0993 137.505 91.5767 137.748C91.054 137.981 90.4707 138.098 89.8267 138.098C89.08 138.098 88.4173 137.939 87.8387 137.622C87.2693 137.305 86.8213 136.847 86.4947 136.25C86.168 135.653 86.0047 134.948 86.0047 134.136C86.0047 133.333 86.168 132.633 86.4947 132.036C86.8213 131.439 87.2693 130.981 87.8387 130.664C88.4173 130.347 89.08 130.188 89.8267 130.188C90.5827 130.188 91.2407 130.347 91.8007 130.664C92.37 130.972 92.804 131.401 93.1027 131.952C93.4107 132.493 93.5647 133.1 93.5647 133.772ZM91.9547 133.73C91.9733 133.226 91.8847 132.806 91.6887 132.47C91.502 132.125 91.2407 131.873 90.9047 131.714C90.578 131.546 90.2187 131.462 89.8267 131.462C89.2013 131.462 88.6787 131.653 88.2587 132.036C87.8387 132.419 87.61 132.983 87.5727 133.73H91.9547ZM97.6396 130.188C98.545 130.188 99.2683 130.421 99.8096 130.888C100.36 131.345 100.696 131.961 100.818 132.736H99.3056C99.2403 132.316 99.0583 131.98 98.7596 131.728C98.4703 131.467 98.083 131.336 97.5976 131.336C97.1963 131.336 96.8836 131.434 96.6596 131.63C96.445 131.817 96.3376 132.073 96.3376 132.4C96.3376 132.643 96.417 132.839 96.5756 132.988C96.7343 133.137 96.9303 133.254 97.1636 133.338C97.4063 133.422 97.747 133.515 98.1856 133.618C98.7643 133.749 99.231 133.884 99.5856 134.024C99.9496 134.164 100.258 134.388 100.51 134.696C100.771 134.995 100.902 135.405 100.902 135.928C100.902 136.572 100.654 137.095 100.16 137.496C99.6743 137.897 99.0163 138.098 98.1856 138.098C97.2243 138.098 96.445 137.874 95.8476 137.426C95.2596 136.978 94.905 136.353 94.7836 135.55H96.3376C96.3843 135.97 96.571 136.311 96.8976 136.572C97.2243 136.833 97.6536 136.964 98.1856 136.964C98.5683 136.964 98.867 136.866 99.0816 136.67C99.3056 136.465 99.4176 136.208 99.4176 135.9C99.4176 135.629 99.3336 135.415 99.1656 135.256C98.9976 135.097 98.7876 134.976 98.5356 134.892C98.2836 134.799 97.9383 134.705 97.4996 134.612C96.9396 134.481 96.4823 134.351 96.1276 134.22C95.7823 134.089 95.4836 133.879 95.2316 133.59C94.989 133.291 94.8676 132.89 94.8676 132.386C94.8676 131.733 95.1103 131.205 95.5956 130.804C96.0903 130.393 96.7716 130.188 97.6396 130.188ZM106.38 136.614V138H105.4C104.579 138 103.953 137.804 103.524 137.412C103.104 137.011 102.894 136.348 102.894 135.424V131.644H101.788V130.286H102.894V128.368H104.504V130.286H106.366V131.644H104.504V135.452C104.504 135.891 104.583 136.194 104.742 136.362C104.91 136.53 105.199 136.614 105.61 136.614H106.38Z" fill="#674034"/>
<path d="M214.481 107.018C215.695 107.018 216.703 107.326 217.505 107.942C218.308 108.558 218.849 109.393 219.129 110.448H217.435C217.202 109.851 216.829 109.379 216.315 109.034C215.811 108.679 215.191 108.502 214.453 108.502C213.865 108.502 213.338 108.647 212.871 108.936C212.414 109.225 212.05 109.641 211.779 110.182C211.518 110.714 211.387 111.339 211.387 112.058C211.387 112.767 211.518 113.393 211.779 113.934C212.05 114.466 212.414 114.877 212.871 115.166C213.338 115.455 213.865 115.6 214.453 115.6C215.191 115.6 215.811 115.427 216.315 115.082C216.829 114.727 217.202 114.256 217.435 113.668H219.129C218.849 114.723 218.308 115.558 217.505 116.174C216.703 116.781 215.695 117.084 214.481 117.084C213.548 117.084 212.722 116.874 212.003 116.454C211.285 116.025 210.729 115.432 210.337 114.676C209.945 113.911 209.749 113.038 209.749 112.058C209.749 111.078 209.945 110.21 210.337 109.454C210.729 108.689 211.285 108.091 212.003 107.662C212.722 107.233 213.548 107.018 214.481 107.018ZM224.25 109.188C224.997 109.188 225.669 109.347 226.266 109.664C226.863 109.981 227.33 110.439 227.666 111.036C228.002 111.633 228.17 112.333 228.17 113.136C228.17 113.948 228.002 114.653 227.666 115.25C227.33 115.847 226.863 116.305 226.266 116.622C225.669 116.939 224.997 117.098 224.25 117.098C223.503 117.098 222.831 116.939 222.234 116.622C221.646 116.305 221.179 115.847 220.834 115.25C220.498 114.643 220.33 113.939 220.33 113.136C220.33 112.333 220.498 111.633 220.834 111.036C221.179 110.439 221.646 109.981 222.234 109.664C222.831 109.347 223.503 109.188 224.25 109.188ZM224.25 110.574C223.839 110.574 223.461 110.667 223.116 110.854C222.771 111.041 222.491 111.33 222.276 111.722C222.071 112.105 221.968 112.576 221.968 113.136C221.968 113.705 222.071 114.181 222.276 114.564C222.491 114.947 222.771 115.231 223.116 115.418C223.461 115.605 223.839 115.698 224.25 115.698C224.661 115.698 225.039 115.605 225.384 115.418C225.729 115.231 226.005 114.947 226.21 114.564C226.425 114.181 226.532 113.705 226.532 113.136C226.532 112.576 226.425 112.105 226.21 111.722C226.005 111.33 225.729 111.041 225.384 110.854C225.039 110.667 224.661 110.574 224.25 110.574ZM239.35 109.16C240.265 109.16 240.993 109.449 241.534 110.028C242.085 110.607 242.36 111.433 242.36 112.506V117H240.764V112.674C240.764 112.002 240.596 111.484 240.26 111.12C239.924 110.747 239.462 110.56 238.874 110.56C238.249 110.56 237.75 110.761 237.376 111.162C237.012 111.554 236.83 112.133 236.83 112.898V117H235.234V112.674C235.234 112.002 235.066 111.484 234.73 111.12C234.394 110.747 233.932 110.56 233.344 110.56C232.719 110.56 232.22 110.761 231.846 111.162C231.482 111.554 231.3 112.133 231.3 112.898V117H229.704V109.286H231.3V110.896C231.496 110.336 231.823 109.907 232.28 109.608C232.738 109.309 233.274 109.16 233.89 109.16C234.534 109.16 235.09 109.319 235.556 109.636C236.032 109.953 236.378 110.411 236.592 111.008C236.816 110.429 237.176 109.977 237.67 109.65C238.165 109.323 238.725 109.16 239.35 109.16ZM253.87 109.16C254.784 109.16 255.512 109.449 256.054 110.028C256.604 110.607 256.88 111.433 256.88 112.506V117H255.284V112.674C255.284 112.002 255.116 111.484 254.78 111.12C254.444 110.747 253.982 110.56 253.394 110.56C252.768 110.56 252.269 110.761 251.896 111.162C251.532 111.554 251.35 112.133 251.35 112.898V117H249.754V112.674C249.754 112.002 249.586 111.484 249.25 111.12C248.914 110.747 248.452 110.56 247.864 110.56C247.238 110.56 246.739 110.761 246.366 111.162C246.002 111.554 245.82 112.133 245.82 112.898V117H244.224V109.286H245.82V110.896C246.016 110.336 246.342 109.907 246.8 109.608C247.257 109.309 247.794 109.16 248.41 109.16C249.054 109.16 249.609 109.319 250.076 109.636C250.552 109.953 250.897 110.411 251.112 111.008C251.336 110.429 251.695 109.977 252.19 109.65C252.684 109.323 253.244 109.16 253.87 109.16ZM265.855 109.286V117H264.245V115.32C264.049 115.889 263.709 116.333 263.223 116.65C262.738 116.958 262.173 117.112 261.529 117.112C260.633 117.112 259.915 116.823 259.373 116.244C258.832 115.665 258.561 114.839 258.561 113.766V109.286H260.157V113.598C260.157 114.298 260.335 114.839 260.689 115.222C261.044 115.595 261.529 115.782 262.145 115.782C262.78 115.782 263.289 115.577 263.671 115.166C264.054 114.755 264.245 114.158 264.245 113.374V109.286H265.855ZM272.079 109.16C272.975 109.16 273.693 109.449 274.235 110.028C274.776 110.607 275.047 111.433 275.047 112.506V117H273.451V112.674C273.451 111.983 273.273 111.451 272.919 111.078C272.564 110.695 272.079 110.504 271.463 110.504C270.828 110.504 270.319 110.709 269.937 111.12C269.554 111.521 269.363 112.114 269.363 112.898V117H267.767V109.286H269.363V110.98C269.568 110.401 269.913 109.953 270.399 109.636C270.884 109.319 271.444 109.16 272.079 109.16ZM276.689 107.046C276.689 106.775 276.783 106.551 276.969 106.374C277.156 106.197 277.403 106.108 277.711 106.108C278.019 106.108 278.267 106.197 278.453 106.374C278.649 106.551 278.747 106.775 278.747 107.046C278.747 107.317 278.649 107.536 278.453 107.704C278.267 107.872 278.019 107.956 277.711 107.956C277.403 107.956 277.156 107.872 276.969 107.704C276.783 107.536 276.689 107.317 276.689 107.046ZM278.509 109.286V117H276.913V109.286H278.509ZM283.871 109.188C284.869 109.188 285.695 109.454 286.349 109.986C287.002 110.509 287.408 111.223 287.567 112.128H285.873C285.779 111.643 285.551 111.265 285.187 110.994C284.832 110.714 284.384 110.574 283.843 110.574C283.227 110.574 282.713 110.793 282.303 111.232C281.892 111.661 281.687 112.296 281.687 113.136C281.687 113.976 281.892 114.615 282.303 115.054C282.713 115.493 283.227 115.712 283.843 115.712C284.384 115.712 284.832 115.572 285.187 115.292C285.551 115.012 285.779 114.629 285.873 114.144H287.567C287.408 115.049 287.002 115.768 286.349 116.3C285.695 116.832 284.869 117.098 283.871 117.098C283.124 117.098 282.461 116.939 281.883 116.622C281.313 116.305 280.865 115.847 280.539 115.25C280.212 114.653 280.049 113.948 280.049 113.136C280.049 112.333 280.212 111.633 280.539 111.036C280.865 110.439 281.313 109.981 281.883 109.664C282.461 109.347 283.124 109.188 283.871 109.188ZM292.203 109.188C292.903 109.188 293.5 109.361 293.995 109.706C294.489 110.051 294.839 110.509 295.045 111.078V109.286H296.641V117H295.045V115.208C294.839 115.777 294.489 116.235 293.995 116.58C293.5 116.925 292.903 117.098 292.203 117.098C291.531 117.098 290.929 116.939 290.397 116.622C289.874 116.305 289.463 115.847 289.165 115.25C288.866 114.653 288.717 113.948 288.717 113.136C288.717 112.333 288.866 111.633 289.165 111.036C289.463 110.439 289.874 109.981 290.397 109.664C290.929 109.347 291.531 109.188 292.203 109.188ZM292.693 110.588C291.983 110.588 291.414 110.817 290.985 111.274C290.565 111.722 290.355 112.343 290.355 113.136C290.355 113.929 290.565 114.555 290.985 115.012C291.414 115.46 291.983 115.684 292.693 115.684C293.141 115.684 293.542 115.581 293.897 115.376C294.251 115.161 294.531 114.863 294.737 114.48C294.942 114.097 295.045 113.649 295.045 113.136C295.045 112.632 294.942 112.189 294.737 111.806C294.531 111.414 294.251 111.115 293.897 110.91C293.542 110.695 293.141 110.588 292.693 110.588ZM302.434 115.614V117H301.454C300.633 117 300.007 116.804 299.578 116.412C299.158 116.011 298.948 115.348 298.948 114.424V110.644H297.842V109.286H298.948V107.368H300.558V109.286H302.42V110.644H300.558V114.452C300.558 114.891 300.637 115.194 300.796 115.362C300.964 115.53 301.253 115.614 301.664 115.614H302.434ZM311.097 112.772C311.097 113.033 311.078 113.262 311.041 113.458H305.105C305.133 114.251 305.352 114.839 305.763 115.222C306.174 115.605 306.682 115.796 307.289 115.796C307.821 115.796 308.269 115.661 308.633 115.39C309.006 115.119 309.235 114.76 309.319 114.312H311.027C310.924 114.853 310.71 115.334 310.383 115.754C310.056 116.174 309.632 116.505 309.109 116.748C308.586 116.981 308.003 117.098 307.359 117.098C306.612 117.098 305.95 116.939 305.371 116.622C304.802 116.305 304.354 115.847 304.027 115.25C303.7 114.653 303.537 113.948 303.537 113.136C303.537 112.333 303.7 111.633 304.027 111.036C304.354 110.439 304.802 109.981 305.371 109.664C305.95 109.347 306.612 109.188 307.359 109.188C308.115 109.188 308.773 109.347 309.333 109.664C309.902 109.972 310.336 110.401 310.635 110.952C310.943 111.493 311.097 112.1 311.097 112.772ZM309.487 112.73C309.506 112.226 309.417 111.806 309.221 111.47C309.034 111.125 308.773 110.873 308.437 110.714C308.11 110.546 307.751 110.462 307.359 110.462C306.734 110.462 306.211 110.653 305.791 111.036C305.371 111.419 305.142 111.983 305.105 112.73H309.487ZM326.727 109.286L324.585 117H322.821L320.917 111.036L318.985 117H317.235L315.093 109.286H316.703L318.173 115.53L320.105 109.286H321.785L323.745 115.53L325.215 109.286H326.727ZM327.59 107.046C327.59 106.775 327.683 106.551 327.87 106.374C328.056 106.197 328.304 106.108 328.612 106.108C328.92 106.108 329.167 106.197 329.354 106.374C329.55 106.551 329.648 106.775 329.648 107.046C329.648 107.317 329.55 107.536 329.354 107.704C329.167 107.872 328.92 107.956 328.612 107.956C328.304 107.956 328.056 107.872 327.87 107.704C327.683 107.536 327.59 107.317 327.59 107.046ZM329.41 109.286V117H327.814V109.286H329.41ZM335.219 115.614V117H334.239C333.418 117 332.792 116.804 332.363 116.412C331.943 116.011 331.733 115.348 331.733 114.424V110.644H330.627V109.286H331.733V107.368H333.343V109.286H335.205V110.644H333.343V114.452C333.343 114.891 333.422 115.194 333.581 115.362C333.749 115.53 334.038 115.614 334.449 115.614H335.219ZM341.026 109.16C341.922 109.16 342.641 109.449 343.182 110.028C343.723 110.607 343.994 111.433 343.994 112.506V117H342.398V112.674C342.398 111.983 342.221 111.451 341.866 111.078C341.511 110.695 341.026 110.504 340.41 110.504C339.775 110.504 339.267 110.709 338.884 111.12C338.501 111.521 338.31 112.114 338.31 112.898V117H336.714V106.64H338.31V110.98C338.515 110.401 338.861 109.953 339.346 109.636C339.831 109.319 340.391 109.16 341.026 109.16ZM236.558 130.188C237.258 130.188 237.855 130.361 238.35 130.706C238.845 131.051 239.19 131.509 239.386 132.078V127.64H240.996V138H239.386V136.208C239.19 136.777 238.845 137.235 238.35 137.58C237.855 137.925 237.258 138.098 236.558 138.098C235.886 138.098 235.284 137.939 234.752 137.622C234.229 137.305 233.819 136.847 233.52 136.25C233.221 135.653 233.072 134.948 233.072 134.136C233.072 133.333 233.221 132.633 233.52 132.036C233.819 131.439 234.229 130.981 234.752 130.664C235.284 130.347 235.886 130.188 236.558 130.188ZM237.048 131.588C236.339 131.588 235.769 131.817 235.34 132.274C234.92 132.722 234.71 133.343 234.71 134.136C234.71 134.929 234.92 135.555 235.34 136.012C235.769 136.46 236.339 136.684 237.048 136.684C237.496 136.684 237.897 136.581 238.252 136.376C238.607 136.161 238.887 135.863 239.092 135.48C239.297 135.097 239.4 134.649 239.4 134.136C239.4 133.632 239.297 133.189 239.092 132.806C238.887 132.414 238.607 132.115 238.252 131.91C237.897 131.695 237.496 131.588 237.048 131.588ZM250.079 133.772C250.079 134.033 250.061 134.262 250.023 134.458H244.087C244.115 135.251 244.335 135.839 244.745 136.222C245.156 136.605 245.665 136.796 246.271 136.796C246.803 136.796 247.251 136.661 247.615 136.39C247.989 136.119 248.217 135.76 248.301 135.312H250.009C249.907 135.853 249.692 136.334 249.365 136.754C249.039 137.174 248.614 137.505 248.091 137.748C247.569 137.981 246.985 138.098 246.341 138.098C245.595 138.098 244.932 137.939 244.353 137.622C243.784 137.305 243.336 136.847 243.009 136.25C242.683 135.653 242.519 134.948 242.519 134.136C242.519 133.333 242.683 132.633 243.009 132.036C243.336 131.439 243.784 130.981 244.353 130.664C244.932 130.347 245.595 130.188 246.341 130.188C247.097 130.188 247.755 130.347 248.315 130.664C248.885 130.972 249.319 131.401 249.617 131.952C249.925 132.493 250.079 133.1 250.079 133.772ZM248.469 133.73C248.488 133.226 248.399 132.806 248.203 132.47C248.017 132.125 247.755 131.873 247.419 131.714C247.093 131.546 246.733 131.462 246.341 131.462C245.716 131.462 245.193 131.653 244.773 132.036C244.353 132.419 244.125 132.983 244.087 133.73H248.469ZM254.154 130.188C255.06 130.188 255.783 130.421 256.324 130.888C256.875 131.345 257.211 131.961 257.332 132.736H255.82C255.755 132.316 255.573 131.98 255.274 131.728C254.985 131.467 254.598 131.336 254.112 131.336C253.711 131.336 253.398 131.434 253.174 131.63C252.96 131.817 252.852 132.073 252.852 132.4C252.852 132.643 252.932 132.839 253.09 132.988C253.249 133.137 253.445 133.254 253.678 133.338C253.921 133.422 254.262 133.515 254.7 133.618C255.279 133.749 255.746 133.884 256.1 134.024C256.464 134.164 256.772 134.388 257.024 134.696C257.286 134.995 257.416 135.405 257.416 135.928C257.416 136.572 257.169 137.095 256.674 137.496C256.189 137.897 255.531 138.098 254.7 138.098C253.739 138.098 252.96 137.874 252.362 137.426C251.774 136.978 251.42 136.353 251.298 135.55H252.852C252.899 135.97 253.086 136.311 253.412 136.572C253.739 136.833 254.168 136.964 254.7 136.964C255.083 136.964 255.382 136.866 255.596 136.67C255.82 136.465 255.932 136.208 255.932 135.9C255.932 135.629 255.848 135.415 255.68 135.256C255.512 135.097 255.302 134.976 255.05 134.892C254.798 134.799 254.453 134.705 254.014 134.612C253.454 134.481 252.997 134.351 252.642 134.22C252.297 134.089 251.998 133.879 251.746 133.59C251.504 133.291 251.382 132.89 251.382 132.386C251.382 131.733 251.625 131.205 252.11 130.804C252.605 130.393 253.286 130.188 254.154 130.188ZM258.793 128.046C258.793 127.775 258.886 127.551 259.073 127.374C259.259 127.197 259.507 127.108 259.815 127.108C260.123 127.108 260.37 127.197 260.557 127.374C260.753 127.551 260.851 127.775 260.851 128.046C260.851 128.317 260.753 128.536 260.557 128.704C260.37 128.872 260.123 128.956 259.815 128.956C259.507 128.956 259.259 128.872 259.073 128.704C258.886 128.536 258.793 128.317 258.793 128.046ZM260.613 130.286V138H259.017V130.286H260.613ZM265.638 130.188C266.338 130.188 266.935 130.361 267.43 130.706C267.925 131.051 268.275 131.509 268.48 132.078V130.286H270.076V138.084C270.076 138.803 269.927 139.437 269.628 139.988C269.339 140.548 268.919 140.987 268.368 141.304C267.817 141.621 267.164 141.78 266.408 141.78C265.325 141.78 264.448 141.523 263.776 141.01C263.113 140.497 262.698 139.801 262.53 138.924H264.112C264.243 139.381 264.495 139.736 264.868 139.988C265.241 140.249 265.717 140.38 266.296 140.38C266.931 140.38 267.453 140.184 267.864 139.792C268.275 139.4 268.48 138.831 268.48 138.084V136.208C268.275 136.777 267.925 137.235 267.43 137.58C266.935 137.925 266.338 138.098 265.638 138.098C264.966 138.098 264.364 137.939 263.832 137.622C263.309 137.305 262.899 136.847 262.6 136.25C262.301 135.653 262.152 134.948 262.152 134.136C262.152 133.333 262.301 132.633 262.6 132.036C262.899 131.439 263.309 130.981 263.832 130.664C264.364 130.347 264.966 130.188 265.638 130.188ZM266.128 131.588C265.419 131.588 264.849 131.817 264.42 132.274C264 132.722 263.79 133.343 263.79 134.136C263.79 134.929 264 135.555 264.42 136.012C264.849 136.46 265.419 136.684 266.128 136.684C266.576 136.684 266.977 136.581 267.332 136.376C267.687 136.161 267.967 135.863 268.172 135.48C268.377 135.097 268.48 134.649 268.48 134.136C268.48 133.632 268.377 133.189 268.172 132.806C267.967 132.414 267.687 132.115 267.332 131.91C266.977 131.695 266.576 131.588 266.128 131.588ZM276.303 130.16C277.199 130.16 277.918 130.449 278.459 131.028C279.001 131.607 279.271 132.433 279.271 133.506V138H277.675V133.674C277.675 132.983 277.498 132.451 277.143 132.078C276.789 131.695 276.303 131.504 275.687 131.504C275.053 131.504 274.544 131.709 274.161 132.12C273.779 132.521 273.587 133.114 273.587 133.898V138H271.991V130.286H273.587V131.98C273.793 131.401 274.138 130.953 274.623 130.636C275.109 130.319 275.669 130.16 276.303 130.16ZM288.297 136.614V138H287.317C286.496 138 285.87 137.804 285.441 137.412C285.021 137.011 284.811 136.348 284.811 135.424V131.644H283.705V130.286H284.811V128.368H286.421V130.286H288.283V131.644H286.421V135.452C286.421 135.891 286.5 136.194 286.659 136.362C286.827 136.53 287.116 136.614 287.527 136.614H288.297ZM296.96 133.772C296.96 134.033 296.942 134.262 296.904 134.458H290.968C290.996 135.251 291.216 135.839 291.626 136.222C292.037 136.605 292.546 136.796 293.152 136.796C293.684 136.796 294.132 136.661 294.496 136.39C294.87 136.119 295.098 135.76 295.182 135.312H296.89C296.788 135.853 296.573 136.334 296.246 136.754C295.92 137.174 295.495 137.505 294.972 137.748C294.45 137.981 293.866 138.098 293.222 138.098C292.476 138.098 291.813 137.939 291.234 137.622C290.665 137.305 290.217 136.847 289.89 136.25C289.564 135.653 289.4 134.948 289.4 134.136C289.4 133.333 289.564 132.633 289.89 132.036C290.217 131.439 290.665 130.981 291.234 130.664C291.813 130.347 292.476 130.188 293.222 130.188C293.978 130.188 294.636 130.347 295.196 130.664C295.766 130.972 296.2 131.401 296.498 131.952C296.806 132.493 296.96 133.1 296.96 133.772ZM295.35 133.73C295.369 133.226 295.28 132.806 295.084 132.47C294.898 132.125 294.636 131.873 294.3 131.714C293.974 131.546 293.614 131.462 293.222 131.462C292.597 131.462 292.074 131.653 291.654 132.036C291.234 132.419 291.006 132.983 290.968 133.73H295.35ZM301.595 130.188C302.295 130.188 302.892 130.361 303.387 130.706C303.882 131.051 304.232 131.509 304.437 132.078V130.286H306.033V138H304.437V136.208C304.232 136.777 303.882 137.235 303.387 137.58C302.892 137.925 302.295 138.098 301.595 138.098C300.923 138.098 300.321 137.939 299.789 137.622C299.266 137.305 298.856 136.847 298.557 136.25C298.258 135.653 298.109 134.948 298.109 134.136C298.109 133.333 298.258 132.633 298.557 132.036C298.856 131.439 299.266 130.981 299.789 130.664C300.321 130.347 300.923 130.188 301.595 130.188ZM302.085 131.588C301.376 131.588 300.806 131.817 300.377 132.274C299.957 132.722 299.747 133.343 299.747 134.136C299.747 134.929 299.957 135.555 300.377 136.012C300.806 136.46 301.376 136.684 302.085 136.684C302.533 136.684 302.934 136.581 303.289 136.376C303.644 136.161 303.924 135.863 304.129 135.48C304.334 135.097 304.437 134.649 304.437 134.136C304.437 133.632 304.334 133.189 304.129 132.806C303.924 132.414 303.644 132.115 303.289 131.91C302.934 131.695 302.533 131.588 302.085 131.588ZM317.594 130.16C318.509 130.16 319.237 130.449 319.778 131.028C320.329 131.607 320.604 132.433 320.604 133.506V138H319.008V133.674C319.008 133.002 318.84 132.484 318.504 132.12C318.168 131.747 317.706 131.56 317.118 131.56C316.493 131.56 315.994 131.761 315.62 132.162C315.256 132.554 315.074 133.133 315.074 133.898V138H313.478V133.674C313.478 133.002 313.31 132.484 312.974 132.12C312.638 131.747 312.176 131.56 311.588 131.56C310.963 131.56 310.464 131.761 310.09 132.162C309.726 132.554 309.544 133.133 309.544 133.898V138H307.948V130.286H309.544V131.896C309.74 131.336 310.067 130.907 310.524 130.608C310.982 130.309 311.518 130.16 312.134 130.16C312.778 130.16 313.334 130.319 313.8 130.636C314.276 130.953 314.622 131.411 314.836 132.008C315.06 131.429 315.42 130.977 315.914 130.65C316.409 130.323 316.969 130.16 317.594 130.16Z" fill="#674034"/>
<path d="M441.805 107.032C442.981 107.032 443.961 107.321 444.745 107.9C445.529 108.479 446.047 109.267 446.299 110.266H444.619C444.405 109.734 444.05 109.309 443.555 108.992C443.07 108.675 442.491 108.516 441.819 108.516C441.203 108.516 440.648 108.661 440.153 108.95C439.668 109.239 439.285 109.65 439.005 110.182C438.735 110.714 438.599 111.339 438.599 112.058C438.599 112.814 438.739 113.463 439.019 114.004C439.299 114.545 439.691 114.961 440.195 115.25C440.709 115.53 441.301 115.67 441.973 115.67C442.795 115.67 443.499 115.418 444.087 114.914C444.675 114.401 445.03 113.701 445.151 112.814H441.525V111.638H446.495V113.164C446.383 113.892 446.122 114.555 445.711 115.152C445.31 115.74 444.773 116.211 444.101 116.566C443.439 116.921 442.678 117.098 441.819 117.098C440.858 117.098 440.009 116.883 439.271 116.454C438.534 116.025 437.965 115.432 437.563 114.676C437.162 113.911 436.961 113.038 436.961 112.058C436.961 111.078 437.162 110.21 437.563 109.454C437.965 108.689 438.529 108.096 439.257 107.676C439.995 107.247 440.844 107.032 441.805 107.032ZM447.888 107.046C447.888 106.775 447.981 106.551 448.168 106.374C448.354 106.197 448.602 106.108 448.91 106.108C449.218 106.108 449.465 106.197 449.652 106.374C449.848 106.551 449.946 106.775 449.946 107.046C449.946 107.317 449.848 107.536 449.652 107.704C449.465 107.872 449.218 107.956 448.91 107.956C448.602 107.956 448.354 107.872 448.168 107.704C447.981 107.536 447.888 107.317 447.888 107.046ZM449.708 109.286V117H448.112V109.286H449.708ZM454.803 115.348L456.987 109.286H458.695L455.755 117H453.823L450.883 109.286H452.591L454.803 115.348ZM467.037 112.772C467.037 113.033 467.019 113.262 466.981 113.458H461.045C461.073 114.251 461.293 114.839 461.703 115.222C462.114 115.605 462.623 115.796 463.229 115.796C463.761 115.796 464.209 115.661 464.573 115.39C464.947 115.119 465.175 114.76 465.259 114.312H466.967C466.865 114.853 466.65 115.334 466.323 115.754C465.997 116.174 465.572 116.505 465.049 116.748C464.527 116.981 463.943 117.098 463.299 117.098C462.553 117.098 461.89 116.939 461.311 116.622C460.742 116.305 460.294 115.847 459.967 115.25C459.641 114.653 459.477 113.948 459.477 113.136C459.477 112.333 459.641 111.633 459.967 111.036C460.294 110.439 460.742 109.981 461.311 109.664C461.89 109.347 462.553 109.188 463.299 109.188C464.055 109.188 464.713 109.347 465.273 109.664C465.843 109.972 466.277 110.401 466.575 110.952C466.883 111.493 467.037 112.1 467.037 112.772ZM465.427 112.73C465.446 112.226 465.357 111.806 465.161 111.47C464.975 111.125 464.713 110.873 464.377 110.714C464.051 110.546 463.691 110.462 463.299 110.462C462.674 110.462 462.151 110.653 461.731 111.036C461.311 111.419 461.083 111.983 461.045 112.73H465.427ZM477.698 107.116V108.404H473.456V111.47H476.956V112.702H473.456V117H471.86V107.116H477.698ZM486.287 112.772C486.287 113.033 486.269 113.262 486.231 113.458H480.295C480.323 114.251 480.543 114.839 480.953 115.222C481.364 115.605 481.873 115.796 482.479 115.796C483.011 115.796 483.459 115.661 483.823 115.39C484.197 115.119 484.425 114.76 484.509 114.312H486.217C486.115 114.853 485.9 115.334 485.573 115.754C485.247 116.174 484.822 116.505 484.299 116.748C483.777 116.981 483.193 117.098 482.549 117.098C481.803 117.098 481.14 116.939 480.561 116.622C479.992 116.305 479.544 115.847 479.217 115.25C478.891 114.653 478.727 113.948 478.727 113.136C478.727 112.333 478.891 111.633 479.217 111.036C479.544 110.439 479.992 109.981 480.561 109.664C481.14 109.347 481.803 109.188 482.549 109.188C483.305 109.188 483.963 109.347 484.523 109.664C485.093 109.972 485.527 110.401 485.825 110.952C486.133 111.493 486.287 112.1 486.287 112.772ZM484.677 112.73C484.696 112.226 484.607 111.806 484.411 111.47C484.225 111.125 483.963 110.873 483.627 110.714C483.301 110.546 482.941 110.462 482.549 110.462C481.924 110.462 481.401 110.653 480.981 111.036C480.561 111.419 480.333 111.983 480.295 112.73H484.677ZM494.996 112.772C494.996 113.033 494.978 113.262 494.94 113.458H489.004C489.032 114.251 489.252 114.839 489.662 115.222C490.073 115.605 490.582 115.796 491.188 115.796C491.72 115.796 492.168 115.661 492.532 115.39C492.906 115.119 493.134 114.76 493.218 114.312H494.926C494.824 114.853 494.609 115.334 494.282 115.754C493.956 116.174 493.531 116.505 493.008 116.748C492.486 116.981 491.902 117.098 491.258 117.098C490.512 117.098 489.849 116.939 489.27 116.622C488.701 116.305 488.253 115.847 487.926 115.25C487.6 114.653 487.436 113.948 487.436 113.136C487.436 112.333 487.6 111.633 487.926 111.036C488.253 110.439 488.701 109.981 489.27 109.664C489.849 109.347 490.512 109.188 491.258 109.188C492.014 109.188 492.672 109.347 493.232 109.664C493.802 109.972 494.236 110.401 494.534 110.952C494.842 111.493 494.996 112.1 494.996 112.772ZM493.386 112.73C493.405 112.226 493.316 111.806 493.12 111.47C492.934 111.125 492.672 110.873 492.336 110.714C492.01 110.546 491.65 110.462 491.258 110.462C490.633 110.462 490.11 110.653 489.69 111.036C489.27 111.419 489.042 111.983 489.004 112.73H493.386ZM499.631 109.188C500.331 109.188 500.929 109.361 501.423 109.706C501.918 110.051 502.263 110.509 502.459 111.078V106.64H504.069V117H502.459V115.208C502.263 115.777 501.918 116.235 501.423 116.58C500.929 116.925 500.331 117.098 499.631 117.098C498.959 117.098 498.357 116.939 497.825 116.622C497.303 116.305 496.892 115.847 496.593 115.25C496.295 114.653 496.145 113.948 496.145 113.136C496.145 112.333 496.295 111.633 496.593 111.036C496.892 110.439 497.303 109.981 497.825 109.664C498.357 109.347 498.959 109.188 499.631 109.188ZM500.121 110.588C499.412 110.588 498.843 110.817 498.413 111.274C497.993 111.722 497.783 112.343 497.783 113.136C497.783 113.929 497.993 114.555 498.413 115.012C498.843 115.46 499.412 115.684 500.121 115.684C500.569 115.684 500.971 115.581 501.325 115.376C501.68 115.161 501.96 114.863 502.165 114.48C502.371 114.097 502.473 113.649 502.473 113.136C502.473 112.632 502.371 112.189 502.165 111.806C501.96 111.414 501.68 111.115 501.325 110.91C500.971 110.695 500.569 110.588 500.121 110.588ZM510.409 109.188C511.081 109.188 511.678 109.347 512.201 109.664C512.733 109.981 513.148 110.439 513.447 111.036C513.745 111.633 513.895 112.333 513.895 113.136C513.895 113.948 513.745 114.653 513.447 115.25C513.148 115.847 512.733 116.305 512.201 116.622C511.678 116.939 511.081 117.098 510.409 117.098C509.709 117.098 509.111 116.925 508.617 116.58C508.122 116.235 507.777 115.777 507.581 115.208V117H505.985V106.64H507.581V111.078C507.777 110.509 508.122 110.051 508.617 109.706C509.111 109.361 509.709 109.188 510.409 109.188ZM509.919 110.588C509.471 110.588 509.069 110.695 508.715 110.91C508.36 111.115 508.08 111.414 507.875 111.806C507.669 112.189 507.567 112.632 507.567 113.136C507.567 113.649 507.669 114.097 507.875 114.48C508.08 114.863 508.36 115.161 508.715 115.376C509.069 115.581 509.471 115.684 509.919 115.684C510.628 115.684 511.197 115.46 511.627 115.012C512.056 114.555 512.271 113.929 512.271 113.136C512.271 112.352 512.056 111.731 511.627 111.274C511.197 110.817 510.628 110.588 509.919 110.588ZM518.526 109.188C519.226 109.188 519.823 109.361 520.318 109.706C520.812 110.051 521.162 110.509 521.368 111.078V109.286H522.964V117H521.368V115.208C521.162 115.777 520.812 116.235 520.318 116.58C519.823 116.925 519.226 117.098 518.526 117.098C517.854 117.098 517.252 116.939 516.72 116.622C516.197 116.305 515.786 115.847 515.488 115.25C515.189 114.653 515.04 113.948 515.04 113.136C515.04 112.333 515.189 111.633 515.488 111.036C515.786 110.439 516.197 109.981 516.72 109.664C517.252 109.347 517.854 109.188 518.526 109.188ZM519.016 110.588C518.306 110.588 517.737 110.817 517.308 111.274C516.888 111.722 516.678 112.343 516.678 113.136C516.678 113.929 516.888 114.555 517.308 115.012C517.737 115.46 518.306 115.684 519.016 115.684C519.464 115.684 519.865 115.581 520.22 115.376C520.574 115.161 520.854 114.863 521.06 114.48C521.265 114.097 521.368 113.649 521.368 113.136C521.368 112.632 521.265 112.189 521.06 111.806C520.854 111.414 520.574 111.115 520.22 110.91C519.865 110.695 519.464 110.588 519.016 110.588ZM528.309 109.188C529.308 109.188 530.134 109.454 530.787 109.986C531.44 110.509 531.846 111.223 532.005 112.128H530.311C530.218 111.643 529.989 111.265 529.625 110.994C529.27 110.714 528.822 110.574 528.281 110.574C527.665 110.574 527.152 110.793 526.741 111.232C526.33 111.661 526.125 112.296 526.125 113.136C526.125 113.976 526.33 114.615 526.741 115.054C527.152 115.493 527.665 115.712 528.281 115.712C528.822 115.712 529.27 115.572 529.625 115.292C529.989 115.012 530.218 114.629 530.311 114.144H532.005C531.846 115.049 531.44 115.768 530.787 116.3C530.134 116.832 529.308 117.098 528.309 117.098C527.562 117.098 526.9 116.939 526.321 116.622C525.752 116.305 525.304 115.847 524.977 115.25C524.65 114.653 524.487 113.948 524.487 113.136C524.487 112.333 524.65 111.633 524.977 111.036C525.304 110.439 525.752 109.981 526.321 109.664C526.9 109.347 527.562 109.188 528.309 109.188ZM537.915 117L535.143 113.57V117H533.547V106.64H535.143V112.576L537.887 109.286H539.805L536.445 113.122L539.889 117H537.915Z" fill="#674034"/>
<path d="M674.725 115.012H670.651L669.951 117H668.285L671.771 107.256H673.619L677.105 117H675.425L674.725 115.012ZM674.277 113.71L672.695 109.188L671.099 113.71H674.277ZM680.216 110.42C680.487 110.065 680.856 109.767 681.322 109.524C681.789 109.281 682.316 109.16 682.904 109.16C683.576 109.16 684.188 109.328 684.738 109.664C685.298 109.991 685.737 110.453 686.054 111.05C686.372 111.647 686.53 112.333 686.53 113.108C686.53 113.883 686.372 114.578 686.054 115.194C685.737 115.801 685.298 116.277 684.738 116.622C684.188 116.958 683.576 117.126 682.904 117.126C682.316 117.126 681.794 117.009 681.336 116.776C680.879 116.533 680.506 116.235 680.216 115.88V120.668H678.62V109.286H680.216V110.42ZM684.906 113.108C684.906 112.576 684.794 112.119 684.57 111.736C684.356 111.344 684.066 111.05 683.702 110.854C683.348 110.649 682.965 110.546 682.554 110.546C682.153 110.546 681.77 110.649 681.406 110.854C681.052 111.059 680.762 111.358 680.538 111.75C680.324 112.142 680.216 112.604 680.216 113.136C680.216 113.668 680.324 114.135 680.538 114.536C680.762 114.928 681.052 115.227 681.406 115.432C681.77 115.637 682.153 115.74 682.554 115.74C682.965 115.74 683.348 115.637 683.702 115.432C684.066 115.217 684.356 114.909 684.57 114.508C684.794 114.107 684.906 113.64 684.906 113.108ZM689.705 110.42C689.975 110.065 690.344 109.767 690.811 109.524C691.277 109.281 691.805 109.16 692.393 109.16C693.065 109.16 693.676 109.328 694.227 109.664C694.787 109.991 695.225 110.453 695.543 111.05C695.86 111.647 696.019 112.333 696.019 113.108C696.019 113.883 695.86 114.578 695.543 115.194C695.225 115.801 694.787 116.277 694.227 116.622C693.676 116.958 693.065 117.126 692.393 117.126C691.805 117.126 691.282 117.009 690.825 116.776C690.367 116.533 689.994 116.235 689.705 115.88V120.668H688.109V109.286H689.705V110.42ZM694.395 113.108C694.395 112.576 694.283 112.119 694.059 111.736C693.844 111.344 693.555 111.05 693.191 110.854C692.836 110.649 692.453 110.546 692.043 110.546C691.641 110.546 691.259 110.649 690.895 110.854C690.54 111.059 690.251 111.358 690.027 111.75C689.812 112.142 689.705 112.604 689.705 113.136C689.705 113.668 689.812 114.135 690.027 114.536C690.251 114.928 690.54 115.227 690.895 115.432C691.259 115.637 691.641 115.74 692.043 115.74C692.453 115.74 692.836 115.637 693.191 115.432C693.555 115.217 693.844 114.909 694.059 114.508C694.283 114.107 694.395 113.64 694.395 113.108ZM699.193 110.406C699.426 110.014 699.734 109.711 700.117 109.496C700.509 109.272 700.971 109.16 701.503 109.16V110.812H701.097C700.472 110.812 699.996 110.971 699.669 111.288C699.352 111.605 699.193 112.156 699.193 112.94V117H697.597V109.286H699.193V110.406ZM706.316 117.126C705.588 117.126 704.93 116.963 704.342 116.636C703.754 116.3 703.292 115.833 702.956 115.236C702.62 114.629 702.452 113.929 702.452 113.136C702.452 112.352 702.625 111.657 702.97 111.05C703.315 110.443 703.787 109.977 704.384 109.65C704.981 109.323 705.649 109.16 706.386 109.16C707.123 109.16 707.791 109.323 708.388 109.65C708.985 109.977 709.457 110.443 709.802 111.05C710.147 111.657 710.32 112.352 710.32 113.136C710.32 113.92 710.143 114.615 709.788 115.222C709.433 115.829 708.948 116.3 708.332 116.636C707.725 116.963 707.053 117.126 706.316 117.126ZM706.316 115.74C706.727 115.74 707.109 115.642 707.464 115.446C707.828 115.25 708.122 114.956 708.346 114.564C708.57 114.172 708.682 113.696 708.682 113.136C708.682 112.576 708.575 112.105 708.36 111.722C708.145 111.33 707.861 111.036 707.506 110.84C707.151 110.644 706.769 110.546 706.358 110.546C705.947 110.546 705.565 110.644 705.21 110.84C704.865 111.036 704.589 111.33 704.384 111.722C704.179 112.105 704.076 112.576 704.076 113.136C704.076 113.967 704.286 114.611 704.706 115.068C705.135 115.516 705.672 115.74 706.316 115.74ZM714.88 115.572L717.064 109.286H718.758L715.818 117H713.914L710.988 109.286H712.696L714.88 115.572ZM727.034 112.954C727.034 113.243 727.015 113.505 726.978 113.738H721.084C721.131 114.354 721.359 114.849 721.77 115.222C722.181 115.595 722.685 115.782 723.282 115.782C724.141 115.782 724.747 115.423 725.102 114.704H726.824C726.591 115.413 726.166 115.997 725.55 116.454C724.943 116.902 724.187 117.126 723.282 117.126C722.545 117.126 721.882 116.963 721.294 116.636C720.715 116.3 720.258 115.833 719.922 115.236C719.595 114.629 719.432 113.929 719.432 113.136C719.432 112.343 719.591 111.647 719.908 111.05C720.235 110.443 720.687 109.977 721.266 109.65C721.854 109.323 722.526 109.16 723.282 109.16C724.01 109.16 724.659 109.319 725.228 109.636C725.797 109.953 726.241 110.401 726.558 110.98C726.875 111.549 727.034 112.207 727.034 112.954ZM725.368 112.45C725.359 111.862 725.149 111.391 724.738 111.036C724.327 110.681 723.819 110.504 723.212 110.504C722.661 110.504 722.19 110.681 721.798 111.036C721.406 111.381 721.173 111.853 721.098 112.45H725.368ZM632.684 134.108C632.684 133.333 632.843 132.647 633.16 132.05C633.487 131.453 633.925 130.991 634.476 130.664C635.036 130.328 635.652 130.16 636.324 130.16C636.931 130.16 637.458 130.281 637.906 130.524C638.363 130.757 638.727 131.051 638.998 131.406V130.286H640.608V138H638.998V136.852C638.727 137.216 638.359 137.519 637.892 137.762C637.425 138.005 636.893 138.126 636.296 138.126C635.633 138.126 635.027 137.958 634.476 137.622C633.925 137.277 633.487 136.801 633.16 136.194C632.843 135.578 632.684 134.883 632.684 134.108ZM638.998 134.136C638.998 133.604 638.886 133.142 638.662 132.75C638.447 132.358 638.163 132.059 637.808 131.854C637.453 131.649 637.071 131.546 636.66 131.546C636.249 131.546 635.867 131.649 635.512 131.854C635.157 132.05 634.868 132.344 634.644 132.736C634.429 133.119 634.322 133.576 634.322 134.108C634.322 134.64 634.429 135.107 634.644 135.508C634.868 135.909 635.157 136.217 635.512 136.432C635.876 136.637 636.259 136.74 636.66 136.74C637.071 136.74 637.453 136.637 637.808 136.432C638.163 136.227 638.447 135.928 638.662 135.536C638.886 135.135 638.998 134.668 638.998 134.136ZM646.596 130.16C647.203 130.16 647.744 130.286 648.22 130.538C648.706 130.79 649.084 131.163 649.354 131.658C649.625 132.153 649.76 132.75 649.76 133.45V138H648.178V133.688C648.178 132.997 648.006 132.47 647.66 132.106C647.315 131.733 646.844 131.546 646.246 131.546C645.649 131.546 645.173 131.733 644.818 132.106C644.473 132.47 644.3 132.997 644.3 133.688V138H642.704V130.286H644.3V131.168C644.562 130.851 644.893 130.603 645.294 130.426C645.705 130.249 646.139 130.16 646.596 130.16ZM651.264 134.108C651.264 133.333 651.423 132.647 651.74 132.05C652.067 131.453 652.505 130.991 653.056 130.664C653.616 130.328 654.237 130.16 654.918 130.16C655.422 130.16 655.917 130.272 656.402 130.496C656.897 130.711 657.289 131 657.578 131.364V127.64H659.188V138H657.578V136.838C657.317 137.211 656.953 137.519 656.486 137.762C656.029 138.005 655.501 138.126 654.904 138.126C654.232 138.126 653.616 137.958 653.056 137.622C652.505 137.277 652.067 136.801 651.74 136.194C651.423 135.578 651.264 134.883 651.264 134.108ZM657.578 134.136C657.578 133.604 657.466 133.142 657.242 132.75C657.027 132.358 656.743 132.059 656.388 131.854C656.033 131.649 655.651 131.546 655.24 131.546C654.829 131.546 654.447 131.649 654.092 131.854C653.737 132.05 653.448 132.344 653.224 132.736C653.009 133.119 652.902 133.576 652.902 134.108C652.902 134.64 653.009 135.107 653.224 135.508C653.448 135.909 653.737 136.217 654.092 136.432C654.456 136.637 654.839 136.74 655.24 136.74C655.651 136.74 656.033 136.637 656.388 136.432C656.743 136.227 657.027 135.928 657.242 135.536C657.466 135.135 657.578 134.668 657.578 134.136ZM666.517 131.406C666.75 131.014 667.058 130.711 667.441 130.496C667.833 130.272 668.295 130.16 668.827 130.16V131.812H668.421C667.796 131.812 667.32 131.971 666.993 132.288C666.676 132.605 666.517 133.156 666.517 133.94V138H664.921V130.286H666.517V131.406ZM677.364 133.954C677.364 134.243 677.345 134.505 677.308 134.738H671.414C671.461 135.354 671.689 135.849 672.1 136.222C672.511 136.595 673.015 136.782 673.612 136.782C674.471 136.782 675.077 136.423 675.432 135.704H677.154C676.921 136.413 676.496 136.997 675.88 137.454C675.273 137.902 674.517 138.126 673.612 138.126C672.875 138.126 672.212 137.963 671.624 137.636C671.045 137.3 670.588 136.833 670.252 136.236C669.925 135.629 669.762 134.929 669.762 134.136C669.762 133.343 669.921 132.647 670.238 132.05C670.565 131.443 671.017 130.977 671.596 130.65C672.184 130.323 672.856 130.16 673.612 130.16C674.34 130.16 674.989 130.319 675.558 130.636C676.127 130.953 676.571 131.401 676.888 131.98C677.205 132.549 677.364 133.207 677.364 133.954ZM675.698 133.45C675.689 132.862 675.479 132.391 675.068 132.036C674.657 131.681 674.149 131.504 673.542 131.504C672.991 131.504 672.52 131.681 672.128 132.036C671.736 132.381 671.503 132.853 671.428 133.45H675.698ZM678.403 134.136C678.403 133.343 678.561 132.647 678.879 132.05C679.205 131.443 679.653 130.977 680.223 130.65C680.792 130.323 681.445 130.16 682.183 130.16C683.116 130.16 683.886 130.384 684.493 130.832C685.109 131.271 685.524 131.901 685.739 132.722H684.017C683.877 132.339 683.653 132.041 683.345 131.826C683.037 131.611 682.649 131.504 682.183 131.504C681.529 131.504 681.007 131.737 680.615 132.204C680.232 132.661 680.041 133.305 680.041 134.136C680.041 134.967 680.232 135.615 680.615 136.082C681.007 136.549 681.529 136.782 682.183 136.782C683.107 136.782 683.718 136.376 684.017 135.564H685.739C685.515 136.348 685.095 136.973 684.479 137.44C683.863 137.897 683.097 138.126 682.183 138.126C681.445 138.126 680.792 137.963 680.223 137.636C679.653 137.3 679.205 136.833 678.879 136.236C678.561 135.629 678.403 134.929 678.403 134.136ZM694.399 133.954C694.399 134.243 694.381 134.505 694.343 134.738H688.449C688.496 135.354 688.725 135.849 689.135 136.222C689.546 136.595 690.05 136.782 690.647 136.782C691.506 136.782 692.113 136.423 692.467 135.704H694.189C693.956 136.413 693.531 136.997 692.915 137.454C692.309 137.902 691.553 138.126 690.647 138.126C689.91 138.126 689.247 137.963 688.659 137.636C688.081 137.3 687.623 136.833 687.287 136.236C686.961 135.629 686.797 134.929 686.797 134.136C686.797 133.343 686.956 132.647 687.273 132.05C687.6 131.443 688.053 130.977 688.631 130.65C689.219 130.323 689.891 130.16 690.647 130.16C691.375 130.16 692.024 130.319 692.593 130.636C693.163 130.953 693.606 131.401 693.923 131.98C694.241 132.549 694.399 133.207 694.399 133.954ZM692.733 133.45C692.724 132.862 692.514 132.391 692.103 132.036C691.693 131.681 691.184 131.504 690.577 131.504C690.027 131.504 689.555 131.681 689.163 132.036C688.771 132.381 688.538 132.853 688.463 133.45H692.733ZM696.782 129.264C696.493 129.264 696.25 129.166 696.054 128.97C695.858 128.774 695.76 128.531 695.76 128.242C695.76 127.953 695.858 127.71 696.054 127.514C696.25 127.318 696.493 127.22 696.782 127.22C697.062 127.22 697.3 127.318 697.496 127.514C697.692 127.71 697.79 127.953 697.79 128.242C697.79 128.531 697.692 128.774 697.496 128.97C697.3 129.166 697.062 129.264 696.782 129.264ZM697.566 130.286V138H695.97V130.286H697.566ZM702.643 136.572L704.827 130.286H706.521L703.581 138H701.677L698.751 130.286H700.459L702.643 136.572ZM714.798 133.954C714.798 134.243 714.779 134.505 714.742 134.738H708.848C708.894 135.354 709.123 135.849 709.534 136.222C709.944 136.595 710.448 136.782 711.046 136.782C711.904 136.782 712.511 136.423 712.866 135.704H714.588C714.354 136.413 713.93 136.997 713.314 137.454C712.707 137.902 711.951 138.126 711.046 138.126C710.308 138.126 709.646 137.963 709.058 137.636C708.479 137.3 708.022 136.833 707.686 136.236C707.359 135.629 707.196 134.929 707.196 134.136C707.196 133.343 707.354 132.647 707.672 132.05C707.998 131.443 708.451 130.977 709.03 130.65C709.618 130.323 710.29 130.16 711.046 130.16C711.774 130.16 712.422 130.319 712.992 130.636C713.561 130.953 714.004 131.401 714.322 131.98C714.639 132.549 714.798 133.207 714.798 133.954ZM713.132 133.45C713.122 132.862 712.912 132.391 712.502 132.036C712.091 131.681 711.582 131.504 710.976 131.504C710.425 131.504 709.954 131.681 709.562 132.036C709.17 132.381 708.936 132.853 708.862 133.45H713.132ZM719.473 134.108C719.473 133.333 719.632 132.647 719.949 132.05C720.276 131.453 720.714 130.991 721.265 130.664C721.825 130.328 722.446 130.16 723.127 130.16C723.631 130.16 724.126 130.272 724.611 130.496C725.106 130.711 725.498 131 725.787 131.364V127.64H727.397V138H725.787V136.838C725.526 137.211 725.162 137.519 724.695 137.762C724.238 138.005 723.71 138.126 723.113 138.126C722.441 138.126 721.825 137.958 721.265 137.622C720.714 137.277 720.276 136.801 719.949 136.194C719.632 135.578 719.473 134.883 719.473 134.108ZM725.787 134.136C725.787 133.604 725.675 133.142 725.451 132.75C725.236 132.358 724.952 132.059 724.597 131.854C724.242 131.649 723.86 131.546 723.449 131.546C723.038 131.546 722.656 131.649 722.301 131.854C721.946 132.05 721.657 132.344 721.433 132.736C721.218 133.119 721.111 133.576 721.111 134.108C721.111 134.64 721.218 135.107 721.433 135.508C721.657 135.909 721.946 136.217 722.301 136.432C722.665 136.637 723.048 136.74 723.449 136.74C723.86 136.74 724.242 136.637 724.597 136.432C724.952 136.227 725.236 135.928 725.451 135.536C725.675 135.135 725.787 134.668 725.787 134.136ZM736.563 133.954C736.563 134.243 736.545 134.505 736.507 134.738H730.613C730.66 135.354 730.889 135.849 731.299 136.222C731.71 136.595 732.214 136.782 732.811 136.782C733.67 136.782 734.277 136.423 734.631 135.704H736.353C736.12 136.413 735.695 136.997 735.079 137.454C734.473 137.902 733.717 138.126 732.811 138.126C732.074 138.126 731.411 137.963 730.823 137.636C730.245 137.3 729.787 136.833 729.451 136.236C729.125 135.629 728.961 134.929 728.961 134.136C728.961 133.343 729.12 132.647 729.437 132.05C729.764 131.443 730.217 130.977 730.795 130.65C731.383 130.323 732.055 130.16 732.811 130.16C733.539 130.16 734.188 130.319 734.757 130.636C735.327 130.953 735.77 131.401 736.087 131.98C736.405 132.549 736.563 133.207 736.563 133.954ZM734.897 133.45C734.888 132.862 734.678 132.391 734.267 132.036C733.857 131.681 733.348 131.504 732.741 131.504C732.191 131.504 731.719 131.681 731.327 132.036C730.935 132.381 730.702 132.853 730.627 133.45H734.897ZM740.934 138.126C740.327 138.126 739.781 138.019 739.296 137.804C738.82 137.58 738.442 137.281 738.162 136.908C737.882 136.525 737.733 136.101 737.714 135.634H739.366C739.394 135.961 739.548 136.236 739.828 136.46C740.117 136.675 740.477 136.782 740.906 136.782C741.354 136.782 741.699 136.698 741.942 136.53C742.194 136.353 742.32 136.129 742.32 135.858C742.32 135.569 742.18 135.354 741.9 135.214C741.629 135.074 741.195 134.92 740.598 134.752C740.019 134.593 739.548 134.439 739.184 134.29C738.82 134.141 738.503 133.912 738.232 133.604C737.971 133.296 737.84 132.89 737.84 132.386C737.84 131.975 737.961 131.602 738.204 131.266C738.447 130.921 738.792 130.65 739.24 130.454C739.697 130.258 740.22 130.16 740.808 130.16C741.685 130.16 742.39 130.384 742.922 130.832C743.463 131.271 743.753 131.873 743.79 132.638H742.194C742.166 132.293 742.026 132.017 741.774 131.812C741.522 131.607 741.181 131.504 740.752 131.504C740.332 131.504 740.01 131.583 739.786 131.742C739.562 131.901 739.45 132.111 739.45 132.372C739.45 132.577 739.525 132.75 739.674 132.89C739.823 133.03 740.005 133.142 740.22 133.226C740.435 133.301 740.752 133.399 741.172 133.52C741.732 133.669 742.189 133.823 742.544 133.982C742.908 134.131 743.221 134.355 743.482 134.654C743.743 134.953 743.879 135.349 743.888 135.844C743.888 136.283 743.767 136.675 743.524 137.02C743.281 137.365 742.936 137.636 742.488 137.832C742.049 138.028 741.531 138.126 740.934 138.126ZM746.425 129.264C746.135 129.264 745.893 129.166 745.697 128.97C745.501 128.774 745.403 128.531 745.403 128.242C745.403 127.953 745.501 127.71 745.697 127.514C745.893 127.318 746.135 127.22 746.425 127.22C746.705 127.22 746.943 127.318 747.139 127.514C747.335 127.71 747.433 127.953 747.433 128.242C747.433 128.531 747.335 128.774 747.139 128.97C746.943 129.166 746.705 129.264 746.425 129.264ZM747.209 130.286V138H745.613V130.286H747.209ZM752.412 130.16C753.009 130.16 753.537 130.281 753.994 130.524C754.461 130.757 754.825 131.051 755.086 131.406V130.286H756.696V138.126C756.696 138.835 756.547 139.465 756.248 140.016C755.949 140.576 755.515 141.015 754.946 141.332C754.386 141.649 753.714 141.808 752.93 141.808C751.885 141.808 751.017 141.561 750.326 141.066C749.635 140.581 749.243 139.918 749.15 139.078H750.732C750.853 139.479 751.11 139.801 751.502 140.044C751.903 140.296 752.379 140.422 752.93 140.422C753.574 140.422 754.092 140.226 754.484 139.834C754.885 139.442 755.086 138.873 755.086 138.126V136.838C754.815 137.202 754.447 137.51 753.98 137.762C753.523 138.005 753 138.126 752.412 138.126C751.74 138.126 751.124 137.958 750.564 137.622C750.013 137.277 749.575 136.801 749.248 136.194C748.931 135.578 748.772 134.883 748.772 134.108C748.772 133.333 748.931 132.647 749.248 132.05C749.575 131.453 750.013 130.991 750.564 130.664C751.124 130.328 751.74 130.16 752.412 130.16ZM755.086 134.136C755.086 133.604 754.974 133.142 754.75 132.75C754.535 132.358 754.251 132.059 753.896 131.854C753.541 131.649 753.159 131.546 752.748 131.546C752.337 131.546 751.955 131.649 751.6 131.854C751.245 132.05 750.956 132.344 750.732 132.736C750.517 133.119 750.41 133.576 750.41 134.108C750.41 134.64 750.517 135.107 750.732 135.508C750.956 135.909 751.245 136.217 751.6 136.432C751.964 136.637 752.347 136.74 752.748 136.74C753.159 136.74 753.541 136.637 753.896 136.432C754.251 136.227 754.535 135.928 754.75 135.536C754.974 135.135 755.086 134.668 755.086 134.136ZM762.684 130.16C763.291 130.16 763.832 130.286 764.308 130.538C764.794 130.79 765.172 131.163 765.442 131.658C765.713 132.153 765.848 132.75 765.848 133.45V138H764.266V133.688C764.266 132.997 764.094 132.47 763.748 132.106C763.403 131.733 762.932 131.546 762.334 131.546C761.737 131.546 761.261 131.733 760.906 132.106C760.561 132.47 760.388 132.997 760.388 133.688V138H758.792V130.286H760.388V131.168C760.65 130.851 760.981 130.603 761.382 130.426C761.793 130.249 762.227 130.16 762.684 130.16Z" fill="#674034"/>
<path d="M876.009 108.404V111.4H879.649V112.632H876.009V115.698H880.069V117H874.413V107.116H880.069V108.404H876.009ZM885.93 109.16C886.826 109.16 887.545 109.449 888.086 110.028C888.628 110.607 888.898 111.433 888.898 112.506V117H887.302V112.674C887.302 111.983 887.125 111.451 886.77 111.078C886.416 110.695 885.93 110.504 885.314 110.504C884.68 110.504 884.171 110.709 883.788 111.12C883.406 111.521 883.214 112.114 883.214 112.898V117H881.618V109.286H883.214V110.98C883.42 110.401 883.765 109.953 884.25 109.636C884.736 109.319 885.296 109.16 885.93 109.16ZM891.633 107.956C891.325 107.956 891.073 107.872 890.877 107.704C890.69 107.536 890.597 107.317 890.597 107.046C890.597 106.775 890.69 106.551 890.877 106.374C891.073 106.197 891.325 106.108 891.633 106.108C891.941 106.108 892.188 106.197 892.375 106.374C892.561 106.551 892.655 106.775 892.655 107.046C892.655 107.317 892.561 107.536 892.375 107.704C892.188 107.872 891.941 107.956 891.633 107.956ZM889.393 119.268H889.939C890.247 119.268 890.471 119.198 890.611 119.058C890.76 118.927 890.835 118.699 890.835 118.372V109.286H892.445V118.386C892.445 119.907 891.679 120.668 890.149 120.668H889.393V119.268ZM897.875 109.188C898.622 109.188 899.294 109.347 899.891 109.664C900.488 109.981 900.955 110.439 901.291 111.036C901.627 111.633 901.795 112.333 901.795 113.136C901.795 113.948 901.627 114.653 901.291 115.25C900.955 115.847 900.488 116.305 899.891 116.622C899.294 116.939 898.622 117.098 897.875 117.098C897.128 117.098 896.456 116.939 895.859 116.622C895.271 116.305 894.804 115.847 894.459 115.25C894.123 114.643 893.955 113.939 893.955 113.136C893.955 112.333 894.123 111.633 894.459 111.036C894.804 110.439 895.271 109.981 895.859 109.664C896.456 109.347 897.128 109.188 897.875 109.188ZM897.875 110.574C897.464 110.574 897.086 110.667 896.741 110.854C896.396 111.041 896.116 111.33 895.901 111.722C895.696 112.105 895.593 112.576 895.593 113.136C895.593 113.705 895.696 114.181 895.901 114.564C896.116 114.947 896.396 115.231 896.741 115.418C897.086 115.605 897.464 115.698 897.875 115.698C898.286 115.698 898.664 115.605 899.009 115.418C899.354 115.231 899.63 114.947 899.835 114.564C900.05 114.181 900.157 113.705 900.157 113.136C900.157 112.576 900.05 112.105 899.835 111.722C899.63 111.33 899.354 111.041 899.009 110.854C898.664 110.667 898.286 110.574 897.875 110.574ZM904.239 109.286L906.549 114.956L908.691 109.286H910.469L905.807 120.668H904.029L905.695 116.818L902.447 109.286H904.239Z" fill="#674034"/>
<path d="M45.3101 41.1328H39.9124C38.3429 41.1328 37.0659 39.8515 37.0659 38.2764V22.0277C37.0659 21.6635 36.7708 21.3685 36.4067 21.3685C36.0427 21.3685 35.7476 21.6635 35.7476 22.0277V38.2764C35.7476 40.5783 37.6159 42.4512 39.9124 42.4512H45.3101C45.6741 42.4512 45.9692 42.1561 45.9692 41.792C45.9692 41.4279 45.6741 41.1328 45.3101 41.1328Z" fill="#DD127B"/>
<path d="M41.4155 13.8411H52.2798C52.6438 13.8411 52.9389 13.5461 52.9389 13.1819C52.9389 12.8178 52.6438 12.5228 52.2798 12.5228H41.4155C41.0515 12.5228 40.7563 12.8178 40.7563 13.1819C40.7563 13.5461 41.0515 13.8411 41.4155 13.8411Z" fill="#DD127B"/>
<path d="M41.4155 28.3467C41.0515 28.3467 40.7563 28.6417 40.7563 29.0059C40.7563 29.37 41.0515 29.665 41.4155 29.665H56.6743C57.0383 29.665 57.3335 29.37 57.3335 29.0059C57.3335 28.6417 57.0383 28.3467 56.6743 28.3467H41.4155Z" fill="#DD127B"/>
<path d="M41.2402 19.1158H60.9134C61.2774 19.1158 61.5726 18.8207 61.5726 18.4566C61.5726 18.0925 61.2774 17.7974 60.9134 17.7974H41.2402C40.8762 17.7974 40.5811 18.0925 40.5811 18.4566C40.5811 18.8207 40.8762 19.1158 41.2402 19.1158V19.1158Z" fill="#DD127B"/>
<path d="M41.2402 24.3904H60.9167C61.2807 24.3904 61.5758 24.0954 61.5758 23.7312C61.5758 23.3671 61.2807 23.0721 60.9167 23.0721H41.2402C40.8762 23.0721 40.5811 23.3671 40.5811 23.7312C40.5811 24.0954 40.8762 24.3904 41.2402 24.3904V24.3904Z" fill="#DD127B"/>
<path d="M75.2475 35.4858C75.2117 34.7388 74.8855 34.0095 74.3549 33.4873L68.1792 27.3475V13.3197C68.1792 12.4411 67.8383 11.6146 67.2192 10.9923L57.2451 0.968555C56.6326 0.353057 55.7839 0 54.9166 0H39.9124C37.6159 0 35.7476 1.87286 35.7476 4.17489V18.9515C35.7476 19.3156 36.0427 19.6107 36.4067 19.6107C36.7708 19.6107 37.0659 19.3156 37.0659 18.9515V4.17489C37.0659 2.5998 38.3429 1.31836 39.9124 1.31836H54.9166C55.0667 1.31836 55.2138 1.3369 55.3566 1.36951V5.07867C55.3566 5.4428 55.6517 5.73785 56.0158 5.73785C56.3798 5.73785 56.6749 5.4428 56.6749 5.07867V2.26468L65.9322 11.5681H58.3908C57.4447 11.5681 56.6749 10.7949 56.6749 9.84463V8.15484C56.6749 7.79071 56.3798 7.49566 56.0158 7.49566C55.6517 7.49566 55.3566 7.79071 55.3566 8.15484V9.84463C55.3566 11.5219 56.7177 12.8864 58.3908 12.8864H66.8119C66.8431 13.0272 66.8609 13.172 66.8609 13.3197V26.4553C65.7856 26.0783 64.539 26.3164 63.6804 27.1699C62.4929 28.3028 62.4929 30.3426 63.6804 31.4756L64.8084 32.597H60.9167C60.5527 32.597 60.2575 32.8921 60.2575 33.2562C60.2575 33.6204 60.5527 33.9154 60.9167 33.9154H66.4064C66.6734 33.9154 66.9139 33.7544 67.0157 33.5076C67.1176 33.2607 67.0605 32.977 66.8711 32.7887L64.61 30.5407C63.9373 29.8988 63.9374 28.7466 64.61 28.1047C65.2886 27.4301 66.3926 27.4301 67.071 28.1047L73.4276 34.4244C74.0949 35.0587 74.0979 36.2208 73.4252 36.858L67.0706 43.1758C66.3922 43.8514 65.2886 43.8515 64.61 43.1754C63.9373 42.5335 63.9374 41.3812 64.61 40.7393L66.8711 38.4913C67.0605 38.3032 67.1176 38.0194 67.0158 37.7725C66.914 37.5257 66.6734 37.3647 66.4065 37.3647H53.6116C52.6529 37.3647 51.8729 36.5909 51.8729 35.6399C51.8729 34.6889 52.653 33.9152 53.6116 33.9152H57.8406C58.2047 33.9152 58.4998 33.6202 58.4998 33.2561C58.4998 32.8919 58.2047 32.5969 57.8406 32.5969H53.6116C51.9259 32.5969 50.5546 33.962 50.5546 35.6399C50.5546 37.3179 51.9259 38.683 53.6116 38.683H64.8084L63.6805 39.8044C63.3034 40.1794 63.0376 40.6354 62.8978 41.1326H48.3862C48.0222 41.1326 47.7271 41.4277 47.7271 41.7918C47.7271 42.1559 48.0222 42.451 48.3862 42.451H62.8244C62.9263 43.0766 63.221 43.6533 63.6801 44.1098C64.8711 45.2964 66.8096 45.2966 68.0006 44.1102L74.3519 37.7958C74.9608 37.1983 75.2955 36.3326 75.2475 35.4858V35.4858Z" fill="#DD127B"/>
<path d="M277.5 14.0742C277.015 14.0742 276.621 14.468 276.621 14.9531C276.621 15.4382 277.015 15.832 277.5 15.832C277.985 15.832 278.379 15.4382 278.379 14.9531C278.379 14.468 277.985 14.0742 277.5 14.0742Z" fill="#DD127B"/>
<path d="M262.91 29.8945C263.395 29.8945 263.789 29.5007 263.789 29.0156C263.789 28.5305 263.395 28.1367 262.91 28.1367C262.425 28.1367 262.031 28.5305 262.031 29.0156C262.031 29.5007 262.425 29.8945 262.91 29.8945Z" fill="#DD127B"/>
<path d="M284.531 5.28516C276.619 5.28516 270.124 10.7406 269.622 17.6122C262.087 17.9902 255 23.4239 255 30.7734C255 33.8448 256.215 36.8207 258.428 39.1787C258.865 40.9832 258.334 42.8958 257.015 44.2145C256.764 44.4658 256.689 44.8438 256.825 45.1724C256.961 45.5006 257.281 45.7148 257.637 45.7148C260.143 45.7148 262.559 44.7319 264.354 42.9998C266.102 43.5959 268.384 43.957 270.469 43.957C278.38 43.957 284.874 38.503 285.378 31.6328C287.218 31.5511 289.132 31.2112 290.646 30.6952C292.441 32.4272 294.857 33.4102 297.363 33.4102C297.719 33.4102 298.039 33.1959 298.175 32.8677C298.311 32.5391 298.236 32.1611 297.985 31.9098C296.666 30.5911 296.135 28.6785 296.572 26.874C298.785 24.516 300 21.5401 300 18.4688C300 10.8322 292.368 5.28516 284.531 5.28516ZM270.469 42.1992C268.394 42.1992 266.031 41.792 264.447 41.162C264.108 41.0268 263.72 41.1157 263.474 41.3852C262.412 42.5453 261.033 43.3542 259.529 43.726C260.358 42.1388 260.569 40.2677 260.065 38.4948C260.025 38.355 259.951 38.2273 259.85 38.1233C257.856 36.0695 256.758 33.4593 256.758 30.7734C256.758 24.5799 263.036 19.3477 270.469 19.3477C277.487 19.3477 283.652 24.228 283.652 30.7734C283.652 37.0738 277.738 42.1992 270.469 42.1992V42.1992ZM295.15 25.8186C295.049 25.923 294.975 26.0507 294.935 26.1901C294.431 27.963 294.642 29.8341 295.471 31.4213C293.967 31.0498 292.588 30.2406 291.526 29.0805C291.28 28.8113 290.892 28.7221 290.553 28.8574C289.181 29.4032 287.223 29.7812 285.375 29.8726C285.118 26.5489 283.46 23.425 280.626 21.1055H292.09C292.575 21.1055 292.969 20.712 292.969 20.2266C292.969 19.7411 292.575 19.3477 292.09 19.3477H277.925C275.93 18.3321 273.69 17.7399 271.384 17.6156C271.889 11.7125 277.593 7.04297 284.531 7.04297C291.964 7.04297 298.242 12.2752 298.242 18.4688C298.242 21.1546 297.144 23.7648 295.15 25.8186V25.8186Z" fill="#DD127B"/>
<path d="M277.5 28.1367H266.426C265.94 28.1367 265.547 28.5302 265.547 29.0156C265.547 29.5011 265.94 29.8945 266.426 29.8945H277.5C277.985 29.8945 278.379 29.5011 278.379 29.0156C278.379 28.5302 277.985 28.1367 277.5 28.1367Z" fill="#DD127B"/>
<path d="M277.5 33.4102H262.91C262.425 33.4102 262.031 33.8036 262.031 34.2891C262.031 34.7745 262.425 35.168 262.91 35.168H277.5C277.985 35.168 278.379 34.7745 278.379 34.2891C278.379 33.8036 277.985 33.4102 277.5 33.4102Z" fill="#DD127B"/>
<path d="M292.09 14.0742H281.016C280.53 14.0742 280.137 14.4677 280.137 14.9531C280.137 15.4386 280.53 15.832 281.016 15.832H292.09C292.575 15.832 292.969 15.4386 292.969 14.9531C292.969 14.4677 292.575 14.0742 292.09 14.0742Z" fill="#DD127B"/>
<path d="M504.166 15.0312H502.848V11.9551C502.848 9.77425 501.073 8 498.893 8C496.712 8 494.938 9.77425 494.938 11.9551V13.0348C494.938 14.401 494.02 15.6173 492.706 15.9926L491.422 16.3596V16.3496C491.422 15.6215 490.832 15.0312 490.104 15.0312H484.83C484.102 15.0312 483.512 15.6215 483.512 16.3496V22.2383H467.955C465.774 22.2383 464 24.0125 464 26.1934V51.6816C464 52.1679 464.268 52.6146 464.696 52.844C464.891 52.9484 465.105 53 465.318 53C465.574 53 465.829 52.9256 466.05 52.7785L470.991 49.4844H496.08C498.261 49.4844 500.035 47.7101 500.035 45.5293V31.7305H504.166C506.831 31.7305 509 29.5619 509 26.8965V19.8652C509 17.1998 506.831 15.0312 504.166 15.0312ZM486.148 17.668H488.785V29.0938H486.148V17.668ZM497.398 45.5293C497.398 46.2562 496.807 46.8477 496.08 46.8477H470.592C470.332 46.8477 470.077 46.9247 469.861 47.0691L466.637 49.2183V26.1934C466.637 25.4664 467.228 24.875 467.955 24.875H483.512V30.4121C483.512 31.1402 484.102 31.7305 484.83 31.7305H490.104C490.781 31.7305 491.338 31.2195 491.413 30.5621C492.587 31.3111 493.968 31.7305 495.404 31.7305H497.398V45.5293ZM506.363 26.8965C506.363 28.1081 505.378 29.0938 504.166 29.0938H495.404C493.801 29.0938 492.304 28.2851 491.422 26.9628V19.1019L493.431 18.528C495.87 17.8309 497.574 15.572 497.574 13.0348V11.9551C497.574 11.2281 498.166 10.6367 498.893 10.6367C499.62 10.6367 500.211 11.2281 500.211 11.9551V16.3496C500.211 17.0777 500.801 17.668 501.529 17.668H504.166C505.378 17.668 506.363 18.6537 506.363 19.8652V26.8965Z" fill="#DD127B"/>
<path d="M470.592 32.7852H479.381C480.109 32.7852 480.699 32.1949 480.699 31.4668C480.699 30.7387 480.109 30.1484 479.381 30.1484H470.592C469.864 30.1484 469.273 30.7387 469.273 31.4668C469.273 32.1949 469.864 32.7852 470.592 32.7852Z" fill="#DD127B"/>
<path d="M493.443 35.4219H470.592C469.864 35.4219 469.273 36.0121 469.273 36.7402C469.273 37.4683 469.864 38.0586 470.592 38.0586H493.443C494.171 38.0586 494.762 37.4683 494.762 36.7402C494.762 36.0121 494.171 35.4219 493.443 35.4219Z" fill="#DD127B"/>
<path d="M493.443 40.6953H470.592C469.864 40.6953 469.273 41.2856 469.273 42.0137C469.273 42.7418 469.864 43.332 470.592 43.332H493.443C494.171 43.332 494.762 42.7418 494.762 42.0137C494.762 41.2856 494.171 40.6953 493.443 40.6953Z" fill="#DD127B"/>
<path d="M715.875 16H706.875V18.25H714.75V38.5H704.625C704.004 38.5 703.5 39.0036 703.5 39.625V43H694.5V39.625C694.5 39.0036 693.996 38.5 693.375 38.5H683.25V18.25H691.125V16H682.125C681.504 16 681 16.5036 681 17.125V49.75C681 50.9926 682.007 52 683.25 52H714.75C715.993 52 717 50.9926 717 49.75V17.125C717 16.5036 716.496 16 715.875 16ZM714.75 49.75H683.25V40.75H692.25V44.125C692.25 44.7464 692.754 45.25 693.375 45.25H704.625C705.246 45.25 705.75 44.7464 705.75 44.125V40.75H714.75V49.75Z" fill="#DD127B"/>
<path d="M698.999 32.875C699.298 32.8768 699.586 32.7593 699.798 32.5488L705.423 26.9238L703.826 25.3262L700.124 29.0388V16H697.874V29.0388L694.173 25.3262L692.576 26.9238L698.201 32.5488C698.413 32.7593 698.7 32.8768 698.999 32.875Z" fill="#DD127B"/>
<path d="M889.379 43.6836C889.379 44.1691 888.985 44.5625 888.5 44.5625C888.015 44.5625 887.621 44.1691 887.621 43.6836C887.621 43.1981 888.015 42.8047 888.5 42.8047C888.985 42.8047 889.379 43.1981 889.379 43.6836Z" fill="#DD127B"/>
<path d="M908.1 35.7734C908.1 32.8655 905.734 30.5 902.826 30.5C899.918 30.5 897.553 32.8655 897.553 35.7734C897.553 38.6814 899.918 41.0469 902.826 41.0469C905.734 41.0469 908.1 38.6814 908.1 35.7734ZM902.826 39.2891C900.888 39.2891 899.311 37.7118 899.311 35.7734C899.311 33.835 900.888 32.2578 902.826 32.2578C904.765 32.2578 906.342 33.835 906.342 35.7734C906.342 37.7118 904.765 39.2891 902.826 39.2891Z" fill="#DD127B"/>
<path d="M902.826 41.0469C900.611 41.0469 898.403 41.9663 896.898 43.457C894.918 40.8546 891.865 39.2891 888.5 39.2891C885.278 39.2891 882.156 40.7592 880.102 43.457C878.597 41.9666 876.389 41.0469 874.174 41.0469C869.743 41.0469 866 44.6693 866 48.957V50.7148C866 51.2003 866.393 51.5938 866.879 51.5938H910.121C910.607 51.5938 911 51.2003 911 50.7148V48.957C911 44.6693 907.257 41.0469 902.826 41.0469ZM867.758 48.957C867.758 45.622 870.696 42.8047 874.174 42.8047C876.077 42.8047 877.964 43.6479 879.132 44.9882C878.36 46.4803 877.953 48.1434 877.953 49.8359H867.758V48.957ZM888.5 41.0469C893.391 41.0469 897.289 45.015 897.289 49.8359H879.711C879.711 44.9508 883.689 41.0469 888.5 41.0469ZM909.242 49.8359H899.047C899.047 48.1434 898.64 46.4803 897.868 44.9882C899.036 43.6479 900.923 42.8047 902.826 42.8047C906.304 42.8047 909.242 45.622 909.242 48.957V49.8359Z" fill="#DD127B"/>
<path d="M879.447 35.7734C879.447 32.8655 877.082 30.5 874.174 30.5C871.266 30.5 868.9 32.8655 868.9 35.7734C868.9 38.6814 871.266 41.0469 874.174 41.0469C877.082 41.0469 879.447 38.6814 879.447 35.7734ZM874.174 39.2891C872.235 39.2891 870.658 37.7118 870.658 35.7734C870.658 33.835 872.235 32.2578 874.174 32.2578C876.112 32.2578 877.689 33.835 877.689 35.7734C877.689 37.7118 876.112 39.2891 874.174 39.2891Z" fill="#DD127B"/>
<path d="M895.531 32.2578C895.531 28.3807 892.377 25.2266 888.5 25.2266C884.623 25.2266 881.469 28.3807 881.469 32.2578C881.469 36.135 884.623 39.2891 888.5 39.2891C892.377 39.2891 895.531 36.135 895.531 32.2578ZM888.5 37.5312C885.592 37.5312 883.227 35.1658 883.227 32.2578C883.227 29.3499 885.592 26.9844 888.5 26.9844C891.408 26.9844 893.773 29.3499 893.773 32.2578C893.773 35.1658 891.408 37.5312 888.5 37.5312Z" fill="#DD127B"/>
<path d="M895.456 14.518C895.352 14.1997 895.077 13.968 894.746 13.9199L890.955 13.3696L889.258 9.89926C889.11 9.59748 888.804 9.40625 888.468 9.40625C888.133 9.40625 887.826 9.59748 887.679 9.89892L885.982 13.3696L882.191 13.9196C881.859 13.9676 881.584 14.1997 881.481 14.518C881.378 14.8362 881.464 15.1854 881.703 15.4189L884.449 18.0944L883.801 21.8726C883.744 22.2022 883.88 22.5356 884.151 22.732C884.42 22.9277 884.778 22.9555 885.076 22.7989L888.468 21.0154L891.862 22.7989C892.158 22.9548 892.516 22.9287 892.787 22.732C893.058 22.5353 893.193 22.2022 893.137 21.8723L892.488 18.0944L895.233 15.4189C895.473 15.1854 895.559 14.8362 895.456 14.518ZM890.93 17.1581C890.723 17.36 890.628 17.6511 890.677 17.9361L891.103 20.4146L888.877 19.2445C888.621 19.1099 888.315 19.1099 888.059 19.2445L885.834 20.4146L886.259 17.9361C886.308 17.6508 886.213 17.36 886.006 17.1581L884.206 15.4034L886.693 15.0422C886.981 15.0007 887.229 14.8194 887.357 14.5585L888.468 12.2857L889.58 14.5585C889.707 14.8198 889.956 15.0007 890.243 15.0422L892.731 15.4034L890.93 17.1581Z" fill="#DD127B"/>
<path d="M908.593 21.1053C908.489 20.7871 908.214 20.5553 907.883 20.5072L905.315 20.1341L904.166 17.8063C904.018 17.5063 903.713 17.3164 903.378 17.3164C903.378 17.3164 903.378 17.3164 903.378 17.3164C903.044 17.3164 902.738 17.5063 902.59 17.8063L901.441 20.1341L898.872 20.5072C898.541 20.5553 898.266 20.7871 898.163 21.1053C898.059 21.4236 898.145 21.7727 898.385 22.0062L900.243 23.8186L899.805 26.3764C899.748 26.7059 899.884 27.039 900.154 27.2357C900.425 27.4324 900.784 27.4585 901.08 27.303L903.378 26.0955L905.675 27.303C905.971 27.4585 906.331 27.4324 906.601 27.2357C906.872 27.0393 907.007 26.7059 906.951 26.3764L906.512 23.8186L908.371 22.0062C908.61 21.7727 908.696 21.4236 908.593 21.1053V21.1053ZM904.954 22.8827C904.747 23.0846 904.652 23.3754 904.701 23.6603L904.917 24.9183L903.787 24.3247C903.531 24.1901 903.225 24.1901 902.969 24.3247L901.838 24.9186L902.054 23.6603C902.103 23.3754 902.009 23.0846 901.802 22.8827L900.887 21.9907L902.151 21.8074C902.437 21.7659 902.685 21.586 902.813 21.3268L903.378 20.1818L903.943 21.3264C904.071 21.586 904.318 21.7659 904.605 21.8074L905.868 21.9907L904.954 22.8827Z" fill="#DD127B"/>
<path d="M878.71 21.1053C878.607 20.7871 878.332 20.5553 878 20.5072L875.432 20.1341L874.283 17.8063C874.135 17.5063 873.83 17.3164 873.495 17.3164C873.161 17.3164 872.855 17.5063 872.707 17.8063L871.558 20.1341L868.989 20.5072C868.658 20.5553 868.383 20.7871 868.28 21.1053C868.176 21.4236 868.263 21.7727 868.502 22.0062L870.361 23.8186L869.922 26.3763C869.866 26.7059 870.001 27.039 870.272 27.2357C870.542 27.4324 870.901 27.4585 871.197 27.303L873.495 26.0955L875.793 27.303C876.091 27.4595 876.449 27.4314 876.718 27.2357C876.989 27.0393 877.124 26.7059 877.068 26.3763L876.629 23.8186L878.488 22.0062C878.727 21.7727 878.813 21.4236 878.71 21.1053ZM875.071 22.8827C874.864 23.0846 874.77 23.3754 874.818 23.6603L875.034 24.9183L873.904 24.3247C873.648 24.1901 873.342 24.1901 873.087 24.3247L871.955 24.9186L872.171 23.6603C872.22 23.3754 872.126 23.0846 871.919 22.8827L871.004 21.9907L872.268 21.8074C872.554 21.7659 872.802 21.586 872.93 21.3268L873.495 20.1818L874.06 21.3264C874.188 21.586 874.435 21.7659 874.721 21.8074L875.985 21.9907L875.071 22.8827Z" fill="#DD127B"/>
<path d="M892.351 43.9555C891.946 43.6888 891.401 43.8017 891.134 44.2075C890.868 44.613 890.981 45.1578 891.386 45.4246C892.199 45.9585 892.849 46.7028 893.265 47.5769C893.473 48.0146 893.997 48.2017 894.436 47.9926C894.874 47.7842 895.06 47.2596 894.852 46.8216C894.298 45.657 893.433 44.6658 892.351 43.9555V43.9555Z" fill="#DD127B"/>
<defs>
<filter id="filter0_d" x="61" y="69" width="209" height="14" filterUnits="userSpaceOnUse" color-interpolation-filters="sRGB">
<feFlood flood-opacity="0" result="BackgroundImageFix"/>
<feColorMatrix in="SourceAlpha" type="matrix" values="0 0 0 0 0 0 0 0 0 0 0 0 0 0 0 0 0 0 127 0"/>
<feOffset/>
<feGaussianBlur stdDeviation="2"/>
<feColorMatrix type="matrix" values="0 0 0 0 1 0 0 0 0 0.291667 0 0 0 0 0.546667 0 0 0 0.7 0"/>
<feBlend mode="normal" in2="BackgroundImageFix" result="effect1_dropShadow"/>
<feBlend mode="normal" in="SourceGraphic" in2="effect1_dropShadow" result="shape"/>
</filter>
<filter id="filter1_d" x="285" y="69" width="194" height="14" filterUnits="userSpaceOnUse" color-interpolation-filters="sRGB">
<feFlood flood-opacity="0" result="BackgroundImageFix"/>
<feColorMatrix in="SourceAlpha" type="matrix" values="0 0 0 0 0 0 0 0 0 0 0 0 0 0 0 0 0 0 127 0"/>
<feOffset/>
<feGaussianBlur stdDeviation="2"/>
<feColorMatrix type="matrix" values="0 0 0 0 1 0 0 0 0 0.291667 0 0 0 0 0.546667 0 0 0 0.7 0"/>
<feBlend mode="normal" in2="BackgroundImageFix" result="effect1_dropShadow"/>
<feBlend mode="normal" in="SourceGraphic" in2="effect1_dropShadow" result="shape"/>
</filter>
<filter id="filter2_d" x="494" y="69" width="198" height="14" filterUnits="userSpaceOnUse" color-interpolation-filters="sRGB">
<feFlood flood-opacity="0" result="BackgroundImageFix"/>
<feColorMatrix in="SourceAlpha" type="matrix" values="0 0 0 0 0 0 0 0 0 0 0 0 0 0 0 0 0 0 127 0"/>
<feOffset/>
<feGaussianBlur stdDeviation="2"/>
<feColorMatrix type="matrix" values="0 0 0 0 1 0 0 0 0 0.291667 0 0 0 0 0.546667 0 0 0 0.7 0"/>
<feBlend mode="normal" in2="BackgroundImageFix" result="effect1_dropShadow"/>
<feBlend mode="normal" in="SourceGraphic" in2="effect1_dropShadow" result="shape"/>
</filter>
<filter id="filter3_d" x="707" y="69" width="179" height="14" filterUnits="userSpaceOnUse" color-interpolation-filters="sRGB">
<feFlood flood-opacity="0" result="BackgroundImageFix"/>
<feColorMatrix in="SourceAlpha" type="matrix" values="0 0 0 0 0 0 0 0 0 0 0 0 0 0 0 0 0 0 127 0"/>
<feOffset/>
<feGaussianBlur stdDeviation="2"/>
<feColorMatrix type="matrix" values="0 0 0 0 1 0 0 0 0 0.291667 0 0 0 0 0.546667 0 0 0 0.7 0"/>
<feBlend mode="normal" in2="BackgroundImageFix" result="effect1_dropShadow"/>
<feBlend mode="normal" in="SourceGraphic" in2="effect1_dropShadow" result="shape"/>
</filter>
</defs>
</svg>
