<?xml version="1.0" standalone="no"?>
<!DOCTYPE svg PUBLIC "-//W3C//DTD SVG 20010904//EN"
 "http://www.w3.org/TR/2001/REC-SVG-20010904/DTD/svg10.dtd">
<svg version="1.0" xmlns="http://www.w3.org/2000/svg"
 width="418.000000pt" height="418.000000pt" viewBox="0 0 418.000000 418.000000"
 preserveAspectRatio="xMidYMid meet">
<metadata>
Created by potrace 1.11, written by Peter Selinger 2001-2013
</metadata>
<g transform="translate(0.000000,418.000000) scale(0.100000,-0.100000)"
fill="#000000" stroke="none">
<path d="M1980 4160 c-25 -4 -69 -10 -99 -14 -29 -4 -56 -8 -60 -10 -3 -2 -24
-7 -45 -10 -175 -28 -490 -157 -681 -281 -416 -267 -718 -665 -869 -1142 -14
-46 -27 -93 -30 -105 -2 -13 -11 -57 -20 -98 -38 -190 -49 -377 -33 -583 35
-446 226 -888 527 -1221 295 -325 715 -569 1100 -639 14 -3 36 -8 50 -11 99
-23 196 -31 385 -31 208 0 298 9 450 46 44 11 90 22 102 24 64 15 243 84 349
136 132 64 310 178 408 261 128 109 298 291 364 391 l27 40 -78 72 c-145 136
-336 258 -555 355 -154 68 -358 135 -471 155 -19 3 -37 8 -41 10 -3 2 -33 7
-65 10 -33 4 -64 9 -68 12 -4 3 -79 6 -165 8 -220 5 -334 -23 -436 -107 -77
-63 -131 -179 -135 -288 -1 -24 -2 -24 -23 9 -18 28 -21 47 -21 130 1 113 12
159 52 223 60 95 176 154 366 187 94 16 147 19 360 15 138 -2 277 -5 310 -8
33 -3 141 -7 240 -10 240 -6 293 4 208 39 -43 18 -173 52 -223 59 -19 2 -51 7
-70 10 -79 14 -99 16 -185 23 -116 9 -389 10 -483 0 -245 -24 -445 -99 -551
-206 -84 -85 -114 -166 -112 -306 3 -165 26 -223 138 -340 l86 -90 -32 -3
c-76 -8 -275 65 -369 136 -212 157 -333 389 -333 634 1 319 143 515 424 583
97 24 200 32 352 30 127 -3 172 -6 300 -21 22 -2 60 -7 85 -10 25 -3 56 -7 70
-9 22 -3 138 -19 217 -30 16 -1 46 -6 68 -9 252 -37 463 -32 550 11 71 36 105
87 108 163 2 57 -16 87 -81 137 -73 56 -144 77 -257 77 -113 -1 -153 -10 -330
-79 -149 -57 -287 -101 -351 -111 -83 -13 -248 -7 -313 12 -63 17 -135 69
-146 105 -6 18 34 94 70 136 5 6 21 26 35 43 51 67 243 230 271 230 4 0 14 6
21 13 22 21 188 93 288 125 195 62 369 86 620 86 189 1 273 -6 432 -35 151
-27 146 -26 203 -39 28 -6 61 -14 75 -16 14 -3 40 -9 58 -14 17 -4 32 -6 32
-4 0 26 -126 231 -218 353 -63 85 -239 266 -322 332 -30 24 -57 46 -60 50 -19
21 -230 151 -323 198 -204 104 -402 165 -662 207 -59 9 -433 12 -485 4z"/>
</g>
</svg>
