<svg width="391" height="729" viewBox="0 0 391 729" fill="none" xmlns="http://www.w3.org/2000/svg">
<path d="M202.999 31L202.999 180.987C202.999 180.987 200.561 180.83 198.999 180.83C197.437 180.83 194.999 181 194.999 181L194.999 31C196.999 31.1423 197.433 31.1725 198.999 31.1709C200.565 31.1693 200.999 31.1423 202.999 31Z" fill="#FFE6EF"/>
<g filter="url(#filter0_d)">
<path d="M201.999 31L201.999 180.987C201.999 180.987 200.171 180.83 198.999 180.83C197.827 180.83 195.999 181 195.999 181L195.999 31C197.499 31.1423 197.825 31.1725 198.999 31.1709C200.174 31.1693 200.499 31.1423 201.999 31Z" fill="#FF4A8B"/>
</g>
<path d="M125.5 182.074C125.015 182.074 124.621 182.468 124.621 182.953C124.621 183.438 125.015 183.832 125.5 183.832C125.985 183.832 126.379 183.438 126.379 182.953C126.379 182.468 125.985 182.074 125.5 182.074Z" fill="#DD127B"/>
<path d="M110.91 197.895C111.395 197.895 111.789 197.501 111.789 197.016C111.789 196.531 111.395 196.137 110.91 196.137C110.425 196.137 110.031 196.531 110.031 197.016C110.031 197.501 110.425 197.895 110.91 197.895Z" fill="#DD127B"/>
<path d="M132.531 173.285C124.619 173.285 118.124 178.741 117.622 185.612C110.087 185.99 103 191.424 103 198.773C103 201.845 104.215 204.821 106.428 207.179C106.865 208.983 106.334 210.896 105.015 212.215C104.764 212.466 104.689 212.844 104.825 213.172C104.961 213.501 105.281 213.715 105.637 213.715C108.143 213.715 110.559 212.732 112.354 211C114.102 211.596 116.384 211.957 118.469 211.957C126.38 211.957 132.874 206.503 133.378 199.633C135.218 199.551 137.132 199.211 138.646 198.695C140.441 200.427 142.857 201.41 145.363 201.41C145.719 201.41 146.039 201.196 146.175 200.868C146.311 200.539 146.236 200.161 145.985 199.91C144.666 198.591 144.135 196.678 144.572 194.874C146.785 192.516 148 189.54 148 186.469C148 178.832 140.368 173.285 132.531 173.285ZM118.469 210.199C116.394 210.199 114.031 209.792 112.447 209.162C112.108 209.027 111.72 209.116 111.474 209.385C110.412 210.545 109.033 211.354 107.529 211.726C108.358 210.139 108.569 208.268 108.065 206.495C108.025 206.355 107.951 206.227 107.85 206.123C105.856 204.07 104.758 201.459 104.758 198.773C104.758 192.58 111.036 187.348 118.469 187.348C125.487 187.348 131.652 192.228 131.652 198.773C131.652 205.074 125.738 210.199 118.469 210.199V210.199ZM143.15 193.819C143.049 193.923 142.975 194.051 142.935 194.19C142.431 195.963 142.642 197.834 143.471 199.421C141.967 199.05 140.588 198.241 139.526 197.081C139.28 196.811 138.892 196.722 138.553 196.857C137.181 197.403 135.223 197.781 133.375 197.873C133.118 194.549 131.46 191.425 128.626 189.105H140.09C140.575 189.105 140.969 188.712 140.969 188.227C140.969 187.741 140.575 187.348 140.09 187.348H125.925C123.93 186.332 121.69 185.74 119.384 185.616C119.889 179.713 125.593 175.043 132.531 175.043C139.964 175.043 146.242 180.275 146.242 186.469C146.242 189.155 145.144 191.765 143.15 193.819V193.819Z" fill="#DD127B"/>
<path d="M125.5 196.137H114.426C113.94 196.137 113.547 196.53 113.547 197.016C113.547 197.501 113.94 197.895 114.426 197.895H125.5C125.985 197.895 126.379 197.501 126.379 197.016C126.379 196.53 125.985 196.137 125.5 196.137Z" fill="#DD127B"/>
<path d="M125.5 201.41H110.91C110.425 201.41 110.031 201.804 110.031 202.289C110.031 202.775 110.425 203.168 110.91 203.168H125.5C125.985 203.168 126.379 202.775 126.379 202.289C126.379 201.804 125.985 201.41 125.5 201.41Z" fill="#DD127B"/>
<path d="M140.09 182.074H129.016C128.53 182.074 128.137 182.468 128.137 182.953C128.137 183.439 128.53 183.832 129.016 183.832H140.09C140.575 183.832 140.969 183.439 140.969 182.953C140.969 182.468 140.575 182.074 140.09 182.074Z" fill="#DD127B"/>
<path d="M264.311 42.1328H258.913C257.343 42.1328 256.066 40.8515 256.066 39.2764V23.0277C256.066 22.6635 255.771 22.3685 255.407 22.3685C255.043 22.3685 254.748 22.6635 254.748 23.0277V39.2764C254.748 41.5783 256.616 43.4512 258.913 43.4512H264.311C264.675 43.4512 264.97 43.1561 264.97 42.792C264.97 42.4279 264.675 42.1328 264.311 42.1328Z" fill="#DD127B"/>
<path d="M260.416 14.8411H271.28C271.644 14.8411 271.939 14.5461 271.939 14.1819C271.939 13.8178 271.644 13.5228 271.28 13.5228H260.416C260.052 13.5228 259.757 13.8178 259.757 14.1819C259.757 14.5461 260.052 14.8411 260.416 14.8411Z" fill="#DD127B"/>
<path d="M260.416 29.3467C260.052 29.3467 259.757 29.6417 259.757 30.0059C259.757 30.37 260.052 30.665 260.416 30.665H275.675C276.039 30.665 276.334 30.37 276.334 30.0059C276.334 29.6417 276.039 29.3467 275.675 29.3467H260.416Z" fill="#DD127B"/>
<path d="M260.241 20.1158H279.914C280.278 20.1158 280.574 19.8207 280.574 19.4566C280.574 19.0925 280.278 18.7974 279.914 18.7974H260.241C259.877 18.7974 259.582 19.0925 259.582 19.4566C259.582 19.8207 259.877 20.1158 260.241 20.1158V20.1158Z" fill="#DD127B"/>
<path d="M260.241 25.3904H279.918C280.282 25.3904 280.577 25.0954 280.577 24.7312C280.577 24.3671 280.282 24.0721 279.918 24.0721H260.241C259.877 24.0721 259.582 24.3671 259.582 24.7312C259.582 25.0954 259.877 25.3904 260.241 25.3904V25.3904Z" fill="#DD127B"/>
<path d="M294.248 36.4858C294.212 35.7388 293.886 35.0095 293.355 34.4873L287.18 28.3475V14.3197C287.18 13.4411 286.839 12.6146 286.22 11.9923L276.246 1.96855C275.633 1.35306 274.784 1 273.917 1H258.913C256.616 1 254.748 2.87286 254.748 5.17489V19.9515C254.748 20.3156 255.043 20.6107 255.407 20.6107C255.771 20.6107 256.066 20.3156 256.066 19.9515V5.17489C256.066 3.5998 257.343 2.31836 258.913 2.31836H273.917C274.067 2.31836 274.214 2.3369 274.357 2.36951V6.07867C274.357 6.4428 274.652 6.73785 275.016 6.73785C275.38 6.73785 275.675 6.4428 275.675 6.07867V3.26468L284.933 12.5681H277.391C276.445 12.5681 275.675 11.7949 275.675 10.8446V9.15484C275.675 8.79071 275.38 8.49566 275.016 8.49566C274.652 8.49566 274.357 8.79071 274.357 9.15484V10.8446C274.357 12.5219 275.718 13.8864 277.391 13.8864H285.812C285.844 14.0272 285.861 14.172 285.861 14.3197V27.4553C284.786 27.0783 283.54 27.3164 282.681 28.1699C281.493 29.3028 281.493 31.3426 282.681 32.4756L283.809 33.597H279.917C279.553 33.597 279.258 33.8921 279.258 34.2562C279.258 34.6204 279.553 34.9154 279.917 34.9154H285.407C285.674 34.9154 285.914 34.7544 286.016 34.5076C286.118 34.2607 286.061 33.977 285.872 33.7887L283.61 31.5407C282.938 30.8988 282.938 29.7466 283.61 29.1047C284.289 28.4301 285.393 28.4301 286.071 29.1047L292.428 35.4244C293.095 36.0587 293.098 37.2208 292.426 37.858L286.071 44.1758C285.393 44.8514 284.289 44.8515 283.61 44.1754C282.938 43.5335 282.938 42.3812 283.61 41.7393L285.872 39.4913C286.061 39.3032 286.118 39.0194 286.016 38.7725C285.915 38.5257 285.674 38.3647 285.407 38.3647H272.612C271.653 38.3647 270.873 37.5909 270.873 36.6399C270.873 35.6889 271.653 34.9152 272.612 34.9152H276.841C277.205 34.9152 277.5 34.6202 277.5 34.2561C277.5 33.8919 277.205 33.5969 276.841 33.5969H272.612C270.926 33.5969 269.555 34.962 269.555 36.6399C269.555 38.3179 270.926 39.683 272.612 39.683H283.809L282.681 40.8044C282.304 41.1794 282.038 41.6354 281.898 42.1326H267.387C267.023 42.1326 266.728 42.4277 266.728 42.7918C266.728 43.1559 267.023 43.451 267.387 43.451H281.825C281.927 44.0766 282.221 44.6533 282.681 45.1098C283.872 46.2964 285.81 46.2966 287.001 45.1102L293.352 38.7958C293.961 38.1983 294.296 37.3326 294.248 36.4858V36.4858Z" fill="#DD127B"/>
<path d="M202.999 204L202.999 353.987C202.999 353.987 200.561 353.83 198.999 353.83C197.437 353.83 194.999 354 194.999 354L194.999 204C196.999 204.142 197.433 204.172 198.999 204.171C200.565 204.169 200.999 204.142 202.999 204Z" fill="#FFE6EF"/>
<g filter="url(#filter1_d)">
<path d="M201.999 204L201.999 353.987C201.999 353.987 200.171 353.83 198.999 353.83C197.827 353.83 195.999 354 195.999 354L195.999 204C197.499 204.142 197.825 204.172 198.999 204.171C200.174 204.169 200.499 204.142 201.999 204Z" fill="#FF4A8B"/>
</g>
<path d="M202.999 381L202.999 530.987C202.999 530.987 200.561 530.83 198.999 530.83C197.437 530.83 194.999 531 194.999 531L194.999 381C196.999 381.142 197.433 381.172 198.999 381.171C200.565 381.169 200.999 381.142 202.999 381Z" fill="#FFE6EF"/>
<g filter="url(#filter2_d)">
<path d="M201.999 381L201.999 530.987C201.999 530.987 200.171 530.83 198.999 530.83C197.827 530.83 195.999 531 195.999 531L195.999 381C197.499 381.142 197.825 381.172 198.999 381.171C200.174 381.169 200.499 381.142 201.999 381Z" fill="#FF4A8B"/>
</g>
<path d="M202.999 555.014L202.999 704.987C202.999 704.987 200.561 705 198.999 705C197.437 705 194.999 705 194.999 705L194.999 555C196.999 555.158 197.433 555.16 198.999 555.158C200.565 555.157 200.999 555.159 202.999 555.014Z" fill="#FFE6EF"/>
<g filter="url(#filter3_d)">
<path d="M201.999 555.014L201.999 704.987C201.999 704.987 200.171 705 198.999 705C197.827 705 195.999 705 195.999 705L195.999 555C197.499 555.158 197.825 555.16 198.999 555.158C200.174 555.157 200.499 555.159 201.999 555.014Z" fill="#FF4A8B"/>
</g>
<path d="M211.499 19.5C211.499 26.1274 206.126 31.5 199.499 31.5C192.872 31.5 187.499 26.1274 187.499 19.5C187.499 12.8726 192.872 7.5 199.499 7.5C206.126 7.5 211.499 12.8726 211.499 19.5Z" stroke="#FF4A8B"/>
<path d="M209.726 19.5C209.726 25.1484 205.147 29.7273 199.499 29.7273C193.85 29.7273 189.271 25.1484 189.271 19.5C189.271 13.8516 193.85 9.27272 199.499 9.27272C205.147 9.27272 209.726 13.8516 209.726 19.5Z" fill="#FF4A8B" fill-opacity="0.2"/>
<path fill-rule="evenodd" clip-rule="evenodd" d="M203.402 15.2587C203.597 15.0646 203.86 14.9553 204.134 14.9545C204.408 14.9538 204.672 15.0616 204.868 15.2546C205.064 15.4476 205.176 15.7104 205.181 15.9861C205.186 16.2618 205.082 16.5282 204.893 16.7279L199.335 23.71C199.24 23.8134 199.125 23.8964 198.996 23.954C198.868 24.0116 198.73 24.0427 198.59 24.0453C198.449 24.0479 198.31 24.022 198.18 23.9692C198.049 23.9164 197.931 23.8378 197.832 23.738L194.15 20.0357C194.047 19.9396 193.965 19.8237 193.908 19.695C193.851 19.5663 193.82 19.4273 193.818 19.2864C193.815 19.1455 193.841 19.0055 193.893 18.8749C193.946 18.7442 194.024 18.6255 194.123 18.5258C194.222 18.4262 194.34 18.3476 194.47 18.2948C194.6 18.2421 194.74 18.2161 194.88 18.2186C195.02 18.2211 195.158 18.252 195.286 18.3093C195.415 18.3667 195.53 18.4494 195.625 18.5525L198.541 21.4811L203.375 15.2895C203.384 15.2786 203.392 15.2683 203.402 15.2587Z" fill="#FF4A8B"/>
<path d="M211.499 193.5C211.499 200.127 206.126 205.5 199.499 205.5C192.872 205.5 187.499 200.127 187.499 193.5C187.499 186.873 192.872 181.5 199.499 181.5C206.126 181.5 211.499 186.873 211.499 193.5Z" stroke="#FF4A8B"/>
<path d="M209.726 193.5C209.726 199.148 205.147 203.727 199.499 203.727C193.85 203.727 189.271 199.148 189.271 193.5C189.271 187.852 193.85 183.273 199.499 183.273C205.147 183.273 209.726 187.852 209.726 193.5Z" fill="#FF4A8B" fill-opacity="0.2"/>
<path fill-rule="evenodd" clip-rule="evenodd" d="M203.402 189.259C203.597 189.065 203.86 188.955 204.134 188.955C204.408 188.954 204.672 189.062 204.868 189.255C205.064 189.448 205.176 189.71 205.181 189.986C205.186 190.262 205.082 190.528 204.893 190.728L199.335 197.71C199.24 197.813 199.125 197.896 198.996 197.954C198.868 198.012 198.73 198.043 198.59 198.045C198.449 198.048 198.31 198.022 198.18 197.969C198.049 197.916 197.931 197.838 197.832 197.738L194.15 194.036C194.047 193.94 193.965 193.824 193.908 193.695C193.851 193.566 193.82 193.427 193.818 193.286C193.815 193.146 193.841 193.006 193.893 192.875C193.946 192.744 194.024 192.625 194.123 192.526C194.222 192.426 194.34 192.348 194.47 192.295C194.6 192.242 194.74 192.216 194.88 192.219C195.02 192.221 195.158 192.252 195.286 192.309C195.415 192.367 195.53 192.449 195.625 192.552L198.541 195.481L203.375 189.289C203.384 189.279 203.392 189.268 203.402 189.259Z" fill="#FF4A8B"/>
<path d="M211.499 366.5C211.499 373.127 206.126 378.5 199.499 378.5C192.872 378.5 187.499 373.127 187.499 366.5C187.499 359.873 192.872 354.5 199.499 354.5C206.126 354.5 211.499 359.873 211.499 366.5Z" stroke="#FF4A8B"/>
<path d="M209.726 366.5C209.726 372.148 205.147 376.727 199.499 376.727C193.85 376.727 189.271 372.148 189.271 366.5C189.271 360.852 193.85 356.273 199.499 356.273C205.147 356.273 209.726 360.852 209.726 366.5Z" fill="#FF4A8B" fill-opacity="0.2"/>
<path fill-rule="evenodd" clip-rule="evenodd" d="M203.402 362.259C203.597 362.065 203.86 361.955 204.134 361.955C204.408 361.954 204.672 362.062 204.868 362.255C205.064 362.448 205.176 362.71 205.181 362.986C205.186 363.262 205.082 363.528 204.893 363.728L199.335 370.71C199.24 370.813 199.125 370.896 198.996 370.954C198.868 371.012 198.73 371.043 198.59 371.045C198.449 371.048 198.31 371.022 198.18 370.969C198.049 370.916 197.931 370.838 197.832 370.738L194.15 367.036C194.047 366.94 193.965 366.824 193.908 366.695C193.851 366.566 193.82 366.427 193.818 366.286C193.815 366.145 193.841 366.006 193.893 365.875C193.946 365.744 194.024 365.625 194.123 365.526C194.222 365.426 194.34 365.348 194.47 365.295C194.6 365.242 194.74 365.216 194.88 365.219C195.02 365.221 195.158 365.252 195.286 365.309C195.415 365.367 195.53 365.449 195.625 365.552L198.541 368.481L203.375 362.289C203.384 362.279 203.392 362.268 203.402 362.259Z" fill="#FF4A8B"/>
<path d="M295.166 349.031H293.848V345.955C293.848 343.774 292.073 342 289.893 342C287.712 342 285.938 343.774 285.938 345.955V347.035C285.938 348.401 285.02 349.617 283.706 349.993L282.422 350.36V350.35C282.422 349.622 281.832 349.031 281.104 349.031H275.83C275.102 349.031 274.512 349.622 274.512 350.35V356.238H258.955C256.774 356.238 255 358.013 255 360.193V385.682C255 386.168 255.268 386.615 255.696 386.844C255.891 386.948 256.105 387 256.318 387C256.574 387 256.829 386.926 257.05 386.779L261.991 383.484H287.08C289.261 383.484 291.035 381.71 291.035 379.529V365.73H295.166C297.831 365.73 300 363.562 300 360.896V353.865C300 351.2 297.831 349.031 295.166 349.031ZM277.148 351.668H279.785V363.094H277.148V351.668ZM288.398 379.529C288.398 380.256 287.807 380.848 287.08 380.848H261.592C261.332 380.848 261.077 380.925 260.861 381.069L257.637 383.218V360.193C257.637 359.466 258.228 358.875 258.955 358.875H274.512V364.412C274.512 365.14 275.102 365.73 275.83 365.73H281.104C281.781 365.73 282.338 365.219 282.413 364.562C283.587 365.311 284.968 365.73 286.404 365.73H288.398V379.529ZM297.363 360.896C297.363 362.108 296.378 363.094 295.166 363.094H286.404C284.801 363.094 283.304 362.285 282.422 360.963V353.102L284.431 352.528C286.87 351.831 288.574 349.572 288.574 347.035V345.955C288.574 345.228 289.166 344.637 289.893 344.637C290.62 344.637 291.211 345.228 291.211 345.955V350.35C291.211 351.078 291.801 351.668 292.529 351.668H295.166C296.378 351.668 297.363 352.654 297.363 353.865V360.896Z" fill="#DD127B"/>
<path d="M261.592 366.785H270.381C271.109 366.785 271.699 366.195 271.699 365.467C271.699 364.739 271.109 364.148 270.381 364.148H261.592C260.864 364.148 260.273 364.739 260.273 365.467C260.273 366.195 260.864 366.785 261.592 366.785Z" fill="#DD127B"/>
<path d="M284.443 369.422H261.592C260.864 369.422 260.273 370.012 260.273 370.74C260.273 371.468 260.864 372.059 261.592 372.059H284.443C285.171 372.059 285.762 371.468 285.762 370.74C285.762 370.012 285.171 369.422 284.443 369.422Z" fill="#DD127B"/>
<path d="M284.443 374.695H261.592C260.864 374.695 260.273 375.286 260.273 376.014C260.273 376.742 260.864 377.332 261.592 377.332H284.443C285.171 377.332 285.762 376.742 285.762 376.014C285.762 375.286 285.171 374.695 284.443 374.695Z" fill="#DD127B"/>
<path d="M211.499 543.5C211.499 550.127 206.126 555.5 199.499 555.5C192.872 555.5 187.499 550.127 187.499 543.5C187.499 536.873 192.872 531.5 199.499 531.5C206.126 531.5 211.499 536.873 211.499 543.5Z" stroke="#FF4A8B"/>
<path d="M209.726 543.5C209.726 549.148 205.147 553.727 199.499 553.727C193.85 553.727 189.271 549.148 189.271 543.5C189.271 537.852 193.85 533.273 199.499 533.273C205.147 533.273 209.726 537.852 209.726 543.5Z" fill="#FF4A8B" fill-opacity="0.2"/>
<path fill-rule="evenodd" clip-rule="evenodd" d="M203.402 539.259C203.597 539.065 203.86 538.955 204.134 538.955C204.408 538.954 204.672 539.062 204.868 539.255C205.064 539.448 205.176 539.71 205.181 539.986C205.186 540.262 205.082 540.528 204.893 540.728L199.335 547.71C199.24 547.813 199.125 547.896 198.996 547.954C198.868 548.012 198.73 548.043 198.59 548.045C198.449 548.048 198.31 548.022 198.18 547.969C198.049 547.916 197.931 547.838 197.832 547.738L194.15 544.036C194.047 543.94 193.965 543.824 193.908 543.695C193.851 543.566 193.82 543.427 193.818 543.286C193.815 543.145 193.841 543.006 193.893 542.875C193.946 542.744 194.024 542.625 194.123 542.526C194.222 542.426 194.34 542.348 194.47 542.295C194.6 542.242 194.74 542.216 194.88 542.219C195.02 542.221 195.158 542.252 195.286 542.309C195.415 542.367 195.53 542.449 195.625 542.552L198.541 545.481L203.375 539.289C203.384 539.279 203.392 539.268 203.402 539.259Z" fill="#FF4A8B"/>
<path d="M146.875 526H137.875V528.25H145.75V548.5H135.625C135.004 548.5 134.5 549.004 134.5 549.625V553H125.5V549.625C125.5 549.004 124.996 548.5 124.375 548.5H114.25V528.25H122.125V526H113.125C112.504 526 112 526.504 112 527.125V559.75C112 560.993 113.007 562 114.25 562H145.75C146.993 562 148 560.993 148 559.75V527.125C148 526.504 147.496 526 146.875 526ZM145.75 559.75H114.25V550.75H123.25V554.125C123.25 554.746 123.754 555.25 124.375 555.25H135.625C136.246 555.25 136.75 554.746 136.75 554.125V550.75H145.75V559.75Z" fill="#DD127B"/>
<path d="M130 542.875C130.299 542.877 130.586 542.759 130.799 542.549L136.424 536.924L134.826 535.326L131.125 539.039V526H128.875V539.039L125.174 535.326L123.576 536.924L129.201 542.549C129.413 542.759 129.701 542.877 130 542.875Z" fill="#DD127B"/>
<path d="M209.499 716C209.499 721.799 204.798 726.5 198.999 726.5C193.2 726.5 188.499 721.799 188.499 716C188.499 710.201 193.2 705.5 198.999 705.5C204.798 705.5 209.499 710.201 209.499 716Z" stroke="#FF4A8B"/>
<path d="M207.999 716C207.999 720.971 203.97 725 198.999 725C194.028 725 189.999 720.971 189.999 716C189.999 711.029 194.028 707 198.999 707C203.97 707 207.999 711.029 207.999 716Z" fill="#FF4A8B" fill-opacity="0.2"/>
<path fill-rule="evenodd" clip-rule="evenodd" d="M202.433 712.268C202.605 712.097 202.836 712.001 203.078 712C203.319 711.999 203.551 712.094 203.723 712.264C203.896 712.434 203.995 712.665 203.999 712.908C204.003 713.15 203.912 713.385 203.745 713.561L198.855 719.705C198.771 719.796 198.669 719.869 198.557 719.92C198.444 719.97 198.322 719.998 198.199 720C198.075 720.002 197.952 719.979 197.838 719.933C197.723 719.886 197.619 719.817 197.532 719.729L194.291 716.471C194.201 716.387 194.129 716.285 194.079 716.172C194.028 716.058 194.001 715.936 193.999 715.812C193.997 715.688 194.02 715.565 194.066 715.45C194.112 715.335 194.181 715.23 194.268 715.143C194.355 715.055 194.459 714.986 194.574 714.939C194.688 714.893 194.811 714.87 194.934 714.872C195.057 714.875 195.179 714.902 195.292 714.952C195.404 715.003 195.506 715.075 195.59 715.166L198.155 717.743L202.41 712.295C202.418 712.285 202.425 712.276 202.433 712.268Z" fill="#FF4A8B"/>
<path d="M284.379 719.684C284.379 720.169 283.985 720.562 283.5 720.562C283.015 720.562 282.621 720.169 282.621 719.684C282.621 719.198 283.015 718.805 283.5 718.805C283.985 718.805 284.379 719.198 284.379 719.684Z" fill="#DD127B"/>
<path d="M303.1 711.773C303.1 708.865 300.734 706.5 297.826 706.5C294.918 706.5 292.553 708.865 292.553 711.773C292.553 714.681 294.918 717.047 297.826 717.047C300.734 717.047 303.1 714.681 303.1 711.773ZM297.826 715.289C295.888 715.289 294.311 713.712 294.311 711.773C294.311 709.835 295.888 708.258 297.826 708.258C299.765 708.258 301.342 709.835 301.342 711.773C301.342 713.712 299.765 715.289 297.826 715.289Z" fill="#DD127B"/>
<path d="M297.826 717.047C295.611 717.047 293.403 717.966 291.898 719.457C289.918 716.855 286.865 715.289 283.5 715.289C280.278 715.289 277.156 716.759 275.102 719.457C273.597 717.967 271.389 717.047 269.174 717.047C264.743 717.047 261 720.669 261 724.957V726.715C261 727.2 261.393 727.594 261.879 727.594H305.121C305.607 727.594 306 727.2 306 726.715V724.957C306 720.669 302.257 717.047 297.826 717.047ZM262.758 724.957C262.758 721.622 265.696 718.805 269.174 718.805C271.077 718.805 272.964 719.648 274.132 720.988C273.36 722.48 272.953 724.143 272.953 725.836H262.758V724.957ZM283.5 717.047C288.391 717.047 292.289 721.015 292.289 725.836H274.711C274.711 720.951 278.689 717.047 283.5 717.047ZM304.242 725.836H294.047C294.047 724.143 293.64 722.48 292.868 720.988C294.036 719.648 295.923 718.805 297.826 718.805C301.304 718.805 304.242 721.622 304.242 724.957V725.836Z" fill="#DD127B"/>
<path d="M274.447 711.773C274.447 708.865 272.082 706.5 269.174 706.5C266.266 706.5 263.9 708.865 263.9 711.773C263.9 714.681 266.266 717.047 269.174 717.047C272.082 717.047 274.447 714.681 274.447 711.773ZM269.174 715.289C267.235 715.289 265.658 713.712 265.658 711.773C265.658 709.835 267.235 708.258 269.174 708.258C271.112 708.258 272.689 709.835 272.689 711.773C272.689 713.712 271.112 715.289 269.174 715.289Z" fill="#DD127B"/>
<path d="M290.531 708.258C290.531 704.381 287.377 701.227 283.5 701.227C279.623 701.227 276.469 704.381 276.469 708.258C276.469 712.135 279.623 715.289 283.5 715.289C287.377 715.289 290.531 712.135 290.531 708.258ZM283.5 713.531C280.592 713.531 278.227 711.166 278.227 708.258C278.227 705.35 280.592 702.984 283.5 702.984C286.408 702.984 288.773 705.35 288.773 708.258C288.773 711.166 286.408 713.531 283.5 713.531Z" fill="#DD127B"/>
<path d="M290.455 690.518C290.352 690.2 290.077 689.968 289.745 689.92L285.955 689.37L284.257 685.899C284.11 685.597 283.804 685.406 283.468 685.406C283.132 685.406 282.826 685.597 282.678 685.899L280.981 689.37L277.19 689.92C276.859 689.968 276.584 690.2 276.481 690.518C276.377 690.836 276.463 691.185 276.703 691.419L279.448 694.094L278.8 697.873C278.744 698.202 278.879 698.536 279.15 698.732C279.419 698.928 279.778 698.955 280.076 698.799L283.468 697.015L286.861 698.799C287.157 698.955 287.516 698.929 287.787 698.732C288.057 698.535 288.193 698.202 288.136 697.872L287.488 694.094L290.233 691.419C290.472 691.185 290.558 690.836 290.455 690.518ZM285.929 693.158C285.722 693.36 285.628 693.651 285.677 693.936L286.102 696.415L283.877 695.245C283.621 695.11 283.315 695.11 283.059 695.245L280.834 696.415L281.259 693.936C281.308 693.651 281.213 693.36 281.006 693.158L279.205 691.403L281.693 691.042C281.981 691.001 282.229 690.819 282.356 690.558L283.468 688.286L284.579 690.558C284.707 690.82 284.955 691.001 285.242 691.042L287.73 691.403L285.929 693.158Z" fill="#DD127B"/>
<path d="M303.592 697.105C303.489 696.787 303.214 696.555 302.883 696.507L300.314 696.134L299.166 693.806C299.018 693.506 298.713 693.316 298.378 693.316C298.378 693.316 298.378 693.316 298.377 693.316C298.043 693.316 297.738 693.506 297.59 693.806L296.44 696.134L293.872 696.507C293.541 696.555 293.266 696.787 293.162 697.105C293.059 697.424 293.145 697.773 293.385 698.006L295.243 699.819L294.804 702.376C294.748 702.706 294.883 703.039 295.154 703.236C295.425 703.432 295.783 703.459 296.079 703.303L298.377 702.096L300.675 703.303C300.971 703.459 301.33 703.432 301.601 703.236C301.871 703.039 302.006 702.706 301.95 702.376L301.511 699.819L303.37 698.006C303.61 697.773 303.696 697.424 303.592 697.105V697.105ZM299.954 698.883C299.746 699.085 299.652 699.375 299.701 699.66L299.917 700.918L298.787 700.325C298.531 700.19 298.225 700.19 297.969 700.325L296.838 700.919L297.054 699.66C297.103 699.375 297.008 699.085 296.801 698.883L295.887 697.991L297.15 697.807C297.437 697.766 297.684 697.586 297.812 697.327L298.377 696.182L298.942 697.326C299.07 697.586 299.318 697.766 299.604 697.807L300.868 697.991L299.954 698.883Z" fill="#DD127B"/>
<path d="M273.71 697.105C273.607 696.787 273.332 696.555 273.001 696.507L270.432 696.134L269.284 693.806C269.136 693.506 268.831 693.316 268.496 693.316C268.161 693.316 267.856 693.506 267.708 693.806L266.559 696.134L263.99 696.507C263.659 696.555 263.384 696.787 263.281 697.105C263.177 697.424 263.263 697.773 263.503 698.006L265.361 699.819L264.923 702.376C264.866 702.706 265.002 703.039 265.272 703.236C265.543 703.432 265.901 703.459 266.198 703.303L268.496 702.096L270.793 703.303C271.091 703.46 271.45 703.431 271.719 703.236C271.989 703.039 272.125 702.706 272.068 702.376L271.629 699.819L273.488 698.006C273.728 697.773 273.814 697.424 273.71 697.105ZM270.071 698.883C269.864 699.085 269.77 699.375 269.819 699.66L270.035 700.918L268.905 700.325C268.649 700.19 268.343 700.19 268.087 700.325L266.956 700.919L267.172 699.66C267.221 699.375 267.126 699.085 266.919 698.883L266.004 697.991L267.269 697.807C267.555 697.766 267.802 697.586 267.93 697.327L268.495 696.182L269.06 697.326C269.188 697.586 269.436 697.766 269.722 697.807L270.986 697.991L270.071 698.883Z" fill="#DD127B"/>
<path d="M287.352 719.956C286.946 719.689 286.401 719.802 286.135 720.208C285.868 720.613 285.981 721.158 286.387 721.425C287.199 721.958 287.849 722.703 288.265 723.577C288.473 724.015 288.997 724.202 289.436 723.993C289.875 723.784 290.061 723.26 289.852 722.822C289.298 721.657 288.433 720.666 287.352 719.956V719.956Z" fill="#DD127B"/>
<path d="M4.79116 15.098C4.13782 15.098 3.54982 14.986 3.02716 14.762C2.50449 14.5287 2.09382 14.202 1.79516 13.782C1.49649 13.362 1.34716 12.872 1.34716 12.312H3.05516C3.09249 12.732 3.25582 13.0773 3.54516 13.348C3.84382 13.6187 4.25916 13.754 4.79116 13.754C5.34182 13.754 5.77116 13.6233 6.07916 13.362C6.38716 13.0913 6.54116 12.746 6.54116 12.326C6.54116 11.9993 6.44316 11.7333 6.24716 11.528C6.06049 11.3227 5.82249 11.164 5.53316 11.052C5.25316 10.94 4.86116 10.8187 4.35716 10.688C3.72249 10.52 3.20449 10.352 2.80316 10.184C2.41116 10.0067 2.07516 9.736 1.79516 9.372C1.51516 9.008 1.37516 8.52267 1.37516 7.916C1.37516 7.356 1.51516 6.866 1.79516 6.446C2.07516 6.026 2.46716 5.704 2.97116 5.48C3.47516 5.256 4.05849 5.144 4.72116 5.144C5.66382 5.144 6.43382 5.382 7.03116 5.858C7.63782 6.32467 7.97382 6.96867 8.03916 7.79H6.27516C6.24716 7.43533 6.07916 7.132 5.77116 6.88C5.46316 6.628 5.05716 6.502 4.55316 6.502C4.09582 6.502 3.72249 6.61867 3.43316 6.852C3.14382 7.08533 2.99916 7.42133 2.99916 7.86C2.99916 8.15867 3.08782 8.406 3.26516 8.602C3.45182 8.78867 3.68516 8.938 3.96516 9.05C4.24516 9.162 4.62782 9.28333 5.11316 9.414C5.75716 9.59133 6.27982 9.76867 6.68116 9.946C7.09182 10.1233 7.43716 10.3987 7.71716 10.772C8.00649 11.136 8.15116 11.626 8.15116 12.242C8.15116 12.7367 8.01582 13.2033 7.74516 13.642C7.48382 14.0807 7.09649 14.4353 6.58316 14.706C6.07916 14.9673 5.48182 15.098 4.79116 15.098ZM17.0204 7.286V15H15.4244V14.09C15.1724 14.4073 14.841 14.6593 14.4304 14.846C14.029 15.0233 13.5997 15.112 13.1424 15.112C12.5357 15.112 11.9897 14.986 11.5044 14.734C11.0284 14.482 10.6504 14.1087 10.3704 13.614C10.0997 13.1193 9.96438 12.522 9.96438 11.822V7.286H11.5464V11.584C11.5464 12.2747 11.719 12.8067 12.0644 13.18C12.4097 13.544 12.881 13.726 13.4784 13.726C14.0757 13.726 14.547 13.544 14.8924 13.18C15.247 12.8067 15.4244 12.2747 15.4244 11.584V7.286H17.0204ZM20.7222 8.434C20.9928 8.06067 21.3615 7.75733 21.8282 7.524C22.3042 7.28133 22.8315 7.16 23.4102 7.16C24.0915 7.16 24.7075 7.32333 25.2582 7.65C25.8088 7.97667 26.2428 8.44333 26.5602 9.05C26.8775 9.64733 27.0362 10.3333 27.0362 11.108C27.0362 11.8827 26.8775 12.578 26.5602 13.194C26.2428 13.8007 25.8042 14.2767 25.2442 14.622C24.6935 14.958 24.0822 15.126 23.4102 15.126C22.8128 15.126 22.2808 15.0093 21.8142 14.776C21.3568 14.5427 20.9928 14.244 20.7222 13.88V15H19.1262V4.64H20.7222V8.434ZM25.4122 11.108C25.4122 10.576 25.3002 10.1187 25.0762 9.736C24.8615 9.344 24.5722 9.05 24.2082 8.854C23.8535 8.64867 23.4708 8.546 23.0602 8.546C22.6588 8.546 22.2762 8.64867 21.9122 8.854C21.5575 9.05933 21.2682 9.358 21.0442 9.75C20.8295 10.142 20.7222 10.604 20.7222 11.136C20.7222 11.668 20.8295 12.1347 21.0442 12.536C21.2682 12.928 21.5575 13.2267 21.9122 13.432C22.2762 13.6373 22.6588 13.74 23.0602 13.74C23.4708 13.74 23.8535 13.6373 24.2082 13.432C24.5722 13.2173 24.8615 12.9093 25.0762 12.508C25.3002 12.1067 25.4122 11.64 25.4122 11.108ZM28.0825 11.136C28.0825 10.3427 28.2411 9.64733 28.5585 9.05C28.8851 8.44333 29.3331 7.97667 29.9025 7.65C30.4718 7.32333 31.1251 7.16 31.8625 7.16C32.7958 7.16 33.5658 7.384 34.1725 7.832C34.7885 8.27067 35.2038 8.90067 35.4185 9.722H33.6965C33.5565 9.33933 33.3325 9.04067 33.0245 8.826C32.7165 8.61133 32.3291 8.504 31.8625 8.504C31.2091 8.504 30.6865 8.73733 30.2945 9.204C29.9118 9.66133 29.7205 10.3053 29.7205 11.136C29.7205 11.9667 29.9118 12.6153 30.2945 13.082C30.6865 13.5487 31.2091 13.782 31.8625 13.782C32.7865 13.782 33.3978 13.376 33.6965 12.564H35.4185C35.1945 13.348 34.7745 13.9733 34.1585 14.44C33.5425 14.8973 32.7771 15.126 31.8625 15.126C31.1251 15.126 30.4718 14.9627 29.9025 14.636C29.3331 14.3 28.8851 13.8333 28.5585 13.236C28.2411 12.6293 28.0825 11.9293 28.0825 11.136ZM38.605 8.406C38.8383 8.014 39.1463 7.71067 39.529 7.496C39.921 7.272 40.383 7.16 40.915 7.16V8.812H40.509C39.8837 8.812 39.4077 8.97067 39.081 9.288C38.7637 9.60533 38.605 10.156 38.605 10.94V15H37.009V7.286H38.605V8.406ZM43.194 6.264C42.9047 6.264 42.662 6.166 42.466 5.97C42.27 5.774 42.172 5.53133 42.172 5.242C42.172 4.95267 42.27 4.71 42.466 4.514C42.662 4.318 42.9047 4.22 43.194 4.22C43.474 4.22 43.712 4.318 43.908 4.514C44.104 4.71 44.202 4.95267 44.202 5.242C44.202 5.53133 44.104 5.774 43.908 5.97C43.712 6.166 43.474 6.264 43.194 6.264ZM43.978 7.286V15H42.382V7.286H43.978ZM47.6694 8.434C47.9401 8.06067 48.3088 7.75733 48.7754 7.524C49.2514 7.28133 49.7788 7.16 50.3574 7.16C51.0388 7.16 51.6548 7.32333 52.2054 7.65C52.7561 7.97667 53.1901 8.44333 53.5074 9.05C53.8248 9.64733 53.9834 10.3333 53.9834 11.108C53.9834 11.8827 53.8248 12.578 53.5074 13.194C53.1901 13.8007 52.7514 14.2767 52.1914 14.622C51.6408 14.958 51.0294 15.126 50.3574 15.126C49.7601 15.126 49.2281 15.0093 48.7614 14.776C48.3041 14.5427 47.9401 14.244 47.6694 13.88V15H46.0734V4.64H47.6694V8.434ZM52.3594 11.108C52.3594 10.576 52.2474 10.1187 52.0234 9.736C51.8088 9.344 51.5194 9.05 51.1554 8.854C50.8008 8.64867 50.4181 8.546 50.0074 8.546C49.6061 8.546 49.2234 8.64867 48.8594 8.854C48.5048 9.05933 48.2154 9.358 47.9914 9.75C47.7768 10.142 47.6694 10.604 47.6694 11.136C47.6694 11.668 47.7768 12.1347 47.9914 12.536C48.2154 12.928 48.5048 13.2267 48.8594 13.432C49.2234 13.6373 49.6061 13.74 50.0074 13.74C50.4181 13.74 50.8008 13.6373 51.1554 13.432C51.5194 13.2173 51.8088 12.9093 52.0234 12.508C52.2474 12.1067 52.3594 11.64 52.3594 11.108ZM62.6317 10.954C62.6317 11.2433 62.6131 11.5047 62.5757 11.738H56.6817C56.7284 12.354 56.9571 12.8487 57.3677 13.222C57.7784 13.5953 58.2824 13.782 58.8797 13.782C59.7384 13.782 60.3451 13.4227 60.6997 12.704H62.4217C62.1884 13.4133 61.7637 13.9967 61.1477 14.454C60.5411 14.902 59.7851 15.126 58.8797 15.126C58.1424 15.126 57.4797 14.9627 56.8917 14.636C56.3131 14.3 55.8557 13.8333 55.5197 13.236C55.1931 12.6293 55.0297 11.9293 55.0297 11.136C55.0297 10.3427 55.1884 9.64733 55.5057 9.05C55.8324 8.44333 56.2851 7.97667 56.8637 7.65C57.4517 7.32333 58.1237 7.16 58.8797 7.16C59.6077 7.16 60.2564 7.31867 60.8257 7.636C61.3951 7.95333 61.8384 8.40133 62.1557 8.98C62.4731 9.54933 62.6317 10.2073 62.6317 10.954ZM60.9657 10.45C60.9564 9.862 60.7464 9.39067 60.3357 9.036C59.9251 8.68133 59.4164 8.504 58.8097 8.504C58.2591 8.504 57.7877 8.68133 57.3957 9.036C57.0037 9.38133 56.7704 9.85267 56.6957 10.45H60.9657ZM67.3071 11.108C67.3071 10.3333 67.4657 9.64733 67.7831 9.05C68.1097 8.45267 68.5484 7.99067 69.0991 7.664C69.6591 7.328 70.2751 7.16 70.9471 7.16C71.5537 7.16 72.0811 7.28133 72.5291 7.524C72.9864 7.75733 73.3504 8.05133 73.6211 8.406V7.286H75.2311V15H73.6211V13.852C73.3504 14.216 72.9817 14.5193 72.5151 14.762C72.0484 15.0047 71.5164 15.126 70.9191 15.126C70.2564 15.126 69.6497 14.958 69.0991 14.622C68.5484 14.2767 68.1097 13.8007 67.7831 13.194C67.4657 12.578 67.3071 11.8827 67.3071 11.108ZM73.6211 11.136C73.6211 10.604 73.5091 10.142 73.2851 9.75C73.0704 9.358 72.7857 9.05933 72.4311 8.854C72.0764 8.64867 71.6937 8.546 71.2831 8.546C70.8724 8.546 70.4897 8.64867 70.1351 8.854C69.7804 9.05 69.4911 9.344 69.2671 9.736C69.0524 10.1187 68.9451 10.576 68.9451 11.108C68.9451 11.64 69.0524 12.1067 69.2671 12.508C69.4911 12.9093 69.7804 13.2173 70.1351 13.432C70.4991 13.6373 70.8817 13.74 71.2831 13.74C71.6937 13.74 72.0764 13.6373 72.4311 13.432C72.7857 13.2267 73.0704 12.928 73.2851 12.536C73.5091 12.1347 73.6211 11.668 73.6211 11.136ZM81.2193 7.16C81.826 7.16 82.3673 7.286 82.8433 7.538C83.3287 7.79 83.7067 8.16333 83.9773 8.658C84.248 9.15267 84.3833 9.75 84.3833 10.45V15H82.8013V10.688C82.8013 9.99733 82.6287 9.47 82.2833 9.106C81.938 8.73267 81.4667 8.546 80.8693 8.546C80.272 8.546 79.796 8.73267 79.4413 9.106C79.096 9.47 78.9233 9.99733 78.9233 10.688V15H77.3273V7.286H78.9233V8.168C79.1847 7.85067 79.516 7.60333 79.9173 7.426C80.328 7.24867 80.762 7.16 81.2193 7.16ZM85.8871 11.108C85.8871 10.3333 86.0458 9.64733 86.3631 9.05C86.6898 8.45267 87.1285 7.99067 87.6791 7.664C88.2391 7.328 88.8598 7.16 89.5411 7.16C90.0451 7.16 90.5398 7.272 91.0251 7.496C91.5198 7.71067 91.9118 8 92.2011 8.364V4.64H93.8111V15H92.2011V13.838C91.9398 14.2113 91.5758 14.5193 91.1091 14.762C90.6518 15.0047 90.1245 15.126 89.5271 15.126C88.8551 15.126 88.2391 14.958 87.6791 14.622C87.1285 14.2767 86.6898 13.8007 86.3631 13.194C86.0458 12.578 85.8871 11.8827 85.8871 11.108ZM92.2011 11.136C92.2011 10.604 92.0891 10.142 91.8651 9.75C91.6505 9.358 91.3658 9.05933 91.0111 8.854C90.6565 8.64867 90.2738 8.546 89.8631 8.546C89.4525 8.546 89.0698 8.64867 88.7151 8.854C88.3605 9.05 88.0711 9.344 87.8471 9.736C87.6325 10.1187 87.5251 10.576 87.5251 11.108C87.5251 11.64 87.6325 12.1067 87.8471 12.508C88.0711 12.9093 88.3605 13.2173 88.7151 13.432C89.0791 13.6373 89.4618 13.74 89.8631 13.74C90.2738 13.74 90.6565 13.6373 91.0111 13.432C91.3658 13.2267 91.6505 12.928 91.8651 12.536C92.0891 12.1347 92.2011 11.668 92.2011 11.136ZM102.344 15.126C101.737 15.126 101.191 15.0187 100.706 14.804C100.23 14.58 99.8521 14.2813 99.5721 13.908C99.2921 13.5253 99.1428 13.1007 99.1241 12.634H100.776C100.804 12.9607 100.958 13.236 101.238 13.46C101.527 13.6747 101.887 13.782 102.316 13.782C102.764 13.782 103.109 13.698 103.352 13.53C103.604 13.3527 103.73 13.1287 103.73 12.858C103.73 12.5687 103.59 12.354 103.31 12.214C103.039 12.074 102.605 11.92 102.008 11.752C101.429 11.5933 100.958 11.4393 100.594 11.29C100.23 11.1407 99.9128 10.912 99.6421 10.604C99.3808 10.296 99.2501 9.89 99.2501 9.386C99.2501 8.97533 99.3715 8.602 99.6141 8.266C99.8568 7.92067 100.202 7.65 100.65 7.454C101.107 7.258 101.63 7.16 102.218 7.16C103.095 7.16 103.8 7.384 104.332 7.832C104.873 8.27067 105.163 8.87267 105.2 9.638H103.604C103.576 9.29267 103.436 9.01733 103.184 8.812C102.932 8.60667 102.591 8.504 102.162 8.504C101.742 8.504 101.42 8.58333 101.196 8.742C100.972 8.90067 100.86 9.11067 100.86 9.372C100.86 9.57733 100.935 9.75 101.084 9.89C101.233 10.03 101.415 10.142 101.63 10.226C101.845 10.3007 102.162 10.3987 102.582 10.52C103.142 10.6693 103.599 10.8233 103.954 10.982C104.318 11.1313 104.631 11.3553 104.892 11.654C105.153 11.9527 105.289 12.3493 105.298 12.844C105.298 13.2827 105.177 13.6747 104.934 14.02C104.691 14.3653 104.346 14.636 103.898 14.832C103.459 15.028 102.941 15.126 102.344 15.126ZM114.009 7.286V15H112.413V14.09C112.161 14.4073 111.829 14.6593 111.419 14.846C111.017 15.0233 110.588 15.112 110.131 15.112C109.524 15.112 108.978 14.986 108.493 14.734C108.017 14.482 107.639 14.1087 107.359 13.614C107.088 13.1193 106.953 12.522 106.953 11.822V7.286H108.535V11.584C108.535 12.2747 108.707 12.8067 109.053 13.18C109.398 13.544 109.869 13.726 110.467 13.726C111.064 13.726 111.535 13.544 111.881 13.18C112.235 12.8067 112.413 12.2747 112.413 11.584V7.286H114.009ZM117.71 8.434C117.981 8.06067 118.35 7.75733 118.816 7.524C119.292 7.28133 119.82 7.16 120.398 7.16C121.08 7.16 121.696 7.32333 122.246 7.65C122.797 7.97667 123.231 8.44333 123.548 9.05C123.866 9.64733 124.024 10.3333 124.024 11.108C124.024 11.8827 123.866 12.578 123.548 13.194C123.231 13.8007 122.792 14.2767 122.232 14.622C121.682 14.958 121.07 15.126 120.398 15.126C119.801 15.126 119.269 15.0093 118.802 14.776C118.345 14.5427 117.981 14.244 117.71 13.88V15H116.114V4.64H117.71V8.434ZM122.4 11.108C122.4 10.576 122.288 10.1187 122.064 9.736C121.85 9.344 121.56 9.05 121.196 8.854C120.842 8.64867 120.459 8.546 120.048 8.546C119.647 8.546 119.264 8.64867 118.9 8.854C118.546 9.05933 118.256 9.358 118.032 9.75C117.818 10.142 117.71 10.604 117.71 11.136C117.71 11.668 117.818 12.1347 118.032 12.536C118.256 12.928 118.546 13.2267 118.9 13.432C119.264 13.6373 119.647 13.74 120.048 13.74C120.459 13.74 120.842 13.6373 121.196 13.432C121.56 13.2173 121.85 12.9093 122.064 12.508C122.288 12.1067 122.4 11.64 122.4 11.108ZM134.941 7.16C135.547 7.16 136.089 7.286 136.565 7.538C137.05 7.79 137.428 8.16333 137.699 8.658C137.979 9.15267 138.119 9.75 138.119 10.45V15H136.537V10.688C136.537 9.99733 136.364 9.47 136.019 9.106C135.673 8.73267 135.202 8.546 134.605 8.546C134.007 8.546 133.531 8.73267 133.177 9.106C132.831 9.47 132.659 9.99733 132.659 10.688V15H131.077V10.688C131.077 9.99733 130.904 9.47 130.559 9.106C130.213 8.73267 129.742 8.546 129.145 8.546C128.547 8.546 128.071 8.73267 127.717 9.106C127.371 9.47 127.199 9.99733 127.199 10.688V15H125.603V7.286H127.199V8.168C127.46 7.85067 127.791 7.60333 128.193 7.426C128.594 7.24867 129.023 7.16 129.481 7.16C130.097 7.16 130.647 7.29067 131.133 7.552C131.618 7.81333 131.991 8.19133 132.253 8.686C132.486 8.21933 132.85 7.85067 133.345 7.58C133.839 7.3 134.371 7.16 134.941 7.16ZM140.962 6.264C140.672 6.264 140.43 6.166 140.234 5.97C140.038 5.774 139.94 5.53133 139.94 5.242C139.94 4.95267 140.038 4.71 140.234 4.514C140.43 4.318 140.672 4.22 140.962 4.22C141.242 4.22 141.48 4.318 141.676 4.514C141.872 4.71 141.97 4.95267 141.97 5.242C141.97 5.53133 141.872 5.774 141.676 5.97C141.48 6.166 141.242 6.264 140.962 6.264ZM141.746 7.286V15H140.15V7.286H141.746ZM145.703 8.588V12.858C145.703 13.1473 145.768 13.3573 145.899 13.488C146.039 13.6093 146.272 13.67 146.599 13.67H147.579V15H146.319C145.6 15 145.05 14.832 144.667 14.496C144.284 14.16 144.093 13.614 144.093 12.858V8.588H143.183V7.286H144.093V5.368H145.703V7.286H147.579V8.588H145.703ZM96.7241 29.406C96.9575 29.014 97.2655 28.7107 97.6481 28.496C98.0401 28.272 98.5021 28.16 99.0341 28.16V29.812H98.6281C98.0028 29.812 97.5268 29.9707 97.2001 30.288C96.8828 30.6053 96.7241 31.156 96.7241 31.94V36H95.1281V28.286H96.7241V29.406ZM107.571 31.954C107.571 32.2433 107.553 32.5047 107.515 32.738H101.621C101.668 33.354 101.897 33.8487 102.307 34.222C102.718 34.5953 103.222 34.782 103.819 34.782C104.678 34.782 105.285 34.4227 105.639 33.704H107.361C107.128 34.4133 106.703 34.9967 106.087 35.454C105.481 35.902 104.725 36.126 103.819 36.126C103.082 36.126 102.419 35.9627 101.831 35.636C101.253 35.3 100.795 34.8333 100.459 34.236C100.133 33.6293 99.9692 32.9293 99.9692 32.136C99.9692 31.3427 100.128 30.6473 100.445 30.05C100.772 29.4433 101.225 28.9767 101.803 28.65C102.391 28.3233 103.063 28.16 103.819 28.16C104.547 28.16 105.196 28.3187 105.765 28.636C106.335 28.9533 106.778 29.4013 107.095 29.98C107.413 30.5493 107.571 31.2073 107.571 31.954ZM105.905 31.45C105.896 30.862 105.686 30.3907 105.275 30.036C104.865 29.6813 104.356 29.504 103.749 29.504C103.199 29.504 102.727 29.6813 102.335 30.036C101.943 30.3813 101.71 30.8527 101.635 31.45H105.905ZM108.61 32.108C108.61 31.3333 108.768 30.6473 109.086 30.05C109.412 29.4527 109.851 28.9907 110.402 28.664C110.962 28.328 111.582 28.16 112.264 28.16C112.861 28.16 113.388 28.2813 113.846 28.524C114.312 28.7667 114.672 29.0607 114.924 29.406V28.286H116.534V39.668H114.924V34.88C114.672 35.2253 114.308 35.5193 113.832 35.762C113.356 36.0047 112.814 36.126 112.208 36.126C111.545 36.126 110.938 35.958 110.388 35.622C109.846 35.2767 109.412 34.8007 109.086 34.194C108.768 33.578 108.61 32.8827 108.61 32.108ZM114.924 32.136C114.924 31.604 114.812 31.142 114.588 30.75C114.373 30.358 114.088 30.0593 113.734 29.854C113.379 29.6487 112.996 29.546 112.586 29.546C112.175 29.546 111.792 29.6487 111.438 29.854C111.083 30.05 110.794 30.344 110.57 30.736C110.355 31.1187 110.248 31.576 110.248 32.108C110.248 32.64 110.355 33.1067 110.57 33.508C110.794 33.9093 111.083 34.2173 111.438 34.432C111.802 34.6373 112.184 34.74 112.586 34.74C112.996 34.74 113.379 34.6373 113.734 34.432C114.088 34.2267 114.373 33.928 114.588 33.536C114.812 33.1347 114.924 32.668 114.924 32.136ZM125.616 28.286V36H124.02V35.09C123.768 35.4073 123.437 35.6593 123.026 35.846C122.625 36.0233 122.195 36.112 121.738 36.112C121.131 36.112 120.585 35.986 120.1 35.734C119.624 35.482 119.246 35.1087 118.966 34.614C118.695 34.1193 118.56 33.522 118.56 32.822V28.286H120.142V32.584C120.142 33.2747 120.315 33.8067 120.66 34.18C121.005 34.544 121.477 34.726 122.074 34.726C122.671 34.726 123.143 34.544 123.488 34.18C123.843 33.8067 124.02 33.2747 124.02 32.584V28.286H125.616ZM134.792 31.954C134.792 32.2433 134.773 32.5047 134.736 32.738H128.842C128.889 33.354 129.117 33.8487 129.528 34.222C129.939 34.5953 130.443 34.782 131.04 34.782C131.899 34.782 132.505 34.4227 132.86 33.704H134.582C134.349 34.4133 133.924 34.9967 133.308 35.454C132.701 35.902 131.945 36.126 131.04 36.126C130.303 36.126 129.64 35.9627 129.052 35.636C128.473 35.3 128.016 34.8333 127.68 34.236C127.353 33.6293 127.19 32.9293 127.19 32.136C127.19 31.3427 127.349 30.6473 127.666 30.05C127.993 29.4433 128.445 28.9767 129.024 28.65C129.612 28.3233 130.284 28.16 131.04 28.16C131.768 28.16 132.417 28.3187 132.986 28.636C133.555 28.9533 133.999 29.4013 134.316 29.98C134.633 30.5493 134.792 31.2073 134.792 31.954ZM133.126 31.45C133.117 30.862 132.907 30.3907 132.496 30.036C132.085 29.6813 131.577 29.504 130.97 29.504C130.419 29.504 129.948 29.6813 129.556 30.036C129.164 30.3813 128.931 30.8527 128.856 31.45H133.126ZM139.163 36.126C138.556 36.126 138.01 36.0187 137.525 35.804C137.049 35.58 136.671 35.2813 136.391 34.908C136.111 34.5253 135.961 34.1007 135.943 33.634H137.595C137.623 33.9607 137.777 34.236 138.057 34.46C138.346 34.6747 138.705 34.782 139.135 34.782C139.583 34.782 139.928 34.698 140.171 34.53C140.423 34.3527 140.549 34.1287 140.549 33.858C140.549 33.5687 140.409 33.354 140.129 33.214C139.858 33.074 139.424 32.92 138.827 32.752C138.248 32.5933 137.777 32.4393 137.413 32.29C137.049 32.1407 136.731 31.912 136.461 31.604C136.199 31.296 136.069 30.89 136.069 30.386C136.069 29.9753 136.19 29.602 136.433 29.266C136.675 28.9207 137.021 28.65 137.469 28.454C137.926 28.258 138.449 28.16 139.037 28.16C139.914 28.16 140.619 28.384 141.151 28.832C141.692 29.2707 141.981 29.8727 142.019 30.638H140.423C140.395 30.2927 140.255 30.0173 140.003 29.812C139.751 29.6067 139.41 29.504 138.981 29.504C138.561 29.504 138.239 29.5833 138.015 29.742C137.791 29.9007 137.679 30.1107 137.679 30.372C137.679 30.5773 137.753 30.75 137.903 30.89C138.052 31.03 138.234 31.142 138.449 31.226C138.663 31.3007 138.981 31.3987 139.401 31.52C139.961 31.6693 140.418 31.8233 140.773 31.982C141.137 32.1313 141.449 32.3553 141.711 32.654C141.972 32.9527 142.107 33.3493 142.117 33.844C142.117 34.2827 141.995 34.6747 141.753 35.02C141.51 35.3653 141.165 35.636 140.717 35.832C140.278 36.028 139.76 36.126 139.163 36.126ZM145.703 29.588V33.858C145.703 34.1473 145.768 34.3573 145.899 34.488C146.039 34.6093 146.272 34.67 146.599 34.67H147.579V36H146.319C145.6 36 145.05 35.832 144.667 35.496C144.284 35.16 144.093 34.614 144.093 33.858V29.588H143.183V28.286H144.093V26.368H145.703V28.286H147.579V29.588H145.703Z" fill="#674034"/>
<path d="M255.518 183.114C255.518 182.162 255.737 181.308 256.176 180.552C256.624 179.796 257.226 179.208 257.982 178.788C258.747 178.359 259.583 178.144 260.488 178.144C261.524 178.144 262.443 178.401 263.246 178.914C264.058 179.418 264.646 180.137 265.01 181.07H263.092C262.84 180.557 262.49 180.174 262.042 179.922C261.594 179.67 261.076 179.544 260.488 179.544C259.844 179.544 259.27 179.689 258.766 179.978C258.262 180.267 257.865 180.683 257.576 181.224C257.296 181.765 257.156 182.395 257.156 183.114C257.156 183.833 257.296 184.463 257.576 185.004C257.865 185.545 258.262 185.965 258.766 186.264C259.27 186.553 259.844 186.698 260.488 186.698C261.076 186.698 261.594 186.572 262.042 186.32C262.49 186.068 262.84 185.685 263.092 185.172H265.01C264.646 186.105 264.058 186.824 263.246 187.328C262.443 187.832 261.524 188.084 260.488 188.084C259.573 188.084 258.738 187.874 257.982 187.454C257.226 187.025 256.624 186.432 256.176 185.676C255.737 184.92 255.518 184.066 255.518 183.114ZM270.224 188.126C269.496 188.126 268.838 187.963 268.25 187.636C267.662 187.3 267.2 186.833 266.864 186.236C266.528 185.629 266.36 184.929 266.36 184.136C266.36 183.352 266.533 182.657 266.878 182.05C267.223 181.443 267.695 180.977 268.292 180.65C268.889 180.323 269.557 180.16 270.294 180.16C271.031 180.16 271.699 180.323 272.296 180.65C272.893 180.977 273.365 181.443 273.71 182.05C274.055 182.657 274.228 183.352 274.228 184.136C274.228 184.92 274.051 185.615 273.696 186.222C273.341 186.829 272.856 187.3 272.24 187.636C271.633 187.963 270.961 188.126 270.224 188.126ZM270.224 186.74C270.635 186.74 271.017 186.642 271.372 186.446C271.736 186.25 272.03 185.956 272.254 185.564C272.478 185.172 272.59 184.696 272.59 184.136C272.59 183.576 272.483 183.105 272.268 182.722C272.053 182.33 271.769 182.036 271.414 181.84C271.059 181.644 270.677 181.546 270.266 181.546C269.855 181.546 269.473 181.644 269.118 181.84C268.773 182.036 268.497 182.33 268.292 182.722C268.087 183.105 267.984 183.576 267.984 184.136C267.984 184.967 268.194 185.611 268.614 186.068C269.043 186.516 269.58 186.74 270.224 186.74ZM285.144 180.16C285.751 180.16 286.292 180.286 286.768 180.538C287.253 180.79 287.631 181.163 287.902 181.658C288.182 182.153 288.322 182.75 288.322 183.45V188H286.74V183.688C286.74 182.997 286.567 182.47 286.222 182.106C285.877 181.733 285.405 181.546 284.808 181.546C284.211 181.546 283.735 181.733 283.38 182.106C283.035 182.47 282.862 182.997 282.862 183.688V188H281.28V183.688C281.28 182.997 281.107 182.47 280.762 182.106C280.417 181.733 279.945 181.546 279.348 181.546C278.751 181.546 278.275 181.733 277.92 182.106C277.575 182.47 277.402 182.997 277.402 183.688V188H275.806V180.286H277.402V181.168C277.663 180.851 277.995 180.603 278.396 180.426C278.797 180.249 279.227 180.16 279.684 180.16C280.3 180.16 280.851 180.291 281.336 180.552C281.821 180.813 282.195 181.191 282.456 181.686C282.689 181.219 283.053 180.851 283.548 180.58C284.043 180.3 284.575 180.16 285.144 180.16ZM299.691 180.16C300.297 180.16 300.839 180.286 301.315 180.538C301.8 180.79 302.178 181.163 302.449 181.658C302.729 182.153 302.869 182.75 302.869 183.45V188H301.287V183.688C301.287 182.997 301.114 182.47 300.769 182.106C300.423 181.733 299.952 181.546 299.355 181.546C298.757 181.546 298.281 181.733 297.927 182.106C297.581 182.47 297.409 182.997 297.409 183.688V188H295.827V183.688C295.827 182.997 295.654 182.47 295.309 182.106C294.963 181.733 294.492 181.546 293.895 181.546C293.297 181.546 292.821 181.733 292.467 182.106C292.121 182.47 291.949 182.997 291.949 183.688V188H290.353V180.286H291.949V181.168C292.21 180.851 292.541 180.603 292.943 180.426C293.344 180.249 293.773 180.16 294.231 180.16C294.847 180.16 295.397 180.291 295.883 180.552C296.368 180.813 296.741 181.191 297.003 181.686C297.236 181.219 297.6 180.851 298.095 180.58C298.589 180.3 299.121 180.16 299.691 180.16ZM311.886 180.286V188H310.29V187.09C310.038 187.407 309.706 187.659 309.296 187.846C308.894 188.023 308.465 188.112 308.008 188.112C307.401 188.112 306.855 187.986 306.37 187.734C305.894 187.482 305.516 187.109 305.236 186.614C304.965 186.119 304.83 185.522 304.83 184.822V180.286H306.412V184.584C306.412 185.275 306.584 185.807 306.93 186.18C307.275 186.544 307.746 186.726 308.344 186.726C308.941 186.726 309.412 186.544 309.758 186.18C310.112 185.807 310.29 185.275 310.29 184.584V180.286H311.886ZM317.883 180.16C318.49 180.16 319.031 180.286 319.507 180.538C319.993 180.79 320.371 181.163 320.641 181.658C320.912 182.153 321.047 182.75 321.047 183.45V188H319.465V183.688C319.465 182.997 319.293 182.47 318.947 182.106C318.602 181.733 318.131 181.546 317.533 181.546C316.936 181.546 316.46 181.733 316.105 182.106C315.76 182.47 315.587 182.997 315.587 183.688V188H313.991V180.286H315.587V181.168C315.849 180.851 316.18 180.603 316.581 180.426C316.992 180.249 317.426 180.16 317.883 180.16ZM323.895 179.264C323.606 179.264 323.363 179.166 323.167 178.97C322.971 178.774 322.873 178.531 322.873 178.242C322.873 177.953 322.971 177.71 323.167 177.514C323.363 177.318 323.606 177.22 323.895 177.22C324.175 177.22 324.413 177.318 324.609 177.514C324.805 177.71 324.903 177.953 324.903 178.242C324.903 178.531 324.805 178.774 324.609 178.97C324.413 179.166 324.175 179.264 323.895 179.264ZM324.679 180.286V188H323.083V180.286H324.679ZM326.243 184.136C326.243 183.343 326.401 182.647 326.719 182.05C327.045 181.443 327.493 180.977 328.063 180.65C328.632 180.323 329.285 180.16 330.023 180.16C330.956 180.16 331.726 180.384 332.333 180.832C332.949 181.271 333.364 181.901 333.579 182.722H331.857C331.717 182.339 331.493 182.041 331.185 181.826C330.877 181.611 330.489 181.504 330.023 181.504C329.369 181.504 328.847 181.737 328.455 182.204C328.072 182.661 327.881 183.305 327.881 184.136C327.881 184.967 328.072 185.615 328.455 186.082C328.847 186.549 329.369 186.782 330.023 186.782C330.947 186.782 331.558 186.376 331.857 185.564H333.579C333.355 186.348 332.935 186.973 332.319 187.44C331.703 187.897 330.937 188.126 330.023 188.126C329.285 188.126 328.632 187.963 328.063 187.636C327.493 187.3 327.045 186.833 326.719 186.236C326.401 185.629 326.243 184.929 326.243 184.136ZM334.637 184.108C334.637 183.333 334.796 182.647 335.113 182.05C335.44 181.453 335.878 180.991 336.429 180.664C336.989 180.328 337.605 180.16 338.277 180.16C338.884 180.16 339.411 180.281 339.859 180.524C340.316 180.757 340.68 181.051 340.951 181.406V180.286H342.561V188H340.951V186.852C340.68 187.216 340.312 187.519 339.845 187.762C339.378 188.005 338.846 188.126 338.249 188.126C337.586 188.126 336.98 187.958 336.429 187.622C335.878 187.277 335.44 186.801 335.113 186.194C334.796 185.578 334.637 184.883 334.637 184.108ZM340.951 184.136C340.951 183.604 340.839 183.142 340.615 182.75C340.4 182.358 340.116 182.059 339.761 181.854C339.406 181.649 339.024 181.546 338.613 181.546C338.202 181.546 337.82 181.649 337.465 181.854C337.11 182.05 336.821 182.344 336.597 182.736C336.382 183.119 336.275 183.576 336.275 184.108C336.275 184.64 336.382 185.107 336.597 185.508C336.821 185.909 337.11 186.217 337.465 186.432C337.829 186.637 338.212 186.74 338.613 186.74C339.024 186.74 339.406 186.637 339.761 186.432C340.116 186.227 340.4 185.928 340.615 185.536C340.839 185.135 340.951 184.668 340.951 184.136ZM346.519 181.588V185.858C346.519 186.147 346.585 186.357 346.715 186.488C346.855 186.609 347.089 186.67 347.415 186.67H348.395V188H347.135C346.417 188 345.866 187.832 345.483 187.496C345.101 187.16 344.909 186.614 344.909 185.858V181.588H343.999V180.286H344.909V178.368H346.519V180.286H348.395V181.588H346.519ZM356.936 183.954C356.936 184.243 356.918 184.505 356.88 184.738H350.986C351.033 185.354 351.262 185.849 351.672 186.222C352.083 186.595 352.587 186.782 353.184 186.782C354.043 186.782 354.65 186.423 355.004 185.704H356.726C356.493 186.413 356.068 186.997 355.452 187.454C354.846 187.902 354.09 188.126 353.184 188.126C352.447 188.126 351.784 187.963 351.196 187.636C350.618 187.3 350.16 186.833 349.824 186.236C349.498 185.629 349.334 184.929 349.334 184.136C349.334 183.343 349.493 182.647 349.81 182.05C350.137 181.443 350.59 180.977 351.168 180.65C351.756 180.323 352.428 180.16 353.184 180.16C353.912 180.16 354.561 180.319 355.13 180.636C355.7 180.953 356.143 181.401 356.46 181.98C356.778 182.549 356.936 183.207 356.936 183.954ZM355.27 183.45C355.261 182.862 355.051 182.391 354.64 182.036C354.23 181.681 353.721 181.504 353.114 181.504C352.564 181.504 352.092 181.681 351.7 182.036C351.308 182.381 351.075 182.853 351 183.45H355.27ZM372.504 180.286L370.11 188H368.43L366.876 182.302L365.322 188H363.642L361.234 180.286H362.858L364.468 186.488L366.106 180.286H367.772L369.34 186.46L370.936 180.286H372.504ZM374.508 179.264C374.219 179.264 373.976 179.166 373.78 178.97C373.584 178.774 373.486 178.531 373.486 178.242C373.486 177.953 373.584 177.71 373.78 177.514C373.976 177.318 374.219 177.22 374.508 177.22C374.788 177.22 375.026 177.318 375.222 177.514C375.418 177.71 375.516 177.953 375.516 178.242C375.516 178.531 375.418 178.774 375.222 178.97C375.026 179.166 374.788 179.264 374.508 179.264ZM375.292 180.286V188H373.696V180.286H375.292ZM379.25 181.588V185.858C379.25 186.147 379.315 186.357 379.446 186.488C379.586 186.609 379.819 186.67 380.146 186.67H381.126V188H379.866C379.147 188 378.597 187.832 378.214 187.496C377.831 187.16 377.64 186.614 377.64 185.858V181.588H376.73V180.286H377.64V178.368H379.25V180.286H381.126V181.588H379.25ZM386.587 180.16C387.175 180.16 387.698 180.286 388.155 180.538C388.622 180.79 388.986 181.163 389.247 181.658C389.518 182.153 389.653 182.75 389.653 183.45V188H388.071V183.688C388.071 182.997 387.898 182.47 387.553 182.106C387.208 181.733 386.736 181.546 386.139 181.546C385.542 181.546 385.066 181.733 384.711 182.106C384.366 182.47 384.193 182.997 384.193 183.688V188H382.597V177.64H384.193V181.182C384.464 180.855 384.804 180.603 385.215 180.426C385.635 180.249 386.092 180.16 386.587 180.16ZM255.518 205.108C255.518 204.333 255.677 203.647 255.994 203.05C256.321 202.453 256.759 201.991 257.31 201.664C257.87 201.328 258.491 201.16 259.172 201.16C259.676 201.16 260.171 201.272 260.656 201.496C261.151 201.711 261.543 202 261.832 202.364V198.64H263.442V209H261.832V207.838C261.571 208.211 261.207 208.519 260.74 208.762C260.283 209.005 259.755 209.126 259.158 209.126C258.486 209.126 257.87 208.958 257.31 208.622C256.759 208.277 256.321 207.801 255.994 207.194C255.677 206.578 255.518 205.883 255.518 205.108ZM261.832 205.136C261.832 204.604 261.72 204.142 261.496 203.75C261.281 203.358 260.997 203.059 260.642 202.854C260.287 202.649 259.905 202.546 259.494 202.546C259.083 202.546 258.701 202.649 258.346 202.854C257.991 203.05 257.702 203.344 257.478 203.736C257.263 204.119 257.156 204.576 257.156 205.108C257.156 205.64 257.263 206.107 257.478 206.508C257.702 206.909 257.991 207.217 258.346 207.432C258.71 207.637 259.093 207.74 259.494 207.74C259.905 207.74 260.287 207.637 260.642 207.432C260.997 207.227 261.281 206.928 261.496 206.536C261.72 206.135 261.832 205.668 261.832 205.136ZM272.608 204.954C272.608 205.243 272.59 205.505 272.552 205.738H266.658C266.705 206.354 266.934 206.849 267.344 207.222C267.755 207.595 268.259 207.782 268.856 207.782C269.715 207.782 270.322 207.423 270.676 206.704H272.398C272.165 207.413 271.74 207.997 271.124 208.454C270.518 208.902 269.762 209.126 268.856 209.126C268.119 209.126 267.456 208.963 266.868 208.636C266.29 208.3 265.832 207.833 265.496 207.236C265.17 206.629 265.006 205.929 265.006 205.136C265.006 204.343 265.165 203.647 265.482 203.05C265.809 202.443 266.262 201.977 266.84 201.65C267.428 201.323 268.1 201.16 268.856 201.16C269.584 201.16 270.233 201.319 270.802 201.636C271.372 201.953 271.815 202.401 272.132 202.98C272.45 203.549 272.608 204.207 272.608 204.954ZM270.942 204.45C270.933 203.862 270.723 203.391 270.312 203.036C269.902 202.681 269.393 202.504 268.786 202.504C268.236 202.504 267.764 202.681 267.372 203.036C266.98 203.381 266.747 203.853 266.672 204.45H270.942ZM276.979 209.126C276.372 209.126 275.826 209.019 275.341 208.804C274.865 208.58 274.487 208.281 274.207 207.908C273.927 207.525 273.778 207.101 273.759 206.634H275.411C275.439 206.961 275.593 207.236 275.873 207.46C276.162 207.675 276.522 207.782 276.951 207.782C277.399 207.782 277.744 207.698 277.987 207.53C278.239 207.353 278.365 207.129 278.365 206.858C278.365 206.569 278.225 206.354 277.945 206.214C277.674 206.074 277.24 205.92 276.643 205.752C276.064 205.593 275.593 205.439 275.229 205.29C274.865 205.141 274.548 204.912 274.277 204.604C274.016 204.296 273.885 203.89 273.885 203.386C273.885 202.975 274.006 202.602 274.249 202.266C274.492 201.921 274.837 201.65 275.285 201.454C275.742 201.258 276.265 201.16 276.853 201.16C277.73 201.16 278.435 201.384 278.967 201.832C279.508 202.271 279.798 202.873 279.835 203.638H278.239C278.211 203.293 278.071 203.017 277.819 202.812C277.567 202.607 277.226 202.504 276.797 202.504C276.377 202.504 276.055 202.583 275.831 202.742C275.607 202.901 275.495 203.111 275.495 203.372C275.495 203.577 275.57 203.75 275.719 203.89C275.868 204.03 276.05 204.142 276.265 204.226C276.48 204.301 276.797 204.399 277.217 204.52C277.777 204.669 278.234 204.823 278.589 204.982C278.953 205.131 279.266 205.355 279.527 205.654C279.788 205.953 279.924 206.349 279.933 206.844C279.933 207.283 279.812 207.675 279.569 208.02C279.326 208.365 278.981 208.636 278.533 208.832C278.094 209.028 277.576 209.126 276.979 209.126ZM282.469 200.264C282.18 200.264 281.937 200.166 281.741 199.97C281.545 199.774 281.447 199.531 281.447 199.242C281.447 198.953 281.545 198.71 281.741 198.514C281.937 198.318 282.18 198.22 282.469 198.22C282.749 198.22 282.987 198.318 283.183 198.514C283.379 198.71 283.477 198.953 283.477 199.242C283.477 199.531 283.379 199.774 283.183 199.97C282.987 200.166 282.749 200.264 282.469 200.264ZM283.253 201.286V209H281.657V201.286H283.253ZM288.457 201.16C289.054 201.16 289.581 201.281 290.039 201.524C290.505 201.757 290.869 202.051 291.131 202.406V201.286H292.741V209.126C292.741 209.835 292.591 210.465 292.293 211.016C291.994 211.576 291.56 212.015 290.991 212.332C290.431 212.649 289.759 212.808 288.975 212.808C287.929 212.808 287.061 212.561 286.371 212.066C285.68 211.581 285.288 210.918 285.195 210.078H286.777C286.898 210.479 287.155 210.801 287.547 211.044C287.948 211.296 288.424 211.422 288.975 211.422C289.619 211.422 290.137 211.226 290.529 210.834C290.93 210.442 291.131 209.873 291.131 209.126V207.838C290.86 208.202 290.491 208.51 290.025 208.762C289.567 209.005 289.045 209.126 288.457 209.126C287.785 209.126 287.169 208.958 286.609 208.622C286.058 208.277 285.619 207.801 285.293 207.194C284.975 206.578 284.817 205.883 284.817 205.108C284.817 204.333 284.975 203.647 285.293 203.05C285.619 202.453 286.058 201.991 286.609 201.664C287.169 201.328 287.785 201.16 288.457 201.16ZM291.131 205.136C291.131 204.604 291.019 204.142 290.795 203.75C290.58 203.358 290.295 203.059 289.941 202.854C289.586 202.649 289.203 202.546 288.793 202.546C288.382 202.546 287.999 202.649 287.645 202.854C287.29 203.05 287.001 203.344 286.777 203.736C286.562 204.119 286.455 204.576 286.455 205.108C286.455 205.64 286.562 206.107 286.777 206.508C287.001 206.909 287.29 207.217 287.645 207.432C288.009 207.637 288.391 207.74 288.793 207.74C289.203 207.74 289.586 207.637 289.941 207.432C290.295 207.227 290.58 206.928 290.795 206.536C291.019 206.135 291.131 205.668 291.131 205.136ZM298.729 201.16C299.336 201.16 299.877 201.286 300.353 201.538C300.838 201.79 301.216 202.163 301.487 202.658C301.758 203.153 301.893 203.75 301.893 204.45V209H300.311V204.688C300.311 203.997 300.138 203.47 299.793 203.106C299.448 202.733 298.976 202.546 298.379 202.546C297.782 202.546 297.306 202.733 296.951 203.106C296.606 203.47 296.433 203.997 296.433 204.688V209H294.837V201.286H296.433V202.168C296.694 201.851 297.026 201.603 297.427 201.426C297.838 201.249 298.272 201.16 298.729 201.16ZM309.428 202.588V206.858C309.428 207.147 309.493 207.357 309.624 207.488C309.764 207.609 309.997 207.67 310.324 207.67H311.304V209H310.044C309.325 209 308.774 208.832 308.392 208.496C308.009 208.16 307.818 207.614 307.818 206.858V202.588H306.908V201.286H307.818V199.368H309.428V201.286H311.304V202.588H309.428ZM319.845 204.954C319.845 205.243 319.826 205.505 319.789 205.738H313.895C313.941 206.354 314.17 206.849 314.581 207.222C314.991 207.595 315.495 207.782 316.093 207.782C316.951 207.782 317.558 207.423 317.913 206.704H319.635C319.401 207.413 318.977 207.997 318.361 208.454C317.754 208.902 316.998 209.126 316.093 209.126C315.355 209.126 314.693 208.963 314.105 208.636C313.526 208.3 313.069 207.833 312.733 207.236C312.406 206.629 312.243 205.929 312.243 205.136C312.243 204.343 312.401 203.647 312.719 203.05C313.045 202.443 313.498 201.977 314.077 201.65C314.665 201.323 315.337 201.16 316.093 201.16C316.821 201.16 317.469 201.319 318.039 201.636C318.608 201.953 319.051 202.401 319.369 202.98C319.686 203.549 319.845 204.207 319.845 204.954ZM318.179 204.45C318.169 203.862 317.959 203.391 317.549 203.036C317.138 202.681 316.629 202.504 316.023 202.504C315.472 202.504 315.001 202.681 314.609 203.036C314.217 203.381 313.983 203.853 313.909 204.45H318.179ZM320.883 205.108C320.883 204.333 321.042 203.647 321.359 203.05C321.686 202.453 322.125 201.991 322.675 201.664C323.235 201.328 323.851 201.16 324.523 201.16C325.13 201.16 325.657 201.281 326.105 201.524C326.563 201.757 326.927 202.051 327.197 202.406V201.286H328.807V209H327.197V207.852C326.927 208.216 326.558 208.519 326.091 208.762C325.625 209.005 325.093 209.126 324.495 209.126C323.833 209.126 323.226 208.958 322.675 208.622C322.125 208.277 321.686 207.801 321.359 207.194C321.042 206.578 320.883 205.883 320.883 205.108ZM327.197 205.136C327.197 204.604 327.085 204.142 326.861 203.75C326.647 203.358 326.362 203.059 326.007 202.854C325.653 202.649 325.27 202.546 324.859 202.546C324.449 202.546 324.066 202.649 323.711 202.854C323.357 203.05 323.067 203.344 322.843 203.736C322.629 204.119 322.521 204.576 322.521 205.108C322.521 205.64 322.629 206.107 322.843 206.508C323.067 206.909 323.357 207.217 323.711 207.432C324.075 207.637 324.458 207.74 324.859 207.74C325.27 207.74 325.653 207.637 326.007 207.432C326.362 207.227 326.647 206.928 326.861 206.536C327.085 206.135 327.197 205.668 327.197 205.136ZM340.242 201.16C340.848 201.16 341.39 201.286 341.866 201.538C342.351 201.79 342.729 202.163 343 202.658C343.28 203.153 343.42 203.75 343.42 204.45V209H341.838V204.688C341.838 203.997 341.665 203.47 341.32 203.106C340.974 202.733 340.503 202.546 339.906 202.546C339.308 202.546 338.832 202.733 338.478 203.106C338.132 203.47 337.96 203.997 337.96 204.688V209H336.378V204.688C336.378 203.997 336.205 203.47 335.86 203.106C335.514 202.733 335.043 202.546 334.446 202.546C333.848 202.546 333.372 202.733 333.018 203.106C332.672 203.47 332.5 203.997 332.5 204.688V209H330.904V201.286H332.5V202.168C332.761 201.851 333.092 201.603 333.494 201.426C333.895 201.249 334.324 201.16 334.782 201.16C335.398 201.16 335.948 201.291 336.434 201.552C336.919 201.813 337.292 202.191 337.554 202.686C337.787 202.219 338.151 201.851 338.646 201.58C339.14 201.3 339.672 201.16 340.242 201.16Z" fill="#674034"/>
<path d="M52.8054 361.032C53.9814 361.032 54.9614 361.321 55.7454 361.9C56.5294 362.479 57.0474 363.267 57.2994 364.266H55.6194C55.4047 363.734 55.0501 363.309 54.5554 362.992C54.07 362.675 53.4914 362.516 52.8194 362.516C52.2034 362.516 51.648 362.661 51.1534 362.95C50.668 363.239 50.2854 363.65 50.0054 364.182C49.7347 364.714 49.5994 365.339 49.5994 366.058C49.5994 366.814 49.7394 367.463 50.0194 368.004C50.2994 368.545 50.6914 368.961 51.1954 369.25C51.7087 369.53 52.3014 369.67 52.9734 369.67C53.7947 369.67 54.4994 369.418 55.0874 368.914C55.6754 368.401 56.03 367.701 56.1514 366.814H52.5254V365.638H57.4954V367.164C57.3834 367.892 57.122 368.555 56.7114 369.152C56.31 369.74 55.7734 370.211 55.1014 370.566C54.4387 370.921 53.678 371.098 52.8194 371.098C51.858 371.098 51.0087 370.883 50.2714 370.454C49.534 370.025 48.9647 369.432 48.5634 368.676C48.162 367.911 47.9614 367.038 47.9614 366.058C47.9614 365.078 48.162 364.21 48.5634 363.454C48.9647 362.689 49.5294 362.096 50.2574 361.676C50.9947 361.247 51.844 361.032 52.8054 361.032ZM58.8875 361.046C58.8875 360.775 58.9808 360.551 59.1675 360.374C59.3542 360.197 59.6015 360.108 59.9095 360.108C60.2175 360.108 60.4648 360.197 60.6515 360.374C60.8475 360.551 60.9455 360.775 60.9455 361.046C60.9455 361.317 60.8475 361.536 60.6515 361.704C60.4648 361.872 60.2175 361.956 59.9095 361.956C59.6015 361.956 59.3542 361.872 59.1675 361.704C58.9808 361.536 58.8875 361.317 58.8875 361.046ZM60.7075 363.286V371H59.1115V363.286H60.7075ZM65.8029 369.348L67.9869 363.286H69.6949L66.7549 371H64.8229L61.8829 363.286H63.5909L65.8029 369.348ZM78.0373 366.772C78.0373 367.033 78.0187 367.262 77.9813 367.458H72.0453C72.0733 368.251 72.2927 368.839 72.7033 369.222C73.114 369.605 73.6227 369.796 74.2293 369.796C74.7613 369.796 75.2093 369.661 75.5733 369.39C75.9467 369.119 76.1753 368.76 76.2593 368.312H77.9673C77.8647 368.853 77.65 369.334 77.3233 369.754C76.9967 370.174 76.572 370.505 76.0493 370.748C75.5267 370.981 74.9433 371.098 74.2993 371.098C73.5527 371.098 72.89 370.939 72.3113 370.622C71.742 370.305 71.294 369.847 70.9673 369.25C70.6407 368.653 70.4773 367.948 70.4773 367.136C70.4773 366.333 70.6407 365.633 70.9673 365.036C71.294 364.439 71.742 363.981 72.3113 363.664C72.89 363.347 73.5527 363.188 74.2993 363.188C75.0553 363.188 75.7133 363.347 76.2733 363.664C76.8427 363.972 77.2767 364.401 77.5753 364.952C77.8833 365.493 78.0373 366.1 78.0373 366.772ZM76.4273 366.73C76.446 366.226 76.3573 365.806 76.1613 365.47C75.9747 365.125 75.7133 364.873 75.3773 364.714C75.0507 364.546 74.6913 364.462 74.2993 364.462C73.674 364.462 73.1513 364.653 72.7313 365.036C72.3113 365.419 72.0827 365.983 72.0453 366.73H76.4273ZM88.6976 361.116V362.404H84.4556V365.47H87.9556V366.702H84.4556V371H82.8596V361.116H88.6976ZM97.2873 366.772C97.2873 367.033 97.2687 367.262 97.2313 367.458H91.2953C91.3233 368.251 91.5427 368.839 91.9533 369.222C92.364 369.605 92.8727 369.796 93.4793 369.796C94.0113 369.796 94.4593 369.661 94.8233 369.39C95.1967 369.119 95.4253 368.76 95.5093 368.312H97.2173C97.1147 368.853 96.9 369.334 96.5733 369.754C96.2467 370.174 95.822 370.505 95.2993 370.748C94.7767 370.981 94.1933 371.098 93.5493 371.098C92.8027 371.098 92.14 370.939 91.5613 370.622C90.992 370.305 90.544 369.847 90.2173 369.25C89.8907 368.653 89.7273 367.948 89.7273 367.136C89.7273 366.333 89.8907 365.633 90.2173 365.036C90.544 364.439 90.992 363.981 91.5613 363.664C92.14 363.347 92.8027 363.188 93.5493 363.188C94.3053 363.188 94.9633 363.347 95.5233 363.664C96.0927 363.972 96.5267 364.401 96.8253 364.952C97.1333 365.493 97.2873 366.1 97.2873 366.772ZM95.6773 366.73C95.696 366.226 95.6073 365.806 95.4113 365.47C95.2247 365.125 94.9633 364.873 94.6273 364.714C94.3007 364.546 93.9413 364.462 93.5493 364.462C92.924 364.462 92.4013 364.653 91.9813 365.036C91.5613 365.419 91.3327 365.983 91.2953 366.73H95.6773ZM105.996 366.772C105.996 367.033 105.978 367.262 105.94 367.458H100.004C100.032 368.251 100.252 368.839 100.662 369.222C101.073 369.605 101.582 369.796 102.188 369.796C102.72 369.796 103.168 369.661 103.532 369.39C103.906 369.119 104.134 368.76 104.218 368.312H105.926C105.824 368.853 105.609 369.334 105.282 369.754C104.956 370.174 104.531 370.505 104.008 370.748C103.486 370.981 102.902 371.098 102.258 371.098C101.512 371.098 100.849 370.939 100.27 370.622C99.701 370.305 99.253 369.847 98.9263 369.25C98.5996 368.653 98.4363 367.948 98.4363 367.136C98.4363 366.333 98.5996 365.633 98.9263 365.036C99.253 364.439 99.701 363.981 100.27 363.664C100.849 363.347 101.512 363.188 102.258 363.188C103.014 363.188 103.672 363.347 104.232 363.664C104.802 363.972 105.236 364.401 105.534 364.952C105.842 365.493 105.996 366.1 105.996 366.772ZM104.386 366.73C104.405 366.226 104.316 365.806 104.12 365.47C103.934 365.125 103.672 364.873 103.336 364.714C103.01 364.546 102.65 364.462 102.258 364.462C101.633 364.462 101.11 364.653 100.69 365.036C100.27 365.419 100.042 365.983 100.004 366.73H104.386ZM110.631 363.188C111.331 363.188 111.929 363.361 112.423 363.706C112.918 364.051 113.263 364.509 113.459 365.078V360.64H115.069V371H113.459V369.208C113.263 369.777 112.918 370.235 112.423 370.58C111.929 370.925 111.331 371.098 110.631 371.098C109.959 371.098 109.357 370.939 108.825 370.622C108.303 370.305 107.892 369.847 107.593 369.25C107.295 368.653 107.145 367.948 107.145 367.136C107.145 366.333 107.295 365.633 107.593 365.036C107.892 364.439 108.303 363.981 108.825 363.664C109.357 363.347 109.959 363.188 110.631 363.188ZM111.121 364.588C110.412 364.588 109.843 364.817 109.413 365.274C108.993 365.722 108.783 366.343 108.783 367.136C108.783 367.929 108.993 368.555 109.413 369.012C109.843 369.46 110.412 369.684 111.121 369.684C111.569 369.684 111.971 369.581 112.325 369.376C112.68 369.161 112.96 368.863 113.165 368.48C113.371 368.097 113.473 367.649 113.473 367.136C113.473 366.632 113.371 366.189 113.165 365.806C112.96 365.414 112.68 365.115 112.325 364.91C111.971 364.695 111.569 364.588 111.121 364.588ZM121.409 363.188C122.081 363.188 122.678 363.347 123.201 363.664C123.733 363.981 124.148 364.439 124.447 365.036C124.745 365.633 124.895 366.333 124.895 367.136C124.895 367.948 124.745 368.653 124.447 369.25C124.148 369.847 123.733 370.305 123.201 370.622C122.678 370.939 122.081 371.098 121.409 371.098C120.709 371.098 120.111 370.925 119.617 370.58C119.122 370.235 118.777 369.777 118.581 369.208V371H116.985V360.64H118.581V365.078C118.777 364.509 119.122 364.051 119.617 363.706C120.111 363.361 120.709 363.188 121.409 363.188ZM120.919 364.588C120.471 364.588 120.069 364.695 119.715 364.91C119.36 365.115 119.08 365.414 118.875 365.806C118.669 366.189 118.567 366.632 118.567 367.136C118.567 367.649 118.669 368.097 118.875 368.48C119.08 368.863 119.36 369.161 119.715 369.376C120.069 369.581 120.471 369.684 120.919 369.684C121.628 369.684 122.197 369.46 122.627 369.012C123.056 368.555 123.271 367.929 123.271 367.136C123.271 366.352 123.056 365.731 122.627 365.274C122.197 364.817 121.628 364.588 120.919 364.588ZM129.526 363.188C130.226 363.188 130.823 363.361 131.318 363.706C131.812 364.051 132.162 364.509 132.368 365.078V363.286H133.964V371H132.368V369.208C132.162 369.777 131.812 370.235 131.318 370.58C130.823 370.925 130.226 371.098 129.526 371.098C128.854 371.098 128.252 370.939 127.72 370.622C127.197 370.305 126.786 369.847 126.488 369.25C126.189 368.653 126.04 367.948 126.04 367.136C126.04 366.333 126.189 365.633 126.488 365.036C126.786 364.439 127.197 363.981 127.72 363.664C128.252 363.347 128.854 363.188 129.526 363.188ZM130.016 364.588C129.306 364.588 128.737 364.817 128.308 365.274C127.888 365.722 127.678 366.343 127.678 367.136C127.678 367.929 127.888 368.555 128.308 369.012C128.737 369.46 129.306 369.684 130.016 369.684C130.464 369.684 130.865 369.581 131.22 369.376C131.574 369.161 131.854 368.863 132.06 368.48C132.265 368.097 132.368 367.649 132.368 367.136C132.368 366.632 132.265 366.189 132.06 365.806C131.854 365.414 131.574 365.115 131.22 364.91C130.865 364.695 130.464 364.588 130.016 364.588ZM139.309 363.188C140.308 363.188 141.134 363.454 141.787 363.986C142.44 364.509 142.846 365.223 143.005 366.128H141.311C141.218 365.643 140.989 365.265 140.625 364.994C140.27 364.714 139.822 364.574 139.281 364.574C138.665 364.574 138.152 364.793 137.741 365.232C137.33 365.661 137.125 366.296 137.125 367.136C137.125 367.976 137.33 368.615 137.741 369.054C138.152 369.493 138.665 369.712 139.281 369.712C139.822 369.712 140.27 369.572 140.625 369.292C140.989 369.012 141.218 368.629 141.311 368.144H143.005C142.846 369.049 142.44 369.768 141.787 370.3C141.134 370.832 140.308 371.098 139.309 371.098C138.562 371.098 137.9 370.939 137.321 370.622C136.752 370.305 136.304 369.847 135.977 369.25C135.65 368.653 135.487 367.948 135.487 367.136C135.487 366.333 135.65 365.633 135.977 365.036C136.304 364.439 136.752 363.981 137.321 363.664C137.9 363.347 138.562 363.188 139.309 363.188ZM148.915 371L146.143 367.57V371H144.547V360.64H146.143V366.576L148.887 363.286H150.805L147.445 367.122L150.889 371H148.915Z" fill="#674034"/>
<path d="M113.009 711.404V714.4H116.649V715.632H113.009V718.698H117.069V720H111.413V710.116H117.069V711.404H113.009ZM122.93 712.16C123.826 712.16 124.545 712.449 125.086 713.028C125.628 713.607 125.898 714.433 125.898 715.506V720H124.302V715.674C124.302 714.983 124.125 714.451 123.77 714.078C123.416 713.695 122.93 713.504 122.314 713.504C121.68 713.504 121.171 713.709 120.788 714.12C120.406 714.521 120.214 715.114 120.214 715.898V720H118.618V712.286H120.214V713.98C120.42 713.401 120.765 712.953 121.25 712.636C121.736 712.319 122.296 712.16 122.93 712.16ZM128.633 710.956C128.325 710.956 128.073 710.872 127.877 710.704C127.69 710.536 127.597 710.317 127.597 710.046C127.597 709.775 127.69 709.551 127.877 709.374C128.073 709.197 128.325 709.108 128.633 709.108C128.941 709.108 129.188 709.197 129.375 709.374C129.561 709.551 129.655 709.775 129.655 710.046C129.655 710.317 129.561 710.536 129.375 710.704C129.188 710.872 128.941 710.956 128.633 710.956ZM126.393 722.268H126.939C127.247 722.268 127.471 722.198 127.611 722.058C127.76 721.927 127.835 721.699 127.835 721.372V712.286H129.445V721.386C129.445 722.907 128.679 723.668 127.149 723.668H126.393V722.268ZM134.875 712.188C135.622 712.188 136.294 712.347 136.891 712.664C137.488 712.981 137.955 713.439 138.291 714.036C138.627 714.633 138.795 715.333 138.795 716.136C138.795 716.948 138.627 717.653 138.291 718.25C137.955 718.847 137.488 719.305 136.891 719.622C136.294 719.939 135.622 720.098 134.875 720.098C134.128 720.098 133.456 719.939 132.859 719.622C132.271 719.305 131.804 718.847 131.459 718.25C131.123 717.643 130.955 716.939 130.955 716.136C130.955 715.333 131.123 714.633 131.459 714.036C131.804 713.439 132.271 712.981 132.859 712.664C133.456 712.347 134.128 712.188 134.875 712.188ZM134.875 713.574C134.464 713.574 134.086 713.667 133.741 713.854C133.396 714.041 133.116 714.33 132.901 714.722C132.696 715.105 132.593 715.576 132.593 716.136C132.593 716.705 132.696 717.181 132.901 717.564C133.116 717.947 133.396 718.231 133.741 718.418C134.086 718.605 134.464 718.698 134.875 718.698C135.286 718.698 135.664 718.605 136.009 718.418C136.354 718.231 136.63 717.947 136.835 717.564C137.05 717.181 137.157 716.705 137.157 716.136C137.157 715.576 137.05 715.105 136.835 714.722C136.63 714.33 136.354 714.041 136.009 713.854C135.664 713.667 135.286 713.574 134.875 713.574ZM141.239 712.286L143.549 717.956L145.691 712.286H147.469L142.807 723.668H141.029L142.695 719.818L139.447 712.286H141.239Z" fill="#674034"/>
<path d="M267.916 541.012H263.842L263.142 543H261.476L264.962 533.256H266.81L270.296 543H268.616L267.916 541.012ZM267.468 539.71L265.886 535.188L264.29 539.71H267.468ZM273.408 536.42C273.678 536.065 274.047 535.767 274.514 535.524C274.98 535.281 275.508 535.16 276.096 535.16C276.768 535.16 277.379 535.328 277.93 535.664C278.49 535.991 278.928 536.453 279.246 537.05C279.563 537.647 279.722 538.333 279.722 539.108C279.722 539.883 279.563 540.578 279.246 541.194C278.928 541.801 278.49 542.277 277.93 542.622C277.379 542.958 276.768 543.126 276.096 543.126C275.508 543.126 274.985 543.009 274.528 542.776C274.07 542.533 273.697 542.235 273.408 541.88V546.668H271.812V535.286H273.408V536.42ZM278.098 539.108C278.098 538.576 277.986 538.119 277.762 537.736C277.547 537.344 277.258 537.05 276.894 536.854C276.539 536.649 276.156 536.546 275.746 536.546C275.344 536.546 274.962 536.649 274.598 536.854C274.243 537.059 273.954 537.358 273.73 537.75C273.515 538.142 273.408 538.604 273.408 539.136C273.408 539.668 273.515 540.135 273.73 540.536C273.954 540.928 274.243 541.227 274.598 541.432C274.962 541.637 275.344 541.74 275.746 541.74C276.156 541.74 276.539 541.637 276.894 541.432C277.258 541.217 277.547 540.909 277.762 540.508C277.986 540.107 278.098 539.64 278.098 539.108ZM282.896 536.42C283.167 536.065 283.535 535.767 284.002 535.524C284.469 535.281 284.996 535.16 285.584 535.16C286.256 535.16 286.867 535.328 287.418 535.664C287.978 535.991 288.417 536.453 288.734 537.05C289.051 537.647 289.21 538.333 289.21 539.108C289.21 539.883 289.051 540.578 288.734 541.194C288.417 541.801 287.978 542.277 287.418 542.622C286.867 542.958 286.256 543.126 285.584 543.126C284.996 543.126 284.473 543.009 284.016 542.776C283.559 542.533 283.185 542.235 282.896 541.88V546.668H281.3V535.286H282.896V536.42ZM287.586 539.108C287.586 538.576 287.474 538.119 287.25 537.736C287.035 537.344 286.746 537.05 286.382 536.854C286.027 536.649 285.645 536.546 285.234 536.546C284.833 536.546 284.45 536.649 284.086 536.854C283.731 537.059 283.442 537.358 283.218 537.75C283.003 538.142 282.896 538.604 282.896 539.136C282.896 539.668 283.003 540.135 283.218 540.536C283.442 540.928 283.731 541.227 284.086 541.432C284.45 541.637 284.833 541.74 285.234 541.74C285.645 541.74 286.027 541.637 286.382 541.432C286.746 541.217 287.035 540.909 287.25 540.508C287.474 540.107 287.586 539.64 287.586 539.108ZM292.384 536.406C292.618 536.014 292.926 535.711 293.308 535.496C293.7 535.272 294.162 535.16 294.694 535.16V536.812H294.288C293.663 536.812 293.187 536.971 292.86 537.288C292.543 537.605 292.384 538.156 292.384 538.94V543H290.788V535.286H292.384V536.406ZM299.507 543.126C298.779 543.126 298.121 542.963 297.533 542.636C296.945 542.3 296.483 541.833 296.147 541.236C295.811 540.629 295.643 539.929 295.643 539.136C295.643 538.352 295.816 537.657 296.161 537.05C296.507 536.443 296.978 535.977 297.575 535.65C298.173 535.323 298.84 535.16 299.577 535.16C300.315 535.16 300.982 535.323 301.579 535.65C302.177 535.977 302.648 536.443 302.993 537.05C303.339 537.657 303.511 538.352 303.511 539.136C303.511 539.92 303.334 540.615 302.979 541.222C302.625 541.829 302.139 542.3 301.523 542.636C300.917 542.963 300.245 543.126 299.507 543.126ZM299.507 541.74C299.918 541.74 300.301 541.642 300.655 541.446C301.019 541.25 301.313 540.956 301.537 540.564C301.761 540.172 301.873 539.696 301.873 539.136C301.873 538.576 301.766 538.105 301.551 537.722C301.337 537.33 301.052 537.036 300.697 536.84C300.343 536.644 299.96 536.546 299.549 536.546C299.139 536.546 298.756 536.644 298.401 536.84C298.056 537.036 297.781 537.33 297.575 537.722C297.37 538.105 297.267 538.576 297.267 539.136C297.267 539.967 297.477 540.611 297.897 541.068C298.327 541.516 298.863 541.74 299.507 541.74ZM308.071 541.572L310.255 535.286H311.949L309.009 543H307.105L304.179 535.286H305.887L308.071 541.572ZM320.225 538.954C320.225 539.243 320.207 539.505 320.169 539.738H314.275C314.322 540.354 314.551 540.849 314.961 541.222C315.372 541.595 315.876 541.782 316.473 541.782C317.332 541.782 317.939 541.423 318.293 540.704H320.015C319.782 541.413 319.357 541.997 318.741 542.454C318.135 542.902 317.379 543.126 316.473 543.126C315.736 543.126 315.073 542.963 314.485 542.636C313.907 542.3 313.449 541.833 313.113 541.236C312.787 540.629 312.623 539.929 312.623 539.136C312.623 538.343 312.782 537.647 313.099 537.05C313.426 536.443 313.879 535.977 314.457 535.65C315.045 535.323 315.717 535.16 316.473 535.16C317.201 535.16 317.85 535.319 318.419 535.636C318.989 535.953 319.432 536.401 319.749 536.98C320.067 537.549 320.225 538.207 320.225 538.954ZM318.559 538.45C318.55 537.862 318.34 537.391 317.929 537.036C317.519 536.681 317.01 536.504 316.403 536.504C315.853 536.504 315.381 536.681 314.989 537.036C314.597 537.381 314.364 537.853 314.289 538.45H318.559ZM324.901 539.108C324.901 538.333 325.059 537.647 325.377 537.05C325.703 536.453 326.142 535.991 326.693 535.664C327.253 535.328 327.869 535.16 328.541 535.16C329.147 535.16 329.675 535.281 330.123 535.524C330.58 535.757 330.944 536.051 331.215 536.406V535.286H332.825V543H331.215V541.852C330.944 542.216 330.575 542.519 330.109 542.762C329.642 543.005 329.11 543.126 328.513 543.126C327.85 543.126 327.243 542.958 326.693 542.622C326.142 542.277 325.703 541.801 325.377 541.194C325.059 540.578 324.901 539.883 324.901 539.108ZM331.215 539.136C331.215 538.604 331.103 538.142 330.879 537.75C330.664 537.358 330.379 537.059 330.025 536.854C329.67 536.649 329.287 536.546 328.877 536.546C328.466 536.546 328.083 536.649 327.729 536.854C327.374 537.05 327.085 537.344 326.861 537.736C326.646 538.119 326.539 538.576 326.539 539.108C326.539 539.64 326.646 540.107 326.861 540.508C327.085 540.909 327.374 541.217 327.729 541.432C328.093 541.637 328.475 541.74 328.877 541.74C329.287 541.74 329.67 541.637 330.025 541.432C330.379 541.227 330.664 540.928 330.879 540.536C331.103 540.135 331.215 539.668 331.215 539.136ZM338.813 535.16C339.42 535.16 339.961 535.286 340.437 535.538C340.922 535.79 341.3 536.163 341.571 536.658C341.842 537.153 341.977 537.75 341.977 538.45V543H340.395V538.688C340.395 537.997 340.222 537.47 339.877 537.106C339.532 536.733 339.06 536.546 338.463 536.546C337.866 536.546 337.39 536.733 337.035 537.106C336.69 537.47 336.517 537.997 336.517 538.688V543H334.921V535.286H336.517V536.168C336.778 535.851 337.11 535.603 337.511 535.426C337.922 535.249 338.356 535.16 338.813 535.16ZM343.481 539.108C343.481 538.333 343.64 537.647 343.957 537.05C344.284 536.453 344.722 535.991 345.273 535.664C345.833 535.328 346.454 535.16 347.135 535.16C347.639 535.16 348.134 535.272 348.619 535.496C349.114 535.711 349.506 536 349.795 536.364V532.64H351.405V543H349.795V541.838C349.534 542.211 349.17 542.519 348.703 542.762C348.246 543.005 347.718 543.126 347.121 543.126C346.449 543.126 345.833 542.958 345.273 542.622C344.722 542.277 344.284 541.801 343.957 541.194C343.64 540.578 343.481 539.883 343.481 539.108ZM349.795 539.136C349.795 538.604 349.683 538.142 349.459 537.75C349.244 537.358 348.96 537.059 348.605 536.854C348.25 536.649 347.868 536.546 347.457 536.546C347.046 536.546 346.664 536.649 346.309 536.854C345.954 537.05 345.665 537.344 345.441 537.736C345.226 538.119 345.119 538.576 345.119 539.108C345.119 539.64 345.226 540.107 345.441 540.508C345.665 540.909 345.954 541.217 346.309 541.432C346.673 541.637 347.056 541.74 347.457 541.74C347.868 541.74 348.25 541.637 348.605 541.432C348.96 541.227 349.244 540.928 349.459 540.536C349.683 540.135 349.795 539.668 349.795 539.136ZM263.646 557.406C263.879 557.014 264.187 556.711 264.57 556.496C264.962 556.272 265.424 556.16 265.956 556.16V557.812H265.55C264.925 557.812 264.449 557.971 264.122 558.288C263.805 558.605 263.646 559.156 263.646 559.94V564H262.05V556.286H263.646V557.406ZM274.493 559.954C274.493 560.243 274.474 560.505 274.437 560.738H268.543C268.59 561.354 268.818 561.849 269.229 562.222C269.64 562.595 270.144 562.782 270.741 562.782C271.6 562.782 272.206 562.423 272.561 561.704H274.283C274.05 562.413 273.625 562.997 273.009 563.454C272.402 563.902 271.646 564.126 270.741 564.126C270.004 564.126 269.341 563.963 268.753 563.636C268.174 563.3 267.717 562.833 267.381 562.236C267.054 561.629 266.891 560.929 266.891 560.136C266.891 559.343 267.05 558.647 267.367 558.05C267.694 557.443 268.146 556.977 268.725 556.65C269.313 556.323 269.985 556.16 270.741 556.16C271.469 556.16 272.118 556.319 272.687 556.636C273.256 556.953 273.7 557.401 274.017 557.98C274.334 558.549 274.493 559.207 274.493 559.954ZM272.827 559.45C272.818 558.862 272.608 558.391 272.197 558.036C271.786 557.681 271.278 557.504 270.671 557.504C270.12 557.504 269.649 557.681 269.257 558.036C268.865 558.381 268.632 558.853 268.557 559.45H272.827ZM275.532 560.136C275.532 559.343 275.69 558.647 276.008 558.05C276.334 557.443 276.782 556.977 277.352 556.65C277.921 556.323 278.574 556.16 279.312 556.16C280.245 556.16 281.015 556.384 281.622 556.832C282.238 557.271 282.653 557.901 282.868 558.722H281.146C281.006 558.339 280.782 558.041 280.474 557.826C280.166 557.611 279.778 557.504 279.312 557.504C278.658 557.504 278.136 557.737 277.744 558.204C277.361 558.661 277.17 559.305 277.17 560.136C277.17 560.967 277.361 561.615 277.744 562.082C278.136 562.549 278.658 562.782 279.312 562.782C280.236 562.782 280.847 562.376 281.146 561.564H282.868C282.644 562.348 282.224 562.973 281.608 563.44C280.992 563.897 280.226 564.126 279.312 564.126C278.574 564.126 277.921 563.963 277.352 563.636C276.782 563.3 276.334 562.833 276.008 562.236C275.69 561.629 275.532 560.929 275.532 560.136ZM291.528 559.954C291.528 560.243 291.51 560.505 291.472 560.738H285.578C285.625 561.354 285.854 561.849 286.264 562.222C286.675 562.595 287.179 562.782 287.776 562.782C288.635 562.782 289.242 562.423 289.596 561.704H291.318C291.085 562.413 290.66 562.997 290.044 563.454C289.438 563.902 288.682 564.126 287.776 564.126C287.039 564.126 286.376 563.963 285.788 563.636C285.21 563.3 284.752 562.833 284.416 562.236C284.09 561.629 283.926 560.929 283.926 560.136C283.926 559.343 284.085 558.647 284.402 558.05C284.729 557.443 285.182 556.977 285.76 556.65C286.348 556.323 287.02 556.16 287.776 556.16C288.504 556.16 289.153 556.319 289.722 556.636C290.292 556.953 290.735 557.401 291.052 557.98C291.37 558.549 291.528 559.207 291.528 559.954ZM289.862 559.45C289.853 558.862 289.643 558.391 289.232 558.036C288.822 557.681 288.313 557.504 287.706 557.504C287.156 557.504 286.684 557.681 286.292 558.036C285.9 558.381 285.667 558.853 285.592 559.45H289.862ZM293.911 555.264C293.621 555.264 293.379 555.166 293.183 554.97C292.987 554.774 292.889 554.531 292.889 554.242C292.889 553.953 292.987 553.71 293.183 553.514C293.379 553.318 293.621 553.22 293.911 553.22C294.191 553.22 294.429 553.318 294.625 553.514C294.821 553.71 294.919 553.953 294.919 554.242C294.919 554.531 294.821 554.774 294.625 554.97C294.429 555.166 294.191 555.264 293.911 555.264ZM294.695 556.286V564H293.099V556.286H294.695ZM299.772 562.572L301.956 556.286H303.65L300.71 564H298.806L295.88 556.286H297.588L299.772 562.572ZM311.927 559.954C311.927 560.243 311.908 560.505 311.871 560.738H305.977C306.023 561.354 306.252 561.849 306.663 562.222C307.073 562.595 307.577 562.782 308.175 562.782C309.033 562.782 309.64 562.423 309.995 561.704H311.717C311.483 562.413 311.059 562.997 310.443 563.454C309.836 563.902 309.08 564.126 308.175 564.126C307.437 564.126 306.775 563.963 306.187 563.636C305.608 563.3 305.151 562.833 304.815 562.236C304.488 561.629 304.325 560.929 304.325 560.136C304.325 559.343 304.483 558.647 304.801 558.05C305.127 557.443 305.58 556.977 306.159 556.65C306.747 556.323 307.419 556.16 308.175 556.16C308.903 556.16 309.551 556.319 310.121 556.636C310.69 556.953 311.133 557.401 311.451 557.98C311.768 558.549 311.927 559.207 311.927 559.954ZM310.261 559.45C310.251 558.862 310.041 558.391 309.631 558.036C309.22 557.681 308.711 557.504 308.105 557.504C307.554 557.504 307.083 557.681 306.691 558.036C306.299 558.381 306.065 558.853 305.991 559.45H310.261ZM316.602 560.108C316.602 559.333 316.761 558.647 317.078 558.05C317.405 557.453 317.843 556.991 318.394 556.664C318.954 556.328 319.575 556.16 320.256 556.16C320.76 556.16 321.255 556.272 321.74 556.496C322.235 556.711 322.627 557 322.916 557.364V553.64H324.526V564H322.916V562.838C322.655 563.211 322.291 563.519 321.824 563.762C321.367 564.005 320.839 564.126 320.242 564.126C319.57 564.126 318.954 563.958 318.394 563.622C317.843 563.277 317.405 562.801 317.078 562.194C316.761 561.578 316.602 560.883 316.602 560.108ZM322.916 560.136C322.916 559.604 322.804 559.142 322.58 558.75C322.365 558.358 322.081 558.059 321.726 557.854C321.371 557.649 320.989 557.546 320.578 557.546C320.167 557.546 319.785 557.649 319.43 557.854C319.075 558.05 318.786 558.344 318.562 558.736C318.347 559.119 318.24 559.576 318.24 560.108C318.24 560.64 318.347 561.107 318.562 561.508C318.786 561.909 319.075 562.217 319.43 562.432C319.794 562.637 320.177 562.74 320.578 562.74C320.989 562.74 321.371 562.637 321.726 562.432C322.081 562.227 322.365 561.928 322.58 561.536C322.804 561.135 322.916 560.668 322.916 560.136ZM333.692 559.954C333.692 560.243 333.674 560.505 333.636 560.738H327.742C327.789 561.354 328.018 561.849 328.428 562.222C328.839 562.595 329.343 562.782 329.94 562.782C330.799 562.782 331.406 562.423 331.76 561.704H333.482C333.249 562.413 332.824 562.997 332.208 563.454C331.602 563.902 330.846 564.126 329.94 564.126C329.203 564.126 328.54 563.963 327.952 563.636C327.374 563.3 326.916 562.833 326.58 562.236C326.254 561.629 326.09 560.929 326.09 560.136C326.09 559.343 326.249 558.647 326.566 558.05C326.893 557.443 327.346 556.977 327.924 556.65C328.512 556.323 329.184 556.16 329.94 556.16C330.668 556.16 331.317 556.319 331.886 556.636C332.456 556.953 332.899 557.401 333.216 557.98C333.534 558.549 333.692 559.207 333.692 559.954ZM332.026 559.45C332.017 558.862 331.807 558.391 331.396 558.036C330.986 557.681 330.477 557.504 329.87 557.504C329.32 557.504 328.848 557.681 328.456 558.036C328.064 558.381 327.831 558.853 327.756 559.45H332.026ZM338.063 564.126C337.456 564.126 336.91 564.019 336.425 563.804C335.949 563.58 335.571 563.281 335.291 562.908C335.011 562.525 334.862 562.101 334.843 561.634H336.495C336.523 561.961 336.677 562.236 336.957 562.46C337.246 562.675 337.606 562.782 338.035 562.782C338.483 562.782 338.828 562.698 339.071 562.53C339.323 562.353 339.449 562.129 339.449 561.858C339.449 561.569 339.309 561.354 339.029 561.214C338.758 561.074 338.324 560.92 337.727 560.752C337.148 560.593 336.677 560.439 336.313 560.29C335.949 560.141 335.632 559.912 335.361 559.604C335.1 559.296 334.969 558.89 334.969 558.386C334.969 557.975 335.09 557.602 335.333 557.266C335.576 556.921 335.921 556.65 336.369 556.454C336.826 556.258 337.349 556.16 337.937 556.16C338.814 556.16 339.519 556.384 340.051 556.832C340.592 557.271 340.882 557.873 340.919 558.638H339.323C339.295 558.293 339.155 558.017 338.903 557.812C338.651 557.607 338.31 557.504 337.881 557.504C337.461 557.504 337.139 557.583 336.915 557.742C336.691 557.901 336.579 558.111 336.579 558.372C336.579 558.577 336.654 558.75 336.803 558.89C336.952 559.03 337.134 559.142 337.349 559.226C337.564 559.301 337.881 559.399 338.301 559.52C338.861 559.669 339.318 559.823 339.673 559.982C340.037 560.131 340.35 560.355 340.611 560.654C340.872 560.953 341.008 561.349 341.017 561.844C341.017 562.283 340.896 562.675 340.653 563.02C340.41 563.365 340.065 563.636 339.617 563.832C339.178 564.028 338.66 564.126 338.063 564.126ZM343.553 555.264C343.264 555.264 343.021 555.166 342.825 554.97C342.629 554.774 342.531 554.531 342.531 554.242C342.531 553.953 342.629 553.71 342.825 553.514C343.021 553.318 343.264 553.22 343.553 553.22C343.833 553.22 344.071 553.318 344.267 553.514C344.463 553.71 344.561 553.953 344.561 554.242C344.561 554.531 344.463 554.774 344.267 554.97C344.071 555.166 343.833 555.264 343.553 555.264ZM344.337 556.286V564H342.741V556.286H344.337ZM349.541 556.16C350.138 556.16 350.665 556.281 351.123 556.524C351.589 556.757 351.953 557.051 352.215 557.406V556.286H353.825V564.126C353.825 564.835 353.675 565.465 353.377 566.016C353.078 566.576 352.644 567.015 352.075 567.332C351.515 567.649 350.843 567.808 350.059 567.808C349.013 567.808 348.145 567.561 347.455 567.066C346.764 566.581 346.372 565.918 346.279 565.078H347.861C347.982 565.479 348.239 565.801 348.631 566.044C349.032 566.296 349.508 566.422 350.059 566.422C350.703 566.422 351.221 566.226 351.613 565.834C352.014 565.442 352.215 564.873 352.215 564.126V562.838C351.944 563.202 351.575 563.51 351.109 563.762C350.651 564.005 350.129 564.126 349.541 564.126C348.869 564.126 348.253 563.958 347.693 563.622C347.142 563.277 346.703 562.801 346.377 562.194C346.059 561.578 345.901 560.883 345.901 560.108C345.901 559.333 346.059 558.647 346.377 558.05C346.703 557.453 347.142 556.991 347.693 556.664C348.253 556.328 348.869 556.16 349.541 556.16ZM352.215 560.136C352.215 559.604 352.103 559.142 351.879 558.75C351.664 558.358 351.379 558.059 351.025 557.854C350.67 557.649 350.287 557.546 349.877 557.546C349.466 557.546 349.083 557.649 348.729 557.854C348.374 558.05 348.085 558.344 347.861 558.736C347.646 559.119 347.539 559.576 347.539 560.108C347.539 560.64 347.646 561.107 347.861 561.508C348.085 561.909 348.374 562.217 348.729 562.432C349.093 562.637 349.475 562.74 349.877 562.74C350.287 562.74 350.67 562.637 351.025 562.432C351.379 562.227 351.664 561.928 351.879 561.536C352.103 561.135 352.215 560.668 352.215 560.136ZM359.813 556.16C360.42 556.16 360.961 556.286 361.437 556.538C361.922 556.79 362.3 557.163 362.571 557.658C362.842 558.153 362.977 558.75 362.977 559.45V564H361.395V559.688C361.395 558.997 361.222 558.47 360.877 558.106C360.532 557.733 360.06 557.546 359.463 557.546C358.866 557.546 358.39 557.733 358.035 558.106C357.69 558.47 357.517 558.997 357.517 559.688V564H355.921V556.286H357.517V557.168C357.778 556.851 358.11 556.603 358.511 556.426C358.922 556.249 359.356 556.16 359.813 556.16Z" fill="#674034"/>
<defs>
<filter id="filter0_d" x="191.999" y="27" width="14" height="158" filterUnits="userSpaceOnUse" color-interpolation-filters="sRGB">
<feFlood flood-opacity="0" result="BackgroundImageFix"/>
<feColorMatrix in="SourceAlpha" type="matrix" values="0 0 0 0 0 0 0 0 0 0 0 0 0 0 0 0 0 0 127 0"/>
<feOffset/>
<feGaussianBlur stdDeviation="2"/>
<feColorMatrix type="matrix" values="0 0 0 0 1 0 0 0 0 0.291667 0 0 0 0 0.546667 0 0 0 0.7 0"/>
<feBlend mode="normal" in2="BackgroundImageFix" result="effect1_dropShadow"/>
<feBlend mode="normal" in="SourceGraphic" in2="effect1_dropShadow" result="shape"/>
</filter>
<filter id="filter1_d" x="191.999" y="200" width="14" height="158" filterUnits="userSpaceOnUse" color-interpolation-filters="sRGB">
<feFlood flood-opacity="0" result="BackgroundImageFix"/>
<feColorMatrix in="SourceAlpha" type="matrix" values="0 0 0 0 0 0 0 0 0 0 0 0 0 0 0 0 0 0 127 0"/>
<feOffset/>
<feGaussianBlur stdDeviation="2"/>
<feColorMatrix type="matrix" values="0 0 0 0 1 0 0 0 0 0.291667 0 0 0 0 0.546667 0 0 0 0.7 0"/>
<feBlend mode="normal" in2="BackgroundImageFix" result="effect1_dropShadow"/>
<feBlend mode="normal" in="SourceGraphic" in2="effect1_dropShadow" result="shape"/>
</filter>
<filter id="filter2_d" x="191.999" y="377" width="14" height="158" filterUnits="userSpaceOnUse" color-interpolation-filters="sRGB">
<feFlood flood-opacity="0" result="BackgroundImageFix"/>
<feColorMatrix in="SourceAlpha" type="matrix" values="0 0 0 0 0 0 0 0 0 0 0 0 0 0 0 0 0 0 127 0"/>
<feOffset/>
<feGaussianBlur stdDeviation="2"/>
<feColorMatrix type="matrix" values="0 0 0 0 1 0 0 0 0 0.291667 0 0 0 0 0.546667 0 0 0 0.7 0"/>
<feBlend mode="normal" in2="BackgroundImageFix" result="effect1_dropShadow"/>
<feBlend mode="normal" in="SourceGraphic" in2="effect1_dropShadow" result="shape"/>
</filter>
<filter id="filter3_d" x="191.999" y="551" width="14" height="158" filterUnits="userSpaceOnUse" color-interpolation-filters="sRGB">
<feFlood flood-opacity="0" result="BackgroundImageFix"/>
<feColorMatrix in="SourceAlpha" type="matrix" values="0 0 0 0 0 0 0 0 0 0 0 0 0 0 0 0 0 0 127 0"/>
<feOffset/>
<feGaussianBlur stdDeviation="2"/>
<feColorMatrix type="matrix" values="0 0 0 0 1 0 0 0 0 0.291667 0 0 0 0 0.546667 0 0 0 0.7 0"/>
<feBlend mode="normal" in2="BackgroundImageFix" result="effect1_dropShadow"/>
<feBlend mode="normal" in="SourceGraphic" in2="effect1_dropShadow" result="shape"/>
</filter>
</defs>
</svg>
